<?xml version="1.0"?>
<svg version="1.1" viewBox="0 0 500 500" xmlns:xlink="http://www.w3.org/1999/xlink" xmlns="http://www.w3.org/2000/svg">
<g>
<g stroke-dasharray="3.6 7.2" stroke-width="0.72" stroke="#caa">
<line x1="62.50" x2="62.50" y1="475.00" y2="25.00" />
<line x1="137.50" x2="137.50" y1="475.00" y2="25.00" />
<line x1="212.50" x2="212.50" y1="475.00" y2="25.00" />
<line x1="287.50" x2="287.50" y1="475.00" y2="25.00" />
<line x1="362.50" x2="362.50" y1="475.00" y2="25.00" />
<line x1="437.50" x2="437.50" y1="475.00" y2="25.00" />
<line x1="25.00" x2="475.00" y1="395.03" y2="395.03" />
<line x1="25.00" x2="475.00" y1="280.11" y2="280.11" />
<line x1="25.00" x2="475.00" y1="165.19" y2="165.19" />
<line x1="25.00" x2="475.00" y1="50.27" y2="50.27" />
</g>
<g>
<text dominant-baseline="hanging" dx="-36.0" dy="18.0" fill="#0004" font-family="Arial, sans-serif" font-size="36" stroke="none" text-anchor="end" x="475.00" y="62.50">LL</text>
</g>
<g>
<text dominant-baseline="text-bottom" dy="-12.0" fill="black" font-family="Arial, sans-serif" font-size="18.0" font-style="italic" stroke="none" text-anchor="middle" x="250.00" y="25.00">Relative Positions</text>
</g>
<g>
<text dominant-baseline="hanging" dx="18.0" dy="18.0" fill="black" font-family="Arial, sans-serif" font-size="18.0" font-style="italic" stroke="none" text-anchor="beginning" text-orientation="sideways" x="25.00" y="25.00">d-Oxygen</text>
</g>
<polyline fill="none" points="62.50,409.81 137.50,135.17 212.50,118.33 287.50,173.30 362.50,156.61" stroke-dasharray="3.2 3.2" stroke-width="3.2" stroke="#aaa" />
<polyline fill="none" points="62.50,187.42 137.50,167.09 212.50,168.59 287.50,305.11 362.50,175.11 437.50,193.23" stroke-dasharray="3.2 3.2" stroke-width="3.2" stroke="#aaa" />
<polyline fill="none" points="62.50,87.22 137.50,66.89 212.50,88.05 287.50,114.81 362.50,87.41 437.50,86.16" stroke-dasharray="3.2 3.2" stroke-width="3.2" stroke="#aaa" />
<g>
<text dominant-baseline="central" fill="#15b01a" font-size="21.333333333333332" stroke="none" text-anchor="middle" x="62.50" y="409.81">A</text>
<text dominant-baseline="central" fill="#15b01a" font-size="21.333333333333332" stroke="none" text-anchor="middle" x="137.50" y="135.17">B</text>
<text dominant-baseline="central" fill="#15b01a" font-size="21.333333333333332" stroke="none" text-anchor="middle" x="212.50" y="118.33">C</text>
<text dominant-baseline="central" fill="#15b01a" font-size="21.333333333333332" stroke="none" text-anchor="middle" x="287.50" y="173.30">D</text>
<text dominant-baseline="central" fill="#15b01a" font-size="21.333333333333332" stroke="none" text-anchor="middle" x="362.50" y="156.61">E</text>
</g>
<g>
<text dominant-baseline="central" fill="#f97306" font-size="21.333333333333332" stroke="none" text-anchor="middle" x="62.50" y="187.42">A</text>
<text dominant-baseline="central" fill="#f97306" font-size="21.333333333333332" stroke="none" text-anchor="middle" x="137.50" y="167.09">B</text>
<text dominant-baseline="central" fill="#f97306" font-size="21.333333333333332" stroke="none" text-anchor="middle" x="212.50" y="168.59">C</text>
<text dominant-baseline="central" fill="#f97306" font-size="21.333333333333332" stroke="none" text-anchor="middle" x="287.50" y="305.11">D</text>
<text dominant-baseline="central" fill="#f97306" font-size="21.333333333333332" stroke="none" text-anchor="middle" x="362.50" y="175.11">E</text>
<text dominant-baseline="central" fill="#f97306" font-size="21.333333333333332" stroke="none" text-anchor="middle" x="437.50" y="193.23">F</text>
</g>
<g>
<text dominant-baseline="central" fill="#bf77f6" font-size="21.333333333333332" stroke="none" text-anchor="middle" x="62.50" y="87.22">A</text>
<text dominant-baseline="central" fill="#bf77f6" font-size="21.333333333333332" stroke="none" text-anchor="middle" x="137.50" y="66.89">B</text>
<text dominant-baseline="central" fill="#bf77f6" font-size="21.333333333333332" stroke="none" text-anchor="middle" x="212.50" y="88.05">C</text>
<text dominant-baseline="central" fill="#bf77f6" font-size="21.333333333333332" stroke="none" text-anchor="middle" x="287.50" y="114.81">D</text>
<text dominant-baseline="central" fill="#bf77f6" font-size="21.333333333333332" stroke="none" text-anchor="middle" x="362.50" y="87.41">E</text>
<text dominant-baseline="central" fill="#bf77f6" font-size="21.333333333333332" stroke="none" text-anchor="middle" x="437.50" y="86.16">F</text>
</g>
<g stroke="black">
<line x1="62.50" x2="62.50" y1="475.00" y2="485.00" />
<line x1="137.50" x2="137.50" y1="475.00" y2="485.00" />
<line x1="212.50" x2="212.50" y1="475.00" y2="485.00" />
<line x1="287.50" x2="287.50" y1="475.00" y2="485.00" />
<line x1="362.50" x2="362.50" y1="475.00" y2="485.00" />
<line x1="437.50" x2="437.50" y1="475.00" y2="485.00" />
<g fill="black" font-family="Arial, sans-serif" font-size="18.0" stroke="none" text-anchor="start" transform="translate(9.0 0.0)">
<text x="62.50" y="495.57">0</text>
<text x="137.50" y="495.57">1</text>
<text x="212.50" y="495.57">2</text>
<text x="287.50" y="495.57">3</text>
<text x="362.50" y="495.57">4</text>
<text x="437.50" y="495.57">5</text>
</g>
<line x1="25.00" x2="475.00" y1="475.00" y2="475.00" />
</g>
<g stroke="black">
<line x1="25.00" x2="13.00" y1="395.03" y2="395.03" />
<line x1="25.00" x2="13.00" y1="280.11" y2="280.11" />
<line x1="25.00" x2="13.00" y1="165.19" y2="165.19" />
<line x1="25.00" x2="13.00" y1="50.27" y2="50.27" />
<g fill="black" font-family="Arial, sans-serif" font-size="18.0" stroke="none" text-anchor="end">
<text x="16.00" y="386.03">-7</text>
<text x="16.00" y="271.11">-6</text>
<text x="16.00" y="156.19">-5</text>
<text x="16.00" y="41.27">-4</text>
</g>
<line x1="25.00" x2="25.00" y1="475.00" y2="25.00" />
</g>
</g>
</svg>