<?xml version="1.0"?>
<svg height="1000" version="1.1" viewBox="0 0 1500 1000" width="1500" xmlns:xlink="http://www.w3.org/1999/xlink" xmlns="http://www.w3.org/2000/svg">
<g>
<g transform="matrix(1.00,0.00,0.00,1.00,0.00,0.00)">
<g>
<g transform="matrix(1.00,0.00,0.00,1.00,0.00,0.00)">
<svg height="1000" version="1.1" viewBox="0 0 500 1000" width="500" xmlns:xlink="http://www.w3.org/1999/xlink" xmlns="http://www.w3.org/2000/svg">
<g>
<g transform="matrix(1.00,0.00,0.00,1.00,0.00,0.00)">
<g>
<g transform="matrix(1.00,0.00,0.00,1.00,0.00,0.00)">
<svg height="500" version="1.1" viewBox="0 0 500 500" width="500" xmlns:xlink="http://www.w3.org/1999/xlink" xmlns="http://www.w3.org/2000/svg">
<g>
<g stroke-dasharray="3.6 7.2" stroke-width="0.72" stroke="#caa">
<line x1="62.50" x2="62.50" y1="475.00" y2="25.00" />
<line x1="137.50" x2="137.50" y1="475.00" y2="25.00" />
<line x1="212.50" x2="212.50" y1="475.00" y2="25.00" />
<line x1="287.50" x2="287.50" y1="475.00" y2="25.00" />
<line x1="362.50" x2="362.50" y1="475.00" y2="25.00" />
<line x1="437.50" x2="437.50" y1="475.00" y2="25.00" />
<line x1="25.00" x2="475.00" y1="395.03" y2="395.03" />
<line x1="25.00" x2="475.00" y1="280.11" y2="280.11" />
<line x1="25.00" x2="475.00" y1="165.19" y2="165.19" />
<line x1="25.00" x2="475.00" y1="50.27" y2="50.27" />
</g>
<g>
<text dominant-baseline="hanging" dx="-36.0" dy="18.0" fill="#0004" font-family="Arial, sans-serif" font-size="36" stroke="none" text-anchor="end" x="475.00" y="62.50">LL</text>
</g>
<g>
<text dominant-baseline="text-bottom" dy="0" fill="black" font-family="Arial, sans-serif" font-size="18.0" font-style="italic" stroke="none" text-anchor="middle" x="250.00" y="25.00">Relative Positions</text>
</g>
<g>
<text dominant-baseline="hanging" dx="18.0" dy="18.0" fill="black" font-family="Arial, sans-serif" font-size="18.0" font-style="italic" stroke="none" text-anchor="beginning" text-orientation="sideways" x="25.00" y="25.00">d-Oxygen</text>
</g>
<polyline fill="none" points="62.50,409.81 137.50,135.17 212.50,118.33 287.50,173.30 362.50,156.61" stroke-dasharray="3.2 3.2" stroke-width="3.2" stroke="#aaa" />
<polyline fill="none" points="62.50,187.42 137.50,167.09 212.50,168.59 287.50,305.11 362.50,175.11 437.50,193.23" stroke-dasharray="3.2 3.2" stroke-width="3.2" stroke="#aaa" />
<polyline fill="none" points="62.50,87.22 137.50,66.89 212.50,88.05 287.50,114.81 362.50,87.41 437.50,86.16" stroke-dasharray="3.2 3.2" stroke-width="3.2" stroke="#aaa" />
<g>
<text dominant-baseline="central" fill="#15b01a" font-size="21.333333333333332" stroke="none" text-anchor="middle" x="62.50" y="409.81">A</text>
<text dominant-baseline="central" fill="#15b01a" font-size="21.333333333333332" stroke="none" text-anchor="middle" x="137.50" y="135.17">B</text>
<text dominant-baseline="central" fill="#15b01a" font-size="21.333333333333332" stroke="none" text-anchor="middle" x="212.50" y="118.33">C</text>
<text dominant-baseline="central" fill="#15b01a" font-size="21.333333333333332" stroke="none" text-anchor="middle" x="287.50" y="173.30">D</text>
<text dominant-baseline="central" fill="#15b01a" font-size="21.333333333333332" stroke="none" text-anchor="middle" x="362.50" y="156.61">E</text>
</g>
<g>
<text dominant-baseline="central" fill="#f97306" font-size="21.333333333333332" stroke="none" text-anchor="middle" x="62.50" y="187.42">A</text>
<text dominant-baseline="central" fill="#f97306" font-size="21.333333333333332" stroke="none" text-anchor="middle" x="137.50" y="167.09">B</text>
<text dominant-baseline="central" fill="#f97306" font-size="21.333333333333332" stroke="none" text-anchor="middle" x="212.50" y="168.59">C</text>
<text dominant-baseline="central" fill="#f97306" font-size="21.333333333333332" stroke="none" text-anchor="middle" x="287.50" y="305.11">D</text>
<text dominant-baseline="central" fill="#f97306" font-size="21.333333333333332" stroke="none" text-anchor="middle" x="362.50" y="175.11">E</text>
<text dominant-baseline="central" fill="#f97306" font-size="21.333333333333332" stroke="none" text-anchor="middle" x="437.50" y="193.23">F</text>
</g>
<g>
<text dominant-baseline="central" fill="#bf77f6" font-size="21.333333333333332" stroke="none" text-anchor="middle" x="62.50" y="87.22">A</text>
<text dominant-baseline="central" fill="#bf77f6" font-size="21.333333333333332" stroke="none" text-anchor="middle" x="137.50" y="66.89">B</text>
<text dominant-baseline="central" fill="#bf77f6" font-size="21.333333333333332" stroke="none" text-anchor="middle" x="212.50" y="88.05">C</text>
<text dominant-baseline="central" fill="#bf77f6" font-size="21.333333333333332" stroke="none" text-anchor="middle" x="287.50" y="114.81">D</text>
<text dominant-baseline="central" fill="#bf77f6" font-size="21.333333333333332" stroke="none" text-anchor="middle" x="362.50" y="87.41">E</text>
<text dominant-baseline="central" fill="#bf77f6" font-size="21.333333333333332" stroke="none" text-anchor="middle" x="437.50" y="86.16">F</text>
</g>
<g stroke="black">
<line x1="62.50" x2="62.50" y1="475.00" y2="485.00" />
<line x1="137.50" x2="137.50" y1="475.00" y2="485.00" />
<line x1="212.50" x2="212.50" y1="475.00" y2="485.00" />
<line x1="287.50" x2="287.50" y1="475.00" y2="485.00" />
<line x1="362.50" x2="362.50" y1="475.00" y2="485.00" />
<line x1="437.50" x2="437.50" y1="475.00" y2="485.00" />
<g fill="black" font-family="Arial, sans-serif" font-size="18.0" stroke="none" text-anchor="start" transform="translate(9.0 0.0)">
<text x="62.50" y="495.57">0</text>
<text x="137.50" y="495.57">1</text>
<text x="212.50" y="495.57">2</text>
<text x="287.50" y="495.57">3</text>
<text x="362.50" y="495.57">4</text>
<text x="437.50" y="495.57">5</text>
</g>
<line x1="25.00" x2="475.00" y1="475.00" y2="475.00" />
</g>
<g stroke="black">
<line x1="25.00" x2="13.00" y1="395.03" y2="395.03" />
<line x1="25.00" x2="13.00" y1="280.11" y2="280.11" />
<line x1="25.00" x2="13.00" y1="165.19" y2="165.19" />
<line x1="25.00" x2="13.00" y1="50.27" y2="50.27" />
<g fill="black" font-family="Arial, sans-serif" font-size="18.0" stroke="none" text-anchor="end">
<text x="16.00" y="386.03">-7</text>
<text x="16.00" y="271.11">-6</text>
<text x="16.00" y="156.19">-5</text>
<text x="16.00" y="41.27">-4</text>
</g>
<line x1="25.00" x2="25.00" y1="475.00" y2="25.00" />
</g>
</g>
</svg>
</g>
</g>
</g>
<g transform="matrix(1.00,0.00,0.00,1.00,0.00,500.00)">
<g>
<g transform="matrix(1.00,0.00,0.00,1.00,0.00,0.00)">
<svg height="500" version="1.1" viewBox="0 0 500 500" width="500" xmlns:xlink="http://www.w3.org/1999/xlink" xmlns="http://www.w3.org/2000/svg">
<g>
<g stroke-dasharray="3.6 7.2" stroke-width="0.72" stroke="#caa">
<line x1="62.50" x2="62.50" y1="475.00" y2="25.00" />
<line x1="137.50" x2="137.50" y1="475.00" y2="25.00" />
<line x1="212.50" x2="212.50" y1="475.00" y2="25.00" />
<line x1="287.50" x2="287.50" y1="475.00" y2="25.00" />
<line x1="362.50" x2="362.50" y1="475.00" y2="25.00" />
<line x1="437.50" x2="437.50" y1="475.00" y2="25.00" />
<line x1="25.00" x2="475.00" y1="458.73" y2="458.73" />
<line x1="25.00" x2="475.00" y1="398.52" y2="398.52" />
<line x1="25.00" x2="475.00" y1="338.30" y2="338.30" />
<line x1="25.00" x2="475.00" y1="278.09" y2="278.09" />
<line x1="25.00" x2="475.00" y1="217.87" y2="217.87" />
<line x1="25.00" x2="475.00" y1="157.66" y2="157.66" />
<line x1="25.00" x2="475.00" y1="97.45" y2="97.45" />
<line x1="25.00" x2="475.00" y1="37.23" y2="37.23" />
</g>
<g>
<text dominant-baseline="hanging" dx="-36.0" dy="18.0" fill="#0004" font-family="Arial, sans-serif" font-size="36" stroke="none" text-anchor="end" x="475.00" y="62.50">LL</text>
</g>
<g>
<text dominant-baseline="text-bottom" dy="0" fill="black" font-family="Arial, sans-serif" font-size="18.0" font-style="italic" stroke="none" text-anchor="middle" x="250.00" y="25.00">Relative Positions</text>
</g>
<g>
<text dominant-baseline="hanging" dx="18.0" dy="18.0" fill="black" font-family="Arial, sans-serif" font-size="18.0" font-style="italic" stroke="none" text-anchor="beginning" text-orientation="sideways" x="25.00" y="25.00">d-Carbon</text>
</g>
<polyline fill="none" points="62.50,309.30 137.50,338.01 212.50,349.97 287.50,309.83 362.50,339.33" stroke-dasharray="3.2 3.2" stroke-width="3.2" stroke="#aaa" />
<polyline fill="none" points="62.50,243.41 137.50,256.43 212.50,269.42 287.50,251.85 362.50,258.22 437.50,268.98" stroke-dasharray="3.2 3.2" stroke-width="3.2" stroke="#aaa" />
<polyline fill="none" points="62.50,215.29 137.50,231.92 212.50,246.86 287.50,260.65 362.50,250.65 437.50,236.09" stroke-dasharray="3.2 3.2" stroke-width="3.2" stroke="#aaa" />
<g>
<text dominant-baseline="central" fill="#15b01a" font-size="21.333333333333332" stroke="none" text-anchor="middle" x="62.50" y="309.30">A</text>
<text dominant-baseline="central" fill="#15b01a" font-size="21.333333333333332" stroke="none" text-anchor="middle" x="137.50" y="338.01">B</text>
<text dominant-baseline="central" fill="#15b01a" font-size="21.333333333333332" stroke="none" text-anchor="middle" x="212.50" y="349.97">C</text>
<text dominant-baseline="central" fill="#15b01a" font-size="21.333333333333332" stroke="none" text-anchor="middle" x="287.50" y="309.83">D</text>
<text dominant-baseline="central" fill="#15b01a" font-size="21.333333333333332" stroke="none" text-anchor="middle" x="362.50" y="339.33">E</text>
</g>
<g>
<text dominant-baseline="central" fill="#f97306" font-size="21.333333333333332" stroke="none" text-anchor="middle" x="62.50" y="243.41">A</text>
<text dominant-baseline="central" fill="#f97306" font-size="21.333333333333332" stroke="none" text-anchor="middle" x="137.50" y="256.43">B</text>
<text dominant-baseline="central" fill="#f97306" font-size="21.333333333333332" stroke="none" text-anchor="middle" x="212.50" y="269.42">C</text>
<text dominant-baseline="central" fill="#f97306" font-size="21.333333333333332" stroke="none" text-anchor="middle" x="287.50" y="251.85">D</text>
<text dominant-baseline="central" fill="#f97306" font-size="21.333333333333332" stroke="none" text-anchor="middle" x="362.50" y="258.22">E</text>
<text dominant-baseline="central" fill="#f97306" font-size="21.333333333333332" stroke="none" text-anchor="middle" x="437.50" y="268.98">F</text>
</g>
<g>
<text dominant-baseline="central" fill="#bf77f6" font-size="21.333333333333332" stroke="none" text-anchor="middle" x="62.50" y="215.29">A</text>
<text dominant-baseline="central" fill="#bf77f6" font-size="21.333333333333332" stroke="none" text-anchor="middle" x="137.50" y="231.92">B</text>
<text dominant-baseline="central" fill="#bf77f6" font-size="21.333333333333332" stroke="none" text-anchor="middle" x="212.50" y="246.86">C</text>
<text dominant-baseline="central" fill="#bf77f6" font-size="21.333333333333332" stroke="none" text-anchor="middle" x="287.50" y="260.65">D</text>
<text dominant-baseline="central" fill="#bf77f6" font-size="21.333333333333332" stroke="none" text-anchor="middle" x="362.50" y="250.65">E</text>
<text dominant-baseline="central" fill="#bf77f6" font-size="21.333333333333332" stroke="none" text-anchor="middle" x="437.50" y="236.09">F</text>
</g>
<g stroke="black">
<line x1="62.50" x2="62.50" y1="475.00" y2="485.00" />
<line x1="137.50" x2="137.50" y1="475.00" y2="485.00" />
<line x1="212.50" x2="212.50" y1="475.00" y2="485.00" />
<line x1="287.50" x2="287.50" y1="475.00" y2="485.00" />
<line x1="362.50" x2="362.50" y1="475.00" y2="485.00" />
<line x1="437.50" x2="437.50" y1="475.00" y2="485.00" />
<g fill="black" font-family="Arial, sans-serif" font-size="18.0" stroke="none" text-anchor="start" transform="translate(9.0 0.0)">
<text x="62.50" y="495.57">0</text>
<text x="137.50" y="495.57">1</text>
<text x="212.50" y="495.57">2</text>
<text x="287.50" y="495.57">3</text>
<text x="362.50" y="495.57">4</text>
<text x="437.50" y="495.57">5</text>
</g>
<line x1="25.00" x2="475.00" y1="475.00" y2="475.00" />
</g>
<g stroke="black">
<line x1="25.00" x2="13.00" y1="458.73" y2="458.73" />
<line x1="25.00" x2="13.00" y1="398.52" y2="398.52" />
<line x1="25.00" x2="13.00" y1="338.30" y2="338.30" />
<line x1="25.00" x2="13.00" y1="278.09" y2="278.09" />
<line x1="25.00" x2="13.00" y1="217.87" y2="217.87" />
<line x1="25.00" x2="13.00" y1="157.66" y2="157.66" />
<line x1="25.00" x2="13.00" y1="97.45" y2="97.45" />
<line x1="25.00" x2="13.00" y1="37.23" y2="37.23" />
<g fill="black" font-family="Arial, sans-serif" font-size="18.0" stroke="none" text-anchor="end">
<text x="16.00" y="449.73">-12</text>
<text x="16.00" y="389.52">-11</text>
<text x="16.00" y="329.30">-10</text>
<text x="16.00" y="269.09">-9</text>
<text x="16.00" y="208.87">-8</text>
<text x="16.00" y="148.66">-7</text>
<text x="16.00" y="88.45">-6</text>
<text x="16.00" y="28.23">-5</text>
</g>
<line x1="25.00" x2="25.00" y1="475.00" y2="25.00" />
</g>
</g>
</svg>
</g>
</g>
</g>
</g>
</svg>
</g>
<g transform="matrix(1.00,0.00,0.00,1.00,500.00,0.00)">
<svg height="1000" version="1.1" viewBox="0 0 1000 1000" width="1000" xmlns:xlink="http://www.w3.org/1999/xlink" xmlns="http://www.w3.org/2000/svg">
<g>
<g stroke-dasharray="3.6 7.2" stroke-width="0.72" stroke="#caa">
<line x1="151.92" x2="151.92" y1="950.00" y2="50.00" />
<line x1="427.73" x2="427.73" y1="950.00" y2="50.00" />
<line x1="703.55" x2="703.55" y1="950.00" y2="50.00" />
<line x1="50.00" x2="950.00" y1="917.46" y2="917.46" />
<line x1="50.00" x2="950.00" y1="797.03" y2="797.03" />
<line x1="50.00" x2="950.00" y1="676.60" y2="676.60" />
<line x1="50.00" x2="950.00" y1="556.18" y2="556.18" />
<line x1="50.00" x2="950.00" y1="435.75" y2="435.75" />
<line x1="50.00" x2="950.00" y1="315.32" y2="315.32" />
<line x1="50.00" x2="950.00" y1="194.89" y2="194.89" />
<line x1="50.00" x2="950.00" y1="74.47" y2="74.47" />
</g>
<g>
<text dominant-baseline="hanging" dx="-36.0" dy="18.0" fill="#0004" font-family="Arial, sans-serif" font-size="36" stroke="none" text-anchor="end" x="950.00" y="125.00">LL</text>
</g>
<g>
<text dominant-baseline="text-bottom" dy="0" fill="black" font-family="Arial, sans-serif" font-size="18.0" font-style="italic" stroke="none" text-anchor="middle" x="500.00" y="50.00">d-Oxygen</text>
</g>
<g>
<text dominant-baseline="hanging" dx="18.0" dy="18.0" fill="black" font-family="Arial, sans-serif" font-size="18.0" font-style="italic" stroke="none" text-anchor="beginning" text-orientation="sideways" x="50.00" y="50.00">d-Carbon</text>
</g>
<g>
</g>
<g>
</g>
<g>
</g>
<g>
<circle cx="116.45" cy="618.60" fill="black" r="2.1333333333333333" />
<circle cx="684.09" cy="619.65" fill="black" r="2.1333333333333333" />
<circle cx="724.14" cy="678.67" fill="black" r="2.1333333333333333" />
<circle cx="775.60" cy="676.01" fill="black" r="2.1333333333333333" />
<circle cx="816.01" cy="699.95" fill="black" r="2.1333333333333333" />
</g>
<polyline fill="none" points="107.86,618.60 125.03,618.60" stroke-width="1.28" stroke="black" />
<polyline fill="none" points="116.45,620.87 116.45,614.85" stroke-width="1.28" stroke="black" />
<g>
<circle cx="116.45" cy="618.60" fill="black" r="2.1333333333333333" />
<circle cx="684.09" cy="619.65" fill="black" r="2.1333333333333333" />
<circle cx="724.14" cy="678.67" fill="black" r="2.1333333333333333" />
<circle cx="775.60" cy="676.01" fill="black" r="2.1333333333333333" />
<circle cx="816.01" cy="699.95" fill="black" r="2.1333333333333333" />
</g>
<polyline fill="none" points="769.08,676.01 782.12,676.01" stroke-width="1.28" stroke="black" />
<polyline fill="none" points="775.60,677.46 775.60,673.16" stroke-width="1.28" stroke="black" />
<g>
<circle cx="116.45" cy="618.60" fill="black" r="2.1333333333333333" />
<circle cx="684.09" cy="619.65" fill="black" r="2.1333333333333333" />
<circle cx="724.14" cy="678.67" fill="black" r="2.1333333333333333" />
<circle cx="775.60" cy="676.01" fill="black" r="2.1333333333333333" />
<circle cx="816.01" cy="699.95" fill="black" r="2.1333333333333333" />
</g>
<polyline fill="none" points="810.87,699.95 821.15,699.95" stroke-width="1.28" stroke="black" />
<polyline fill="none" points="816.01,701.23 816.01,697.70" stroke-width="1.28" stroke="black" />
<g>
<circle cx="116.45" cy="618.60" fill="black" r="2.1333333333333333" />
<circle cx="684.09" cy="619.65" fill="black" r="2.1333333333333333" />
<circle cx="724.14" cy="678.67" fill="black" r="2.1333333333333333" />
<circle cx="775.60" cy="676.01" fill="black" r="2.1333333333333333" />
<circle cx="816.01" cy="699.95" fill="black" r="2.1333333333333333" />
</g>
<polyline fill="none" points="677.88,619.65 690.29,619.65" stroke-width="1.28" stroke="black" />
<polyline fill="none" points="684.09,621.92 684.09,616.95" stroke-width="1.28" stroke="black" />
<g>
<circle cx="116.45" cy="618.60" fill="black" r="2.1333333333333333" />
<circle cx="684.09" cy="619.65" fill="black" r="2.1333333333333333" />
<circle cx="724.14" cy="678.67" fill="black" r="2.1333333333333333" />
<circle cx="775.60" cy="676.01" fill="black" r="2.1333333333333333" />
<circle cx="816.01" cy="699.95" fill="black" r="2.1333333333333333" />
</g>
<polyline fill="none" points="718.66,678.67 729.63,678.67" stroke-width="1.28" stroke="black" />
<polyline fill="none" points="724.14,680.25 724.14,676.27" stroke-width="1.28" stroke="black" />
<g>
<circle cx="367.74" cy="503.70" fill="black" r="2.1333333333333333" />
<circle cx="636.26" cy="537.95" fill="black" r="2.1333333333333333" />
<circle cx="650.20" cy="486.83" fill="black" r="2.1333333333333333" />
<circle cx="679.73" cy="516.44" fill="black" r="2.1333333333333333" />
<circle cx="695.38" cy="538.84" fill="black" r="2.1333333333333333" />
<circle cx="698.99" cy="512.85" fill="black" r="2.1333333333333333" />
</g>
<polyline fill="none" points="647.19,486.83 653.21,486.83" stroke-width="1.28" stroke="black" />
<polyline fill="none" points="650.20,487.67 650.20,485.51" stroke-width="1.28" stroke="black" />
<g>
<circle cx="367.74" cy="503.70" fill="black" r="2.1333333333333333" />
<circle cx="636.26" cy="537.95" fill="black" r="2.1333333333333333" />
<circle cx="650.20" cy="486.83" fill="black" r="2.1333333333333333" />
<circle cx="679.73" cy="516.44" fill="black" r="2.1333333333333333" />
<circle cx="695.38" cy="538.84" fill="black" r="2.1333333333333333" />
<circle cx="698.99" cy="512.85" fill="black" r="2.1333333333333333" />
</g>
<polyline fill="none" points="691.12,512.85 706.87,512.85" stroke-width="1.28" stroke="black" />
<polyline fill="none" points="698.99,515.10 698.99,509.41" stroke-width="1.28" stroke="black" />
<g>
<circle cx="367.74" cy="503.70" fill="black" r="2.1333333333333333" />
<circle cx="636.26" cy="537.95" fill="black" r="2.1333333333333333" />
<circle cx="650.20" cy="486.83" fill="black" r="2.1333333333333333" />
<circle cx="679.73" cy="516.44" fill="black" r="2.1333333333333333" />
<circle cx="695.38" cy="538.84" fill="black" r="2.1333333333333333" />
<circle cx="698.99" cy="512.85" fill="black" r="2.1333333333333333" />
</g>
<polyline fill="none" points="685.99,538.84 704.77,538.84" stroke-width="1.28" stroke="black" />
<polyline fill="none" points="695.38,540.93 695.38,534.74" stroke-width="1.28" stroke="black" />
<g>
<circle cx="367.74" cy="503.70" fill="black" r="2.1333333333333333" />
<circle cx="636.26" cy="537.95" fill="black" r="2.1333333333333333" />
<circle cx="650.20" cy="486.83" fill="black" r="2.1333333333333333" />
<circle cx="679.73" cy="516.44" fill="black" r="2.1333333333333333" />
<circle cx="695.38" cy="538.84" fill="black" r="2.1333333333333333" />
<circle cx="698.99" cy="512.85" fill="black" r="2.1333333333333333" />
</g>
<polyline fill="none" points="360.10,503.70 375.38,503.70" stroke-width="1.28" stroke="black" />
<polyline fill="none" points="367.74,504.84 367.74,500.36" stroke-width="1.28" stroke="black" />
<g>
<circle cx="367.74" cy="503.70" fill="black" r="2.1333333333333333" />
<circle cx="636.26" cy="537.95" fill="black" r="2.1333333333333333" />
<circle cx="650.20" cy="486.83" fill="black" r="2.1333333333333333" />
<circle cx="679.73" cy="516.44" fill="black" r="2.1333333333333333" />
<circle cx="695.38" cy="538.84" fill="black" r="2.1333333333333333" />
<circle cx="698.99" cy="512.85" fill="black" r="2.1333333333333333" />
</g>
<polyline fill="none" points="674.33,516.44 685.13,516.44" stroke-width="1.28" stroke="black" />
<polyline fill="none" points="679.73,518.06 679.73,514.09" stroke-width="1.28" stroke="black" />
<g>
<circle cx="367.74" cy="503.70" fill="black" r="2.1333333333333333" />
<circle cx="636.26" cy="537.95" fill="black" r="2.1333333333333333" />
<circle cx="650.20" cy="486.83" fill="black" r="2.1333333333333333" />
<circle cx="679.73" cy="516.44" fill="black" r="2.1333333333333333" />
<circle cx="695.38" cy="538.84" fill="black" r="2.1333333333333333" />
<circle cx="698.99" cy="512.85" fill="black" r="2.1333333333333333" />
</g>
<polyline fill="none" points="629.01,537.95 643.50,537.95" stroke-width="1.28" stroke="black" />
<polyline fill="none" points="636.26,539.68 636.26,534.79" stroke-width="1.28" stroke="black" />
<g>
<circle cx="824.46" cy="521.30" fill="black" r="2.1333333333333333" />
<circle cx="888.67" cy="493.73" fill="black" r="2.1333333333333333" />
<circle cx="890.22" cy="501.30" fill="black" r="2.1333333333333333" />
<circle cx="890.66" cy="430.57" fill="black" r="2.1333333333333333" />
<circle cx="893.21" cy="472.19" fill="black" r="2.1333333333333333" />
<circle cx="939.47" cy="463.84" fill="black" r="2.1333333333333333" />
</g>
<polyline fill="none" points="889.41,472.19 897.02,472.19" stroke-width="1.28" stroke="black" />
<polyline fill="none" points="893.21,473.07 893.21,470.53" stroke-width="1.28" stroke="black" />
<g>
<circle cx="824.46" cy="521.30" fill="black" r="2.1333333333333333" />
<circle cx="888.67" cy="493.73" fill="black" r="2.1333333333333333" />
<circle cx="890.22" cy="501.30" fill="black" r="2.1333333333333333" />
<circle cx="890.66" cy="430.57" fill="black" r="2.1333333333333333" />
<circle cx="893.21" cy="472.19" fill="black" r="2.1333333333333333" />
<circle cx="939.47" cy="463.84" fill="black" r="2.1333333333333333" />
</g>
<polyline fill="none" points="885.18,430.57 896.15,430.57" stroke-width="1.28" stroke="black" />
<polyline fill="none" points="890.66,431.72 890.66,428.18" stroke-width="1.28" stroke="black" />
<g>
<circle cx="824.46" cy="521.30" fill="black" r="2.1333333333333333" />
<circle cx="888.67" cy="493.73" fill="black" r="2.1333333333333333" />
<circle cx="890.22" cy="501.30" fill="black" r="2.1333333333333333" />
<circle cx="890.66" cy="430.57" fill="black" r="2.1333333333333333" />
<circle cx="893.21" cy="472.19" fill="black" r="2.1333333333333333" />
<circle cx="939.47" cy="463.84" fill="black" r="2.1333333333333333" />
</g>
<polyline fill="none" points="933.64,463.84 945.30,463.84" stroke-width="1.28" stroke="black" />
<polyline fill="none" points="939.47,465.42 939.47,461.30" stroke-width="1.28" stroke="black" />
<g>
<circle cx="824.46" cy="521.30" fill="black" r="2.1333333333333333" />
<circle cx="888.67" cy="493.73" fill="black" r="2.1333333333333333" />
<circle cx="890.22" cy="501.30" fill="black" r="2.1333333333333333" />
<circle cx="890.66" cy="430.57" fill="black" r="2.1333333333333333" />
<circle cx="893.21" cy="472.19" fill="black" r="2.1333333333333333" />
<circle cx="939.47" cy="463.84" fill="black" r="2.1333333333333333" />
</g>
<polyline fill="none" points="882.11,493.73 895.23,493.73" stroke-width="1.28" stroke="black" />
<polyline fill="none" points="888.67,495.37 888.67,490.86" stroke-width="1.28" stroke="black" />
<g>
<circle cx="824.46" cy="521.30" fill="black" r="2.1333333333333333" />
<circle cx="888.67" cy="493.73" fill="black" r="2.1333333333333333" />
<circle cx="890.22" cy="501.30" fill="black" r="2.1333333333333333" />
<circle cx="890.66" cy="430.57" fill="black" r="2.1333333333333333" />
<circle cx="893.21" cy="472.19" fill="black" r="2.1333333333333333" />
<circle cx="939.47" cy="463.84" fill="black" r="2.1333333333333333" />
</g>
<polyline fill="none" points="817.67,521.30 831.24,521.30" stroke-width="1.28" stroke="black" />
<polyline fill="none" points="824.46,522.99 824.46,518.33" stroke-width="1.28" stroke="black" />
<g>
<circle cx="824.46" cy="521.30" fill="black" r="2.1333333333333333" />
<circle cx="888.67" cy="493.73" fill="black" r="2.1333333333333333" />
<circle cx="890.22" cy="501.30" fill="black" r="2.1333333333333333" />
<circle cx="890.66" cy="430.57" fill="black" r="2.1333333333333333" />
<circle cx="893.21" cy="472.19" fill="black" r="2.1333333333333333" />
<circle cx="939.47" cy="463.84" fill="black" r="2.1333333333333333" />
</g>
<polyline fill="none" points="885.41,501.30 895.03,501.30" stroke-width="1.28" stroke="black" />
<polyline fill="none" points="890.22,502.93 890.22,499.20" stroke-width="1.28" stroke="black" />
<g>
<text dominant-baseline="central" dy="12" fill="#15b01a" font-size="21.333333333333332" stroke="none" text-anchor="middle" x="116.45" y="618.60">A</text>
<text dominant-baseline="central" dy="12" fill="#15b01a" font-size="21.333333333333332" stroke="none" text-anchor="middle" x="684.09" y="619.65">D</text>
<text dominant-baseline="central" dy="12" fill="#15b01a" font-size="21.333333333333332" stroke="none" text-anchor="middle" x="724.14" y="678.67">E</text>
<text dominant-baseline="central" dy="12" fill="#15b01a" font-size="21.333333333333332" stroke="none" text-anchor="middle" x="775.60" y="676.01">B</text>
<text dominant-baseline="central" dy="12" fill="#15b01a" font-size="21.333333333333332" stroke="none" text-anchor="middle" x="816.01" y="699.95">C</text>
</g>
<g>
<text dominant-baseline="central" dy="12" fill="#f97306" font-size="21.333333333333332" stroke="none" text-anchor="middle" x="367.74" y="503.70">D</text>
<text dominant-baseline="central" dy="12" fill="#f97306" font-size="21.333333333333332" stroke="none" text-anchor="middle" x="636.26" y="537.95">F</text>
<text dominant-baseline="central" dy="12" fill="#f97306" font-size="21.333333333333332" stroke="none" text-anchor="middle" x="650.20" y="486.83">A</text>
<text dominant-baseline="central" dy="12" fill="#f97306" font-size="21.333333333333332" stroke="none" text-anchor="middle" x="679.73" y="516.44">E</text>
<text dominant-baseline="central" dy="12" fill="#f97306" font-size="21.333333333333332" stroke="none" text-anchor="middle" x="695.38" y="538.84">C</text>
<text dominant-baseline="central" dy="12" fill="#f97306" font-size="21.333333333333332" stroke="none" text-anchor="middle" x="698.99" y="512.85">B</text>
</g>
<g>
<text dominant-baseline="central" dy="12" fill="#bf77f6" font-size="21.333333333333332" stroke="none" text-anchor="middle" x="824.46" y="521.30">D</text>
<text dominant-baseline="central" dy="12" fill="#bf77f6" font-size="21.333333333333332" stroke="none" text-anchor="middle" x="888.67" y="493.73">C</text>
<text dominant-baseline="central" dy="12" fill="#bf77f6" font-size="21.333333333333332" stroke="none" text-anchor="middle" x="890.22" y="501.30">E</text>
<text dominant-baseline="central" dy="12" fill="#bf77f6" font-size="21.333333333333332" stroke="none" text-anchor="middle" x="890.66" y="430.57">A</text>
<text dominant-baseline="central" dy="12" fill="#bf77f6" font-size="21.333333333333332" stroke="none" text-anchor="middle" x="893.21" y="472.19">F</text>
<text dominant-baseline="central" dy="12" fill="#bf77f6" font-size="21.333333333333332" stroke="none" text-anchor="middle" x="939.47" y="463.84">B</text>
</g>
<g stroke="black">
<line x1="151.92" x2="151.92" y1="950.00" y2="960.00" />
<line x1="427.73" x2="427.73" y1="950.00" y2="960.00" />
<line x1="703.55" x2="703.55" y1="950.00" y2="960.00" />
<g fill="black" font-family="Arial, sans-serif" font-size="18.0" stroke="none" text-anchor="start" transform="translate(9.0 0.0)">
<text x="151.92" y="970.57">-7</text>
<text x="427.73" y="970.57">-6</text>
<text x="703.55" y="970.57">-5</text>
</g>
<line x1="50.00" x2="950.00" y1="950.00" y2="950.00" />
</g>
<g stroke="black">
<line x1="50.00" x2="38.00" y1="917.46" y2="917.46" />
<line x1="50.00" x2="38.00" y1="797.03" y2="797.03" />
<line x1="50.00" x2="38.00" y1="676.60" y2="676.60" />
<line x1="50.00" x2="38.00" y1="556.18" y2="556.18" />
<line x1="50.00" x2="38.00" y1="435.75" y2="435.75" />
<line x1="50.00" x2="38.00" y1="315.32" y2="315.32" />
<line x1="50.00" x2="38.00" y1="194.89" y2="194.89" />
<line x1="50.00" x2="38.00" y1="74.47" y2="74.47" />
<g fill="black" font-family="Arial, sans-serif" font-size="18.0" stroke="none" text-anchor="end">
<text x="41.00" y="908.46">-12</text>
<text x="41.00" y="788.03">-11</text>
<text x="41.00" y="667.60">-10</text>
<text x="41.00" y="547.18">-9</text>
<text x="41.00" y="426.75">-8</text>
<text x="41.00" y="306.32">-7</text>
<text x="41.00" y="185.89">-6</text>
<text x="41.00" y="65.47">-5</text>
</g>
<line x1="50.00" x2="50.00" y1="950.00" y2="50.00" />
</g>
</g>
</svg>
</g>
</g>
</g>
</g>
</svg>