<?xml version="1.0"?>
<svg version="1.1" viewBox="0 0 500 500" xmlns:xlink="http://www.w3.org/1999/xlink" xmlns="http://www.w3.org/2000/svg">
<g>
<g stroke-dasharray="3.6 7.2" stroke-width="0.72" stroke="#caa">
<line x1="62.50" x2="62.50" y1="475.00" y2="25.00" />
<line x1="137.50" x2="137.50" y1="475.00" y2="25.00" />
<line x1="212.50" x2="212.50" y1="475.00" y2="25.00" />
<line x1="287.50" x2="287.50" y1="475.00" y2="25.00" />
<line x1="362.50" x2="362.50" y1="475.00" y2="25.00" />
<line x1="437.50" x2="437.50" y1="475.00" y2="25.00" />
<line x1="25.00" x2="475.00" y1="395.03" y2="395.03" />
<line x1="25.00" x2="475.00" y1="280.11" y2="280.11" />
<line x1="25.00" x2="475.00" y1="165.19" y2="165.19" />
<line x1="25.00" x2="475.00" y1="50.27" y2="50.27" />
</g>
<g>
<text dominant-baseline="hanging" dx="-36.0" dy="18.0" fill="#0004" font-family="Arial, sans-serif" font-size="36" stroke="none" text-anchor="end" x="475.00" y="62.50">PT</text>
</g>
<g>
<text dominant-baseline="text-bottom" dy="-12.0" fill="black" font-family="Arial, sans-serif" font-size="18.0" font-style="italic" stroke="none" text-anchor="middle" x="250.00" y="25.00">Relative Positions</text>
</g>
<g>
<text dominant-baseline="hanging" dx="18.0" dy="18.0" fill="black" font-family="Arial, sans-serif" font-size="18.0" font-style="italic" stroke="none" text-anchor="beginning" text-orientation="sideways" x="25.00" y="25.00">d-Oxygen</text>
</g>
<polyline fill="none" points="62.50,105.07 137.50,166.41 212.50,265.41 287.50,230.00 362.50,229.92 437.50,175.67" stroke-dasharray="3.2 3.2" stroke-width="3.2" stroke="#aaa" />
<polyline fill="none" points="62.50,188.57 137.50,293.76 212.50,252.31 287.50,161.43 362.50,153.79 437.50,195.46" stroke-dasharray="3.2 3.2" stroke-width="3.2" stroke="#aaa" />
<polyline fill="none" points="62.50,333.27 137.50,333.21 212.50,346.75 287.50,374.12 362.50,374.87 437.50,365.79" stroke-dasharray="3.2 3.2" stroke-width="3.2" stroke="#aaa" />
<polyline fill="none" points="62.50,374.75 137.50,419.95 212.50,437.50 287.50,434.74 362.50,379.46 437.50,359.66" stroke-dasharray="3.2 3.2" stroke-width="3.2" stroke="#aaa" />
<g>
<text dominant-baseline="central" fill="#15b01a" font-size="21.333333333333332" stroke="none" text-anchor="middle" x="62.50" y="105.07">A</text>
<text dominant-baseline="central" fill="#15b01a" font-size="21.333333333333332" stroke="none" text-anchor="middle" x="137.50" y="166.41">B</text>
<text dominant-baseline="central" fill="#15b01a" font-size="21.333333333333332" stroke="none" text-anchor="middle" x="212.50" y="265.41">C</text>
<text dominant-baseline="central" fill="#15b01a" font-size="21.333333333333332" stroke="none" text-anchor="middle" x="287.50" y="230.00">D</text>
<text dominant-baseline="central" fill="#15b01a" font-size="21.333333333333332" stroke="none" text-anchor="middle" x="362.50" y="229.92">E</text>
<text dominant-baseline="central" fill="#15b01a" font-size="21.333333333333332" stroke="none" text-anchor="middle" x="437.50" y="175.67">F</text>
</g>
<g>
<text dominant-baseline="central" fill="#f97306" font-size="21.333333333333332" stroke="none" text-anchor="middle" x="62.50" y="188.57">A</text>
<text dominant-baseline="central" fill="#f97306" font-size="21.333333333333332" stroke="none" text-anchor="middle" x="137.50" y="293.76">B</text>
<text dominant-baseline="central" fill="#f97306" font-size="21.333333333333332" stroke="none" text-anchor="middle" x="212.50" y="252.31">C</text>
<text dominant-baseline="central" fill="#f97306" font-size="21.333333333333332" stroke="none" text-anchor="middle" x="287.50" y="161.43">D</text>
<text dominant-baseline="central" fill="#f97306" font-size="21.333333333333332" stroke="none" text-anchor="middle" x="362.50" y="153.79">E</text>
<text dominant-baseline="central" fill="#f97306" font-size="21.333333333333332" stroke="none" text-anchor="middle" x="437.50" y="195.46">F</text>
</g>
<g>
<text dominant-baseline="central" fill="#bf77f6" font-size="21.333333333333332" stroke="none" text-anchor="middle" x="62.50" y="333.27">A</text>
<text dominant-baseline="central" fill="#bf77f6" font-size="21.333333333333332" stroke="none" text-anchor="middle" x="137.50" y="333.21">B</text>
<text dominant-baseline="central" fill="#bf77f6" font-size="21.333333333333332" stroke="none" text-anchor="middle" x="212.50" y="346.75">C</text>
<text dominant-baseline="central" fill="#bf77f6" font-size="21.333333333333332" stroke="none" text-anchor="middle" x="287.50" y="374.12">D</text>
<text dominant-baseline="central" fill="#bf77f6" font-size="21.333333333333332" stroke="none" text-anchor="middle" x="362.50" y="374.87">E</text>
<text dominant-baseline="central" fill="#bf77f6" font-size="21.333333333333332" stroke="none" text-anchor="middle" x="437.50" y="365.79">F</text>
</g>
<g>
<text dominant-baseline="central" fill="#cb416b" font-size="21.333333333333332" stroke="none" text-anchor="middle" x="62.50" y="374.75">A</text>
<text dominant-baseline="central" fill="#cb416b" font-size="21.333333333333332" stroke="none" text-anchor="middle" x="137.50" y="419.95">B</text>
<text dominant-baseline="central" fill="#cb416b" font-size="21.333333333333332" stroke="none" text-anchor="middle" x="212.50" y="437.50">C</text>
<text dominant-baseline="central" fill="#cb416b" font-size="21.333333333333332" stroke="none" text-anchor="middle" x="287.50" y="434.74">D</text>
<text dominant-baseline="central" fill="#cb416b" font-size="21.333333333333332" stroke="none" text-anchor="middle" x="362.50" y="379.46">E</text>
<text dominant-baseline="central" fill="#cb416b" font-size="21.333333333333332" stroke="none" text-anchor="middle" x="437.50" y="359.66">F</text>
</g>
<g stroke="black">
<line x1="62.50" x2="62.50" y1="475.00" y2="485.00" />
<line x1="137.50" x2="137.50" y1="475.00" y2="485.00" />
<line x1="212.50" x2="212.50" y1="475.00" y2="485.00" />
<line x1="287.50" x2="287.50" y1="475.00" y2="485.00" />
<line x1="362.50" x2="362.50" y1="475.00" y2="485.00" />
<line x1="437.50" x2="437.50" y1="475.00" y2="485.00" />
<g fill="black" font-family="Arial, sans-serif" font-size="18.0" stroke="none" text-anchor="start" transform="translate(9.0 0.0)">
<text x="62.50" y="495.57">0</text>
<text x="137.50" y="495.57">1</text>
<text x="212.50" y="495.57">2</text>
<text x="287.50" y="495.57">3</text>
<text x="362.50" y="495.57">4</text>
<text x="437.50" y="495.57">5</text>
</g>
<line x1="25.00" x2="475.00" y1="475.00" y2="475.00" />
</g>
<g stroke="black">
<line x1="25.00" x2="13.00" y1="395.03" y2="395.03" />
<line x1="25.00" x2="13.00" y1="280.11" y2="280.11" />
<line x1="25.00" x2="13.00" y1="165.19" y2="165.19" />
<line x1="25.00" x2="13.00" y1="50.27" y2="50.27" />
<g fill="black" font-family="Arial, sans-serif" font-size="18.0" stroke="none" text-anchor="end">
<text x="16.00" y="386.03">-7</text>
<text x="16.00" y="271.11">-6</text>
<text x="16.00" y="156.19">-5</text>
<text x="16.00" y="41.27">-4</text>
</g>
<line x1="25.00" x2="25.00" y1="475.00" y2="25.00" />
</g>
</g>
</svg>