<?xml version="1.0"?>
<svg version="1.1" viewBox="0 0 1000 600" xmlns:xlink="http://www.w3.org/1999/xlink" xmlns="http://www.w3.org/2000/svg">
<g>
<g stroke-dasharray="3.6 7.2" stroke-width="0.72" stroke="#caa">
<line x1="151.92" x2="151.92" y1="570.00" y2="30.00" />
<line x1="427.73" x2="427.73" y1="570.00" y2="30.00" />
<line x1="703.55" x2="703.55" y1="570.00" y2="30.00" />
<line x1="50.00" x2="950.00" y1="550.48" y2="550.48" />
<line x1="50.00" x2="950.00" y1="478.22" y2="478.22" />
<line x1="50.00" x2="950.00" y1="405.96" y2="405.96" />
<line x1="50.00" x2="950.00" y1="333.71" y2="333.71" />
<line x1="50.00" x2="950.00" y1="261.45" y2="261.45" />
<line x1="50.00" x2="950.00" y1="189.19" y2="189.19" />
<line x1="50.00" x2="950.00" y1="116.94" y2="116.94" />
<line x1="50.00" x2="950.00" y1="44.68" y2="44.68" />
</g>
<g>
<text dominant-baseline="hanging" dx="-36.0" dy="18.0" fill="#0004" font-family="Arial, sans-serif" font-size="36" stroke="none" text-anchor="end" x="950.00" y="75.00">PT</text>
</g>
<g>
<text dominant-baseline="text-bottom" dy="-12.0" fill="black" font-family="Arial, sans-serif" font-size="18.0" font-style="italic" stroke="none" text-anchor="middle" x="500.00" y="30.00">d-Oxygen</text>
</g>
<g>
<text dominant-baseline="hanging" dx="18.0" dy="18.0" fill="black" font-family="Arial, sans-serif" font-size="18.0" font-style="italic" stroke="none" text-anchor="beginning" text-orientation="sideways" x="50.00" y="30.00">d-Carbon</text>
</g>
<g>
</g>
<g>
</g>
<g>
<circle cx="300.29" cy="155.57" fill="#8004" r="16.0" />
</g>
<g>
</g>
<g>
<text dominant-baseline="central" fill="#15b01a" font-size="21.333333333333332" stroke="none" text-anchor="middle" x="463.01" y="236.52">C</text>
<text dominant-baseline="central" fill="#15b01a" font-size="21.333333333333332" stroke="none" text-anchor="middle" x="547.99" y="254.57">D</text>
<text dominant-baseline="central" fill="#15b01a" font-size="21.333333333333332" stroke="none" text-anchor="middle" x="548.19" y="227.13">E</text>
<text dominant-baseline="central" fill="#15b01a" font-size="21.333333333333332" stroke="none" text-anchor="middle" x="678.40" y="195.17">F</text>
<text dominant-baseline="central" fill="#15b01a" font-size="21.333333333333332" stroke="none" text-anchor="middle" x="700.62" y="221.28">B</text>
<text dominant-baseline="central" fill="#15b01a" font-size="21.333333333333332" stroke="none" text-anchor="middle" x="847.82" y="249.28">A</text>
</g>
<g>
<text dominant-baseline="central" fill="#f97306" font-size="21.333333333333332" stroke="none" text-anchor="middle" x="394.96" y="381.13">B</text>
<text dominant-baseline="central" fill="#f97306" font-size="21.333333333333332" stroke="none" text-anchor="middle" x="494.46" y="410.57">C</text>
<text dominant-baseline="central" fill="#f97306" font-size="21.333333333333332" stroke="none" text-anchor="middle" x="630.90" y="309.92">F</text>
<text dominant-baseline="central" fill="#f97306" font-size="21.333333333333332" stroke="none" text-anchor="middle" x="647.44" y="313.19">A</text>
<text dominant-baseline="central" fill="#f97306" font-size="21.333333333333332" stroke="none" text-anchor="middle" x="712.57" y="356.19">D</text>
<text dominant-baseline="central" fill="#f97306" font-size="21.333333333333332" stroke="none" text-anchor="middle" x="730.89" y="305.71">E</text>
</g>
<g>
<text dominant-baseline="central" fill="#bf77f6" font-size="21.333333333333332" stroke="none" text-anchor="middle" x="200.31" y="190.40">E</text>
<text dominant-baseline="central" fill="#bf77f6" font-size="21.333333333333332" stroke="none" text-anchor="middle" x="202.12" y="209.46">D</text>
<text dominant-baseline="central" fill="#bf77f6" font-size="21.333333333333332" stroke="none" text-anchor="middle" x="222.09" y="175.58">F</text>
<text dominant-baseline="central" fill="#bf77f6" font-size="21.333333333333332" stroke="none" text-anchor="middle" x="267.81" y="177.20">C</text>
<text dominant-baseline="central" fill="#bf77f6" font-size="21.333333333333332" stroke="none" text-anchor="middle" x="300.16" y="75.00">A</text>
<g>
<text dominant-baseline="central" fill="#bf77f6" font-size="21.333333333333332" stroke="none" text-anchor="middle" tooltip="too much sample" x="300.29" y="155.57">B</text>
<title>too much sample</title>
</g>
</g>
<g>
<text dominant-baseline="central" fill="#cb416b" font-size="21.333333333333332" stroke="none" text-anchor="middle" x="50.00" y="195.20">C</text>
<text dominant-baseline="central" fill="#cb416b" font-size="21.333333333333332" stroke="none" text-anchor="middle" x="56.61" y="176.65">D</text>
<text dominant-baseline="central" fill="#cb416b" font-size="21.333333333333332" stroke="none" text-anchor="middle" x="92.13" y="150.95">B</text>
<text dominant-baseline="central" fill="#cb416b" font-size="21.333333333333332" stroke="none" text-anchor="middle" x="189.29" y="171.08">E</text>
<text dominant-baseline="central" fill="#cb416b" font-size="21.333333333333332" stroke="none" text-anchor="middle" x="200.60" y="133.52">A</text>
<text dominant-baseline="central" fill="#cb416b" font-size="21.333333333333332" stroke="none" text-anchor="middle" x="236.82" y="119.97">F</text>
</g>
<g stroke="black">
<line x1="151.92" x2="151.92" y1="570.00" y2="580.00" />
<line x1="427.73" x2="427.73" y1="570.00" y2="580.00" />
<line x1="703.55" x2="703.55" y1="570.00" y2="580.00" />
<g fill="black" font-family="Arial, sans-serif" font-size="18.0" stroke="none" text-anchor="start" transform="translate(9.0 0.0)">
<text x="151.92" y="590.57">-7</text>
<text x="427.73" y="590.57">-6</text>
<text x="703.55" y="590.57">-5</text>
</g>
<line x1="50.00" x2="950.00" y1="570.00" y2="570.00" />
</g>
<g stroke="black">
<line x1="50.00" x2="38.00" y1="550.48" y2="550.48" />
<line x1="50.00" x2="38.00" y1="478.22" y2="478.22" />
<line x1="50.00" x2="38.00" y1="405.96" y2="405.96" />
<line x1="50.00" x2="38.00" y1="333.71" y2="333.71" />
<line x1="50.00" x2="38.00" y1="261.45" y2="261.45" />
<line x1="50.00" x2="38.00" y1="189.19" y2="189.19" />
<line x1="50.00" x2="38.00" y1="116.94" y2="116.94" />
<line x1="50.00" x2="38.00" y1="44.68" y2="44.68" />
<g fill="black" font-family="Arial, sans-serif" font-size="18.0" stroke="none" text-anchor="end">
<text x="41.00" y="541.48">-12</text>
<text x="41.00" y="469.22">-11</text>
<text x="41.00" y="396.96">-10</text>
<text x="41.00" y="324.71">-9</text>
<text x="41.00" y="252.45">-8</text>
<text x="41.00" y="180.19">-7</text>
<text x="41.00" y="107.94">-6</text>
<text x="41.00" y="35.68">-5</text>
</g>
<line x1="50.00" x2="50.00" y1="570.00" y2="30.00" />
</g>
</g>
</svg>