<?xml version="1.0"?>
<svg height="1000" version="1.1" viewBox="0 0 1500 1000" width="1500" xmlns:xlink="http://www.w3.org/1999/xlink" xmlns="http://www.w3.org/2000/svg">
<g>
<g transform="matrix(1.00,0.00,0.00,1.00,0.00,0.00)">
<g>
<g transform="matrix(1.00,0.00,0.00,1.00,0.00,0.00)">
<svg height="1000" version="1.1" viewBox="0 0 500 1000" width="500" xmlns:xlink="http://www.w3.org/1999/xlink" xmlns="http://www.w3.org/2000/svg">
<g>
<g transform="matrix(1.00,0.00,0.00,1.00,0.00,0.00)">
<g>
<g transform="matrix(1.00,0.00,0.00,1.00,0.00,0.00)">
<svg height="500" version="1.1" viewBox="0 0 500 500" width="500" xmlns:xlink="http://www.w3.org/1999/xlink" xmlns="http://www.w3.org/2000/svg">
<g>
<g stroke-dasharray="3.6 7.2" stroke-width="0.72" stroke="#caa">
<line x1="62.50" x2="62.50" y1="475.00" y2="25.00" />
<line x1="137.50" x2="137.50" y1="475.00" y2="25.00" />
<line x1="212.50" x2="212.50" y1="475.00" y2="25.00" />
<line x1="287.50" x2="287.50" y1="475.00" y2="25.00" />
<line x1="362.50" x2="362.50" y1="475.00" y2="25.00" />
<line x1="437.50" x2="437.50" y1="475.00" y2="25.00" />
<line x1="25.00" x2="475.00" y1="395.03" y2="395.03" />
<line x1="25.00" x2="475.00" y1="280.11" y2="280.11" />
<line x1="25.00" x2="475.00" y1="165.19" y2="165.19" />
<line x1="25.00" x2="475.00" y1="50.27" y2="50.27" />
</g>
<g>
<text dominant-baseline="hanging" dx="-36.0" dy="18.0" fill="#0004" font-family="Arial, sans-serif" font-size="36" stroke="none" text-anchor="end" x="475.00" y="62.50">PT</text>
</g>
<g>
<text dominant-baseline="text-bottom" dy="0" fill="black" font-family="Arial, sans-serif" font-size="18.0" font-style="italic" stroke="none" text-anchor="middle" x="250.00" y="25.00">Relative Positions</text>
</g>
<g>
<text dominant-baseline="hanging" dx="18.0" dy="18.0" fill="black" font-family="Arial, sans-serif" font-size="18.0" font-style="italic" stroke="none" text-anchor="beginning" text-orientation="sideways" x="25.00" y="25.00">d-Oxygen</text>
</g>
<polyline fill="none" points="62.50,105.07 137.50,166.41 212.50,265.41 287.50,230.00 362.50,229.92 437.50,175.67" stroke-dasharray="3.2 3.2" stroke-width="3.2" stroke="#aaa" />
<polyline fill="none" points="62.50,188.57 137.50,293.76 212.50,252.31 287.50,161.43 362.50,153.79 437.50,195.46" stroke-dasharray="3.2 3.2" stroke-width="3.2" stroke="#aaa" />
<polyline fill="none" points="62.50,333.27 137.50,333.21 212.50,346.75 287.50,374.12 362.50,374.87 437.50,365.79" stroke-dasharray="3.2 3.2" stroke-width="3.2" stroke="#aaa" />
<polyline fill="none" points="62.50,374.75 137.50,419.95 212.50,437.50 287.50,434.74 362.50,379.46 437.50,359.66" stroke-dasharray="3.2 3.2" stroke-width="3.2" stroke="#aaa" />
<g>
<text dominant-baseline="central" fill="#15b01a" font-size="21.333333333333332" stroke="none" text-anchor="middle" x="62.50" y="105.07">A</text>
<text dominant-baseline="central" fill="#15b01a" font-size="21.333333333333332" stroke="none" text-anchor="middle" x="137.50" y="166.41">B</text>
<text dominant-baseline="central" fill="#15b01a" font-size="21.333333333333332" stroke="none" text-anchor="middle" x="212.50" y="265.41">C</text>
<text dominant-baseline="central" fill="#15b01a" font-size="21.333333333333332" stroke="none" text-anchor="middle" x="287.50" y="230.00">D</text>
<text dominant-baseline="central" fill="#15b01a" font-size="21.333333333333332" stroke="none" text-anchor="middle" x="362.50" y="229.92">E</text>
<text dominant-baseline="central" fill="#15b01a" font-size="21.333333333333332" stroke="none" text-anchor="middle" x="437.50" y="175.67">F</text>
</g>
<g>
<text dominant-baseline="central" fill="#f97306" font-size="21.333333333333332" stroke="none" text-anchor="middle" x="62.50" y="188.57">A</text>
<text dominant-baseline="central" fill="#f97306" font-size="21.333333333333332" stroke="none" text-anchor="middle" x="137.50" y="293.76">B</text>
<text dominant-baseline="central" fill="#f97306" font-size="21.333333333333332" stroke="none" text-anchor="middle" x="212.50" y="252.31">C</text>
<text dominant-baseline="central" fill="#f97306" font-size="21.333333333333332" stroke="none" text-anchor="middle" x="287.50" y="161.43">D</text>
<text dominant-baseline="central" fill="#f97306" font-size="21.333333333333332" stroke="none" text-anchor="middle" x="362.50" y="153.79">E</text>
<text dominant-baseline="central" fill="#f97306" font-size="21.333333333333332" stroke="none" text-anchor="middle" x="437.50" y="195.46">F</text>
</g>
<g>
<text dominant-baseline="central" fill="#bf77f6" font-size="21.333333333333332" stroke="none" text-anchor="middle" x="62.50" y="333.27">A</text>
<text dominant-baseline="central" fill="#bf77f6" font-size="21.333333333333332" stroke="none" text-anchor="middle" x="137.50" y="333.21">B</text>
<text dominant-baseline="central" fill="#bf77f6" font-size="21.333333333333332" stroke="none" text-anchor="middle" x="212.50" y="346.75">C</text>
<text dominant-baseline="central" fill="#bf77f6" font-size="21.333333333333332" stroke="none" text-anchor="middle" x="287.50" y="374.12">D</text>
<text dominant-baseline="central" fill="#bf77f6" font-size="21.333333333333332" stroke="none" text-anchor="middle" x="362.50" y="374.87">E</text>
<text dominant-baseline="central" fill="#bf77f6" font-size="21.333333333333332" stroke="none" text-anchor="middle" x="437.50" y="365.79">F</text>
</g>
<g>
<text dominant-baseline="central" fill="#cb416b" font-size="21.333333333333332" stroke="none" text-anchor="middle" x="62.50" y="374.75">A</text>
<text dominant-baseline="central" fill="#cb416b" font-size="21.333333333333332" stroke="none" text-anchor="middle" x="137.50" y="419.95">B</text>
<text dominant-baseline="central" fill="#cb416b" font-size="21.333333333333332" stroke="none" text-anchor="middle" x="212.50" y="437.50">C</text>
<text dominant-baseline="central" fill="#cb416b" font-size="21.333333333333332" stroke="none" text-anchor="middle" x="287.50" y="434.74">D</text>
<text dominant-baseline="central" fill="#cb416b" font-size="21.333333333333332" stroke="none" text-anchor="middle" x="362.50" y="379.46">E</text>
<text dominant-baseline="central" fill="#cb416b" font-size="21.333333333333332" stroke="none" text-anchor="middle" x="437.50" y="359.66">F</text>
</g>
<g stroke="black">
<line x1="62.50" x2="62.50" y1="475.00" y2="485.00" />
<line x1="137.50" x2="137.50" y1="475.00" y2="485.00" />
<line x1="212.50" x2="212.50" y1="475.00" y2="485.00" />
<line x1="287.50" x2="287.50" y1="475.00" y2="485.00" />
<line x1="362.50" x2="362.50" y1="475.00" y2="485.00" />
<line x1="437.50" x2="437.50" y1="475.00" y2="485.00" />
<g fill="black" font-family="Arial, sans-serif" font-size="18.0" stroke="none" text-anchor="start" transform="translate(9.0 0.0)">
<text x="62.50" y="495.57">0</text>
<text x="137.50" y="495.57">1</text>
<text x="212.50" y="495.57">2</text>
<text x="287.50" y="495.57">3</text>
<text x="362.50" y="495.57">4</text>
<text x="437.50" y="495.57">5</text>
</g>
<line x1="25.00" x2="475.00" y1="475.00" y2="475.00" />
</g>
<g stroke="black">
<line x1="25.00" x2="13.00" y1="395.03" y2="395.03" />
<line x1="25.00" x2="13.00" y1="280.11" y2="280.11" />
<line x1="25.00" x2="13.00" y1="165.19" y2="165.19" />
<line x1="25.00" x2="13.00" y1="50.27" y2="50.27" />
<g fill="black" font-family="Arial, sans-serif" font-size="18.0" stroke="none" text-anchor="end">
<text x="16.00" y="386.03">-7</text>
<text x="16.00" y="271.11">-6</text>
<text x="16.00" y="156.19">-5</text>
<text x="16.00" y="41.27">-4</text>
</g>
<line x1="25.00" x2="25.00" y1="475.00" y2="25.00" />
</g>
</g>
</svg>
</g>
</g>
</g>
<g transform="matrix(1.00,0.00,0.00,1.00,0.00,500.00)">
<g>
<g transform="matrix(1.00,0.00,0.00,1.00,0.00,0.00)">
<svg height="500" version="1.1" viewBox="0 0 500 500" width="500" xmlns:xlink="http://www.w3.org/1999/xlink" xmlns="http://www.w3.org/2000/svg">
<g>
<g stroke-dasharray="3.6 7.2" stroke-width="0.72" stroke="#caa">
<line x1="62.50" x2="62.50" y1="475.00" y2="25.00" />
<line x1="137.50" x2="137.50" y1="475.00" y2="25.00" />
<line x1="212.50" x2="212.50" y1="475.00" y2="25.00" />
<line x1="287.50" x2="287.50" y1="475.00" y2="25.00" />
<line x1="362.50" x2="362.50" y1="475.00" y2="25.00" />
<line x1="437.50" x2="437.50" y1="475.00" y2="25.00" />
<line x1="25.00" x2="475.00" y1="458.73" y2="458.73" />
<line x1="25.00" x2="475.00" y1="398.52" y2="398.52" />
<line x1="25.00" x2="475.00" y1="338.30" y2="338.30" />
<line x1="25.00" x2="475.00" y1="278.09" y2="278.09" />
<line x1="25.00" x2="475.00" y1="217.87" y2="217.87" />
<line x1="25.00" x2="475.00" y1="157.66" y2="157.66" />
<line x1="25.00" x2="475.00" y1="97.45" y2="97.45" />
<line x1="25.00" x2="475.00" y1="37.23" y2="37.23" />
</g>
<g>
<text dominant-baseline="hanging" dx="-36.0" dy="18.0" fill="#0004" font-family="Arial, sans-serif" font-size="36" stroke="none" text-anchor="end" x="475.00" y="62.50">PT</text>
</g>
<g>
<text dominant-baseline="text-bottom" dy="0" fill="black" font-family="Arial, sans-serif" font-size="18.0" font-style="italic" stroke="none" text-anchor="middle" x="250.00" y="25.00">Relative Positions</text>
</g>
<g>
<text dominant-baseline="hanging" dx="18.0" dy="18.0" fill="black" font-family="Arial, sans-serif" font-size="18.0" font-style="italic" stroke="none" text-anchor="beginning" text-orientation="sideways" x="25.00" y="25.00">d-Carbon</text>
</g>
<polyline fill="none" points="62.50,207.73 137.50,184.40 212.50,197.10 287.50,212.14 362.50,189.27 437.50,162.64" stroke-dasharray="3.2 3.2" stroke-width="3.2" stroke="#aaa" />
<polyline fill="none" points="62.50,260.99 137.50,317.61 212.50,342.14 287.50,296.83 362.50,254.76 437.50,258.27" stroke-dasharray="3.2 3.2" stroke-width="3.2" stroke="#aaa" />
<polyline fill="none" points="62.50,62.50 137.50,129.64 212.50,147.67 287.50,174.55 362.50,158.67 437.50,146.31" stroke-dasharray="3.2 3.2" stroke-width="3.2" stroke="#aaa" />
<polyline fill="none" points="62.50,111.27 137.50,125.79 212.50,162.67 287.50,147.21 362.50,142.56 437.50,99.98" stroke-dasharray="3.2 3.2" stroke-width="3.2" stroke="#aaa" />
<g>
<text dominant-baseline="central" fill="#15b01a" font-size="21.333333333333332" stroke="none" text-anchor="middle" x="62.50" y="207.73">A</text>
<text dominant-baseline="central" fill="#15b01a" font-size="21.333333333333332" stroke="none" text-anchor="middle" x="137.50" y="184.40">B</text>
<text dominant-baseline="central" fill="#15b01a" font-size="21.333333333333332" stroke="none" text-anchor="middle" x="212.50" y="197.10">C</text>
<text dominant-baseline="central" fill="#15b01a" font-size="21.333333333333332" stroke="none" text-anchor="middle" x="287.50" y="212.14">D</text>
<text dominant-baseline="central" fill="#15b01a" font-size="21.333333333333332" stroke="none" text-anchor="middle" x="362.50" y="189.27">E</text>
<text dominant-baseline="central" fill="#15b01a" font-size="21.333333333333332" stroke="none" text-anchor="middle" x="437.50" y="162.64">F</text>
</g>
<g>
<text dominant-baseline="central" fill="#f97306" font-size="21.333333333333332" stroke="none" text-anchor="middle" x="62.50" y="260.99">A</text>
<text dominant-baseline="central" fill="#f97306" font-size="21.333333333333332" stroke="none" text-anchor="middle" x="137.50" y="317.61">B</text>
<text dominant-baseline="central" fill="#f97306" font-size="21.333333333333332" stroke="none" text-anchor="middle" x="212.50" y="342.14">C</text>
<text dominant-baseline="central" fill="#f97306" font-size="21.333333333333332" stroke="none" text-anchor="middle" x="287.50" y="296.83">D</text>
<text dominant-baseline="central" fill="#f97306" font-size="21.333333333333332" stroke="none" text-anchor="middle" x="362.50" y="254.76">E</text>
<text dominant-baseline="central" fill="#f97306" font-size="21.333333333333332" stroke="none" text-anchor="middle" x="437.50" y="258.27">F</text>
</g>
<g>
<text dominant-baseline="central" fill="#bf77f6" font-size="21.333333333333332" stroke="none" text-anchor="middle" x="62.50" y="62.50">A</text>
<text dominant-baseline="central" fill="#bf77f6" font-size="21.333333333333332" stroke="none" text-anchor="middle" x="137.50" y="129.64">B</text>
<text dominant-baseline="central" fill="#bf77f6" font-size="21.333333333333332" stroke="none" text-anchor="middle" x="212.50" y="147.67">C</text>
<text dominant-baseline="central" fill="#bf77f6" font-size="21.333333333333332" stroke="none" text-anchor="middle" x="287.50" y="174.55">D</text>
<text dominant-baseline="central" fill="#bf77f6" font-size="21.333333333333332" stroke="none" text-anchor="middle" x="362.50" y="158.67">E</text>
<text dominant-baseline="central" fill="#bf77f6" font-size="21.333333333333332" stroke="none" text-anchor="middle" x="437.50" y="146.31">F</text>
</g>
<g>
<text dominant-baseline="central" fill="#cb416b" font-size="21.333333333333332" stroke="none" text-anchor="middle" x="62.50" y="111.27">A</text>
<text dominant-baseline="central" fill="#cb416b" font-size="21.333333333333332" stroke="none" text-anchor="middle" x="137.50" y="125.79">B</text>
<text dominant-baseline="central" fill="#cb416b" font-size="21.333333333333332" stroke="none" text-anchor="middle" x="212.50" y="162.67">C</text>
<text dominant-baseline="central" fill="#cb416b" font-size="21.333333333333332" stroke="none" text-anchor="middle" x="287.50" y="147.21">D</text>
<text dominant-baseline="central" fill="#cb416b" font-size="21.333333333333332" stroke="none" text-anchor="middle" x="362.50" y="142.56">E</text>
<text dominant-baseline="central" fill="#cb416b" font-size="21.333333333333332" stroke="none" text-anchor="middle" x="437.50" y="99.98">F</text>
</g>
<g stroke="black">
<line x1="62.50" x2="62.50" y1="475.00" y2="485.00" />
<line x1="137.50" x2="137.50" y1="475.00" y2="485.00" />
<line x1="212.50" x2="212.50" y1="475.00" y2="485.00" />
<line x1="287.50" x2="287.50" y1="475.00" y2="485.00" />
<line x1="362.50" x2="362.50" y1="475.00" y2="485.00" />
<line x1="437.50" x2="437.50" y1="475.00" y2="485.00" />
<g fill="black" font-family="Arial, sans-serif" font-size="18.0" stroke="none" text-anchor="start" transform="translate(9.0 0.0)">
<text x="62.50" y="495.57">0</text>
<text x="137.50" y="495.57">1</text>
<text x="212.50" y="495.57">2</text>
<text x="287.50" y="495.57">3</text>
<text x="362.50" y="495.57">4</text>
<text x="437.50" y="495.57">5</text>
</g>
<line x1="25.00" x2="475.00" y1="475.00" y2="475.00" />
</g>
<g stroke="black">
<line x1="25.00" x2="13.00" y1="458.73" y2="458.73" />
<line x1="25.00" x2="13.00" y1="398.52" y2="398.52" />
<line x1="25.00" x2="13.00" y1="338.30" y2="338.30" />
<line x1="25.00" x2="13.00" y1="278.09" y2="278.09" />
<line x1="25.00" x2="13.00" y1="217.87" y2="217.87" />
<line x1="25.00" x2="13.00" y1="157.66" y2="157.66" />
<line x1="25.00" x2="13.00" y1="97.45" y2="97.45" />
<line x1="25.00" x2="13.00" y1="37.23" y2="37.23" />
<g fill="black" font-family="Arial, sans-serif" font-size="18.0" stroke="none" text-anchor="end">
<text x="16.00" y="449.73">-12</text>
<text x="16.00" y="389.52">-11</text>
<text x="16.00" y="329.30">-10</text>
<text x="16.00" y="269.09">-9</text>
<text x="16.00" y="208.87">-8</text>
<text x="16.00" y="148.66">-7</text>
<text x="16.00" y="88.45">-6</text>
<text x="16.00" y="28.23">-5</text>
</g>
<line x1="25.00" x2="25.00" y1="475.00" y2="25.00" />
</g>
</g>
</svg>
</g>
</g>
</g>
</g>
</svg>
</g>
<g transform="matrix(1.00,0.00,0.00,1.00,500.00,0.00)">
<svg height="1000" version="1.1" viewBox="0 0 1000 1000" width="1000" xmlns:xlink="http://www.w3.org/1999/xlink" xmlns="http://www.w3.org/2000/svg">
<g>
<g stroke-dasharray="3.6 7.2" stroke-width="0.72" stroke="#caa">
<line x1="151.92" x2="151.92" y1="950.00" y2="50.00" />
<line x1="427.73" x2="427.73" y1="950.00" y2="50.00" />
<line x1="703.55" x2="703.55" y1="950.00" y2="50.00" />
<line x1="50.00" x2="950.00" y1="917.46" y2="917.46" />
<line x1="50.00" x2="950.00" y1="797.03" y2="797.03" />
<line x1="50.00" x2="950.00" y1="676.60" y2="676.60" />
<line x1="50.00" x2="950.00" y1="556.18" y2="556.18" />
<line x1="50.00" x2="950.00" y1="435.75" y2="435.75" />
<line x1="50.00" x2="950.00" y1="315.32" y2="315.32" />
<line x1="50.00" x2="950.00" y1="194.89" y2="194.89" />
<line x1="50.00" x2="950.00" y1="74.47" y2="74.47" />
</g>
<g>
<text dominant-baseline="hanging" dx="-36.0" dy="18.0" fill="#0004" font-family="Arial, sans-serif" font-size="36" stroke="none" text-anchor="end" x="950.00" y="125.00">PT</text>
</g>
<g>
<text dominant-baseline="text-bottom" dy="0" fill="black" font-family="Arial, sans-serif" font-size="18.0" font-style="italic" stroke="none" text-anchor="middle" x="500.00" y="50.00">d-Oxygen</text>
</g>
<g>
<text dominant-baseline="hanging" dx="18.0" dy="18.0" fill="black" font-family="Arial, sans-serif" font-size="18.0" font-style="italic" stroke="none" text-anchor="beginning" text-orientation="sideways" x="50.00" y="50.00">d-Carbon</text>
</g>
<g>
</g>
<g>
</g>
<g>
<circle cx="300.29" cy="259.28" fill="#8004" r="16.0" />
</g>
<g>
</g>
<g>
<circle cx="463.01" cy="394.20" fill="black" r="2.1333333333333333" />
<circle cx="547.99" cy="424.29" fill="black" r="2.1333333333333333" />
<circle cx="548.19" cy="378.55" fill="black" r="2.1333333333333333" />
<circle cx="678.40" cy="325.29" fill="black" r="2.1333333333333333" />
<circle cx="700.62" cy="368.80" fill="black" r="2.1333333333333333" />
<circle cx="847.82" cy="415.46" fill="black" r="2.1333333333333333" />
</g>
<polyline fill="none" points="670.01,325.29 686.78,325.29" stroke-width="1.28" stroke="black" />
<polyline fill="none" points="678.40,335.60 678.40,321.63" stroke-width="1.28" stroke="black" />
<g>
<circle cx="463.01" cy="394.20" fill="black" r="2.1333333333333333" />
<circle cx="547.99" cy="424.29" fill="black" r="2.1333333333333333" />
<circle cx="548.19" cy="378.55" fill="black" r="2.1333333333333333" />
<circle cx="678.40" cy="325.29" fill="black" r="2.1333333333333333" />
<circle cx="700.62" cy="368.80" fill="black" r="2.1333333333333333" />
<circle cx="847.82" cy="415.46" fill="black" r="2.1333333333333333" />
</g>
<polyline fill="none" points="841.74,415.46 853.91,415.46" stroke-width="1.28" stroke="black" />
<polyline fill="none" points="847.82,417.02 847.82,412.80" stroke-width="1.28" stroke="black" />
<g>
<circle cx="463.01" cy="394.20" fill="black" r="2.1333333333333333" />
<circle cx="547.99" cy="424.29" fill="black" r="2.1333333333333333" />
<circle cx="548.19" cy="378.55" fill="black" r="2.1333333333333333" />
<circle cx="678.40" cy="325.29" fill="black" r="2.1333333333333333" />
<circle cx="700.62" cy="368.80" fill="black" r="2.1333333333333333" />
<circle cx="847.82" cy="415.46" fill="black" r="2.1333333333333333" />
</g>
<polyline fill="none" points="696.14,368.80 705.11,368.80" stroke-width="1.28" stroke="black" />
<polyline fill="none" points="700.62,369.86 700.62,366.84" stroke-width="1.28" stroke="black" />
<g>
<circle cx="463.01" cy="394.20" fill="black" r="2.1333333333333333" />
<circle cx="547.99" cy="424.29" fill="black" r="2.1333333333333333" />
<circle cx="548.19" cy="378.55" fill="black" r="2.1333333333333333" />
<circle cx="678.40" cy="325.29" fill="black" r="2.1333333333333333" />
<circle cx="700.62" cy="368.80" fill="black" r="2.1333333333333333" />
<circle cx="847.82" cy="415.46" fill="black" r="2.1333333333333333" />
</g>
<polyline fill="none" points="456.01,394.20 470.01,394.20" stroke-width="1.28" stroke="black" />
<polyline fill="none" points="463.01,396.27 463.01,391.14" stroke-width="1.28" stroke="black" />
<g>
<circle cx="463.01" cy="394.20" fill="black" r="2.1333333333333333" />
<circle cx="547.99" cy="424.29" fill="black" r="2.1333333333333333" />
<circle cx="548.19" cy="378.55" fill="black" r="2.1333333333333333" />
<circle cx="678.40" cy="325.29" fill="black" r="2.1333333333333333" />
<circle cx="700.62" cy="368.80" fill="black" r="2.1333333333333333" />
<circle cx="847.82" cy="415.46" fill="black" r="2.1333333333333333" />
</g>
<polyline fill="none" points="542.41,424.29 553.57,424.29" stroke-width="1.28" stroke="black" />
<polyline fill="none" points="547.99,425.46 547.99,421.85" stroke-width="1.28" stroke="black" />
<g>
<circle cx="463.01" cy="394.20" fill="black" r="2.1333333333333333" />
<circle cx="547.99" cy="424.29" fill="black" r="2.1333333333333333" />
<circle cx="548.19" cy="378.55" fill="black" r="2.1333333333333333" />
<circle cx="678.40" cy="325.29" fill="black" r="2.1333333333333333" />
<circle cx="700.62" cy="368.80" fill="black" r="2.1333333333333333" />
<circle cx="847.82" cy="415.46" fill="black" r="2.1333333333333333" />
</g>
<polyline fill="none" points="542.87,378.55 553.50,378.55" stroke-width="1.28" stroke="black" />
<polyline fill="none" points="548.19,379.79 548.19,376.23" stroke-width="1.28" stroke="black" />
<g>
<circle cx="394.96" cy="635.21" fill="black" r="2.1333333333333333" />
<circle cx="494.46" cy="684.28" fill="black" r="2.1333333333333333" />
<circle cx="630.90" cy="516.54" fill="black" r="2.1333333333333333" />
<circle cx="647.44" cy="521.98" fill="black" r="2.1333333333333333" />
<circle cx="712.57" cy="593.65" fill="black" r="2.1333333333333333" />
<circle cx="730.89" cy="509.52" fill="black" r="2.1333333333333333" />
</g>
<polyline fill="none" points="637.72,521.98 657.17,521.98" stroke-width="1.28" stroke="black" />
<polyline fill="none" points="647.44,524.12 647.44,517.73" stroke-width="1.28" stroke="black" />
<g>
<circle cx="394.96" cy="635.21" fill="black" r="2.1333333333333333" />
<circle cx="494.46" cy="684.28" fill="black" r="2.1333333333333333" />
<circle cx="630.90" cy="516.54" fill="black" r="2.1333333333333333" />
<circle cx="647.44" cy="521.98" fill="black" r="2.1333333333333333" />
<circle cx="712.57" cy="593.65" fill="black" r="2.1333333333333333" />
<circle cx="730.89" cy="509.52" fill="black" r="2.1333333333333333" />
</g>
<polyline fill="none" points="382.92,635.21 407.01,635.21" stroke-width="1.28" stroke="black" />
<polyline fill="none" points="394.96,638.99 394.96,629.95" stroke-width="1.28" stroke="black" />
<g>
<circle cx="394.96" cy="635.21" fill="black" r="2.1333333333333333" />
<circle cx="494.46" cy="684.28" fill="black" r="2.1333333333333333" />
<circle cx="630.90" cy="516.54" fill="black" r="2.1333333333333333" />
<circle cx="647.44" cy="521.98" fill="black" r="2.1333333333333333" />
<circle cx="712.57" cy="593.65" fill="black" r="2.1333333333333333" />
<circle cx="730.89" cy="509.52" fill="black" r="2.1333333333333333" />
</g>
<polyline fill="none" points="488.08,684.28 500.85,684.28" stroke-width="1.28" stroke="black" />
<polyline fill="none" points="494.46,685.39 494.46,681.49" stroke-width="1.28" stroke="black" />
<g>
<circle cx="394.96" cy="635.21" fill="black" r="2.1333333333333333" />
<circle cx="494.46" cy="684.28" fill="black" r="2.1333333333333333" />
<circle cx="630.90" cy="516.54" fill="black" r="2.1333333333333333" />
<circle cx="647.44" cy="521.98" fill="black" r="2.1333333333333333" />
<circle cx="712.57" cy="593.65" fill="black" r="2.1333333333333333" />
<circle cx="730.89" cy="509.52" fill="black" r="2.1333333333333333" />
</g>
<polyline fill="none" points="707.15,593.65 717.99,593.65" stroke-width="1.28" stroke="black" />
<polyline fill="none" points="712.57,595.04 712.57,591.28" stroke-width="1.28" stroke="black" />
<g>
<circle cx="394.96" cy="635.21" fill="black" r="2.1333333333333333" />
<circle cx="494.46" cy="684.28" fill="black" r="2.1333333333333333" />
<circle cx="630.90" cy="516.54" fill="black" r="2.1333333333333333" />
<circle cx="647.44" cy="521.98" fill="black" r="2.1333333333333333" />
<circle cx="712.57" cy="593.65" fill="black" r="2.1333333333333333" />
<circle cx="730.89" cy="509.52" fill="black" r="2.1333333333333333" />
</g>
<polyline fill="none" points="724.68,509.52 737.10,509.52" stroke-width="1.28" stroke="black" />
<polyline fill="none" points="730.89,511.19 730.89,506.81" stroke-width="1.28" stroke="black" />
<g>
<circle cx="394.96" cy="635.21" fill="black" r="2.1333333333333333" />
<circle cx="494.46" cy="684.28" fill="black" r="2.1333333333333333" />
<circle cx="630.90" cy="516.54" fill="black" r="2.1333333333333333" />
<circle cx="647.44" cy="521.98" fill="black" r="2.1333333333333333" />
<circle cx="712.57" cy="593.65" fill="black" r="2.1333333333333333" />
<circle cx="730.89" cy="509.52" fill="black" r="2.1333333333333333" />
</g>
<polyline fill="none" points="625.48,516.54 636.32,516.54" stroke-width="1.28" stroke="black" />
<polyline fill="none" points="630.90,517.82 630.90,514.17" stroke-width="1.28" stroke="black" />
<g>
<circle cx="200.31" cy="317.34" fill="black" r="2.1333333333333333" />
<circle cx="202.12" cy="349.10" fill="black" r="2.1333333333333333" />
<circle cx="222.09" cy="292.63" fill="black" r="2.1333333333333333" />
<circle cx="267.81" cy="295.34" fill="black" r="2.1333333333333333" />
<circle cx="300.16" cy="125.00" fill="black" r="2.1333333333333333" />
<circle cx="300.29" cy="259.28" fill="black" r="2.1333333333333333" />
</g>
<polyline fill="none" points="291.64,125.00 308.67,125.00" stroke-width="1.28" stroke="black" />
<polyline fill="none" points="300.16,127.49 300.16,121.28" stroke-width="1.28" stroke="black" />
<g>
<circle cx="200.31" cy="317.34" fill="black" r="2.1333333333333333" />
<circle cx="202.12" cy="349.10" fill="black" r="2.1333333333333333" />
<circle cx="222.09" cy="292.63" fill="black" r="2.1333333333333333" />
<circle cx="267.81" cy="295.34" fill="black" r="2.1333333333333333" />
<circle cx="300.16" cy="125.00" fill="black" r="2.1333333333333333" />
<circle cx="300.29" cy="259.28" fill="black" r="2.1333333333333333" />
</g>
<polyline fill="none" points="296.85,259.28 303.73,259.28" stroke-width="1.28" stroke="black" />
<polyline fill="none" points="300.29,260.54 300.29,257.78" stroke-width="1.28" stroke="black" />
<g>
<circle cx="200.31" cy="317.34" fill="black" r="2.1333333333333333" />
<circle cx="202.12" cy="349.10" fill="black" r="2.1333333333333333" />
<circle cx="222.09" cy="292.63" fill="black" r="2.1333333333333333" />
<circle cx="267.81" cy="295.34" fill="black" r="2.1333333333333333" />
<circle cx="300.16" cy="125.00" fill="black" r="2.1333333333333333" />
<circle cx="300.29" cy="259.28" fill="black" r="2.1333333333333333" />
</g>
<polyline fill="none" points="261.71,295.34 273.90,295.34" stroke-width="1.28" stroke="black" />
<polyline fill="none" points="267.81,297.12 267.81,292.67" stroke-width="1.28" stroke="black" />
<g>
<circle cx="200.31" cy="317.34" fill="black" r="2.1333333333333333" />
<circle cx="202.12" cy="349.10" fill="black" r="2.1333333333333333" />
<circle cx="222.09" cy="292.63" fill="black" r="2.1333333333333333" />
<circle cx="267.81" cy="295.34" fill="black" r="2.1333333333333333" />
<circle cx="300.16" cy="125.00" fill="black" r="2.1333333333333333" />
<circle cx="300.29" cy="259.28" fill="black" r="2.1333333333333333" />
</g>
<polyline fill="none" points="195.14,349.10 209.10,349.10" stroke-width="1.28" stroke="black" />
<polyline fill="none" points="202.12,351.10 202.12,346.06" stroke-width="1.28" stroke="black" />
<g>
<circle cx="200.31" cy="317.34" fill="black" r="2.1333333333333333" />
<circle cx="202.12" cy="349.10" fill="black" r="2.1333333333333333" />
<circle cx="222.09" cy="292.63" fill="black" r="2.1333333333333333" />
<circle cx="267.81" cy="295.34" fill="black" r="2.1333333333333333" />
<circle cx="300.16" cy="125.00" fill="black" r="2.1333333333333333" />
<circle cx="300.29" cy="259.28" fill="black" r="2.1333333333333333" />
</g>
<polyline fill="none" points="193.58,317.34 207.04,317.34" stroke-width="1.28" stroke="black" />
<polyline fill="none" points="200.31,319.08 200.31,314.40" stroke-width="1.28" stroke="black" />
<g>
<circle cx="200.31" cy="317.34" fill="black" r="2.1333333333333333" />
<circle cx="202.12" cy="349.10" fill="black" r="2.1333333333333333" />
<circle cx="222.09" cy="292.63" fill="black" r="2.1333333333333333" />
<circle cx="267.81" cy="295.34" fill="black" r="2.1333333333333333" />
<circle cx="300.16" cy="125.00" fill="black" r="2.1333333333333333" />
<circle cx="300.29" cy="259.28" fill="black" r="2.1333333333333333" />
</g>
<polyline fill="none" points="216.89,292.63 227.30,292.63" stroke-width="1.28" stroke="black" />
<polyline fill="none" points="222.09,293.87 222.09,290.36" stroke-width="1.28" stroke="black" />
<g>
<circle cx="50.00" cy="325.33" fill="black" r="2.1333333333333333" />
<circle cx="56.61" cy="294.41" fill="black" r="2.1333333333333333" />
<circle cx="92.13" cy="251.59" fill="black" r="2.1333333333333333" />
<circle cx="189.29" cy="285.13" fill="black" r="2.1333333333333333" />
<circle cx="200.60" cy="222.54" fill="black" r="2.1333333333333333" />
<circle cx="236.82" cy="199.96" fill="black" r="2.1333333333333333" />
</g>
<polyline fill="none" points="195.36,222.54 205.84,222.54" stroke-width="1.28" stroke="black" />
<polyline fill="none" points="200.60,223.79 200.60,220.25" stroke-width="1.28" stroke="black" />
<g>
<circle cx="50.00" cy="325.33" fill="black" r="2.1333333333333333" />
<circle cx="56.61" cy="294.41" fill="black" r="2.1333333333333333" />
<circle cx="92.13" cy="251.59" fill="black" r="2.1333333333333333" />
<circle cx="189.29" cy="285.13" fill="black" r="2.1333333333333333" />
<circle cx="200.60" cy="222.54" fill="black" r="2.1333333333333333" />
<circle cx="236.82" cy="199.96" fill="black" r="2.1333333333333333" />
</g>
<polyline fill="none" points="86.55,251.59 97.71,251.59" stroke-width="1.28" stroke="black" />
<polyline fill="none" points="92.13,253.12 92.13,249.15" stroke-width="1.28" stroke="black" />
<g>
<circle cx="50.00" cy="325.33" fill="black" r="2.1333333333333333" />
<circle cx="56.61" cy="294.41" fill="black" r="2.1333333333333333" />
<circle cx="92.13" cy="251.59" fill="black" r="2.1333333333333333" />
<circle cx="189.29" cy="285.13" fill="black" r="2.1333333333333333" />
<circle cx="200.60" cy="222.54" fill="black" r="2.1333333333333333" />
<circle cx="236.82" cy="199.96" fill="black" r="2.1333333333333333" />
</g>
<polyline fill="none" points="54.20,325.33" stroke-width="1.28" stroke="black" />
<polyline fill="none" points="50.00,326.63 50.00,323.50" stroke-width="1.28" stroke="black" />
<g>
<circle cx="50.00" cy="325.33" fill="black" r="2.1333333333333333" />
<circle cx="56.61" cy="294.41" fill="black" r="2.1333333333333333" />
<circle cx="92.13" cy="251.59" fill="black" r="2.1333333333333333" />
<circle cx="189.29" cy="285.13" fill="black" r="2.1333333333333333" />
<circle cx="200.60" cy="222.54" fill="black" r="2.1333333333333333" />
<circle cx="236.82" cy="199.96" fill="black" r="2.1333333333333333" />
</g>
<polyline fill="none" points="63.62,294.41" stroke-width="1.28" stroke="black" />
<polyline fill="none" points="56.61,295.75 56.61,291.35" stroke-width="1.28" stroke="black" />
<g>
<circle cx="50.00" cy="325.33" fill="black" r="2.1333333333333333" />
<circle cx="56.61" cy="294.41" fill="black" r="2.1333333333333333" />
<circle cx="92.13" cy="251.59" fill="black" r="2.1333333333333333" />
<circle cx="189.29" cy="285.13" fill="black" r="2.1333333333333333" />
<circle cx="200.60" cy="222.54" fill="black" r="2.1333333333333333" />
<circle cx="236.82" cy="199.96" fill="black" r="2.1333333333333333" />
</g>
<polyline fill="none" points="185.07,285.13 193.51,285.13" stroke-width="1.28" stroke="black" />
<polyline fill="none" points="189.29,286.62 189.29,283.28" stroke-width="1.28" stroke="black" />
<g>
<circle cx="50.00" cy="325.33" fill="black" r="2.1333333333333333" />
<circle cx="56.61" cy="294.41" fill="black" r="2.1333333333333333" />
<circle cx="92.13" cy="251.59" fill="black" r="2.1333333333333333" />
<circle cx="189.29" cy="285.13" fill="black" r="2.1333333333333333" />
<circle cx="200.60" cy="222.54" fill="black" r="2.1333333333333333" />
<circle cx="236.82" cy="199.96" fill="black" r="2.1333333333333333" />
</g>
<polyline fill="none" points="232.97,199.96 240.67,199.96" stroke-width="1.28" stroke="black" />
<polyline fill="none" points="236.82,201.61 236.82,198.27" stroke-width="1.28" stroke="black" />
<g>
<text dominant-baseline="central" dy="12" fill="#15b01a" font-size="21.333333333333332" stroke="none" text-anchor="middle" x="463.01" y="394.20">C</text>
<text dominant-baseline="central" dy="12" fill="#15b01a" font-size="21.333333333333332" stroke="none" text-anchor="middle" x="547.99" y="424.29">D</text>
<text dominant-baseline="central" dy="12" fill="#15b01a" font-size="21.333333333333332" stroke="none" text-anchor="middle" x="548.19" y="378.55">E</text>
<text dominant-baseline="central" dy="12" fill="#15b01a" font-size="21.333333333333332" stroke="none" text-anchor="middle" x="678.40" y="325.29">F</text>
<text dominant-baseline="central" dy="12" fill="#15b01a" font-size="21.333333333333332" stroke="none" text-anchor="middle" x="700.62" y="368.80">B</text>
<text dominant-baseline="central" dy="12" fill="#15b01a" font-size="21.333333333333332" stroke="none" text-anchor="middle" x="847.82" y="415.46">A</text>
</g>
<g>
<text dominant-baseline="central" dy="12" fill="#f97306" font-size="21.333333333333332" stroke="none" text-anchor="middle" x="394.96" y="635.21">B</text>
<text dominant-baseline="central" dy="12" fill="#f97306" font-size="21.333333333333332" stroke="none" text-anchor="middle" x="494.46" y="684.28">C</text>
<text dominant-baseline="central" dy="12" fill="#f97306" font-size="21.333333333333332" stroke="none" text-anchor="middle" x="630.90" y="516.54">F</text>
<text dominant-baseline="central" dy="12" fill="#f97306" font-size="21.333333333333332" stroke="none" text-anchor="middle" x="647.44" y="521.98">A</text>
<text dominant-baseline="central" dy="12" fill="#f97306" font-size="21.333333333333332" stroke="none" text-anchor="middle" x="712.57" y="593.65">D</text>
<text dominant-baseline="central" dy="12" fill="#f97306" font-size="21.333333333333332" stroke="none" text-anchor="middle" x="730.89" y="509.52">E</text>
</g>
<g>
<text dominant-baseline="central" dy="12" fill="#bf77f6" font-size="21.333333333333332" stroke="none" text-anchor="middle" x="200.31" y="317.34">E</text>
<text dominant-baseline="central" dy="12" fill="#bf77f6" font-size="21.333333333333332" stroke="none" text-anchor="middle" x="202.12" y="349.10">D</text>
<text dominant-baseline="central" dy="12" fill="#bf77f6" font-size="21.333333333333332" stroke="none" text-anchor="middle" x="222.09" y="292.63">F</text>
<text dominant-baseline="central" dy="12" fill="#bf77f6" font-size="21.333333333333332" stroke="none" text-anchor="middle" x="267.81" y="295.34">C</text>
<text dominant-baseline="central" dy="12" fill="#bf77f6" font-size="21.333333333333332" stroke="none" text-anchor="middle" x="300.16" y="125.00">A</text>
<g>
<text dominant-baseline="central" dy="12" fill="#bf77f6" font-size="21.333333333333332" stroke="none" text-anchor="middle" tooltip="too much sample" x="300.29" y="259.28">B</text>
<title>too much sample</title>
</g>
</g>
<g>
<text dominant-baseline="central" dy="12" fill="#cb416b" font-size="21.333333333333332" stroke="none" text-anchor="middle" x="50.00" y="325.33">C</text>
<text dominant-baseline="central" dy="12" fill="#cb416b" font-size="21.333333333333332" stroke="none" text-anchor="middle" x="56.61" y="294.41">D</text>
<text dominant-baseline="central" dy="12" fill="#cb416b" font-size="21.333333333333332" stroke="none" text-anchor="middle" x="92.13" y="251.59">B</text>
<text dominant-baseline="central" dy="12" fill="#cb416b" font-size="21.333333333333332" stroke="none" text-anchor="middle" x="189.29" y="285.13">E</text>
<text dominant-baseline="central" dy="12" fill="#cb416b" font-size="21.333333333333332" stroke="none" text-anchor="middle" x="200.60" y="222.54">A</text>
<text dominant-baseline="central" dy="12" fill="#cb416b" font-size="21.333333333333332" stroke="none" text-anchor="middle" x="236.82" y="199.96">F</text>
</g>
<g stroke="black">
<line x1="151.92" x2="151.92" y1="950.00" y2="960.00" />
<line x1="427.73" x2="427.73" y1="950.00" y2="960.00" />
<line x1="703.55" x2="703.55" y1="950.00" y2="960.00" />
<g fill="black" font-family="Arial, sans-serif" font-size="18.0" stroke="none" text-anchor="start" transform="translate(9.0 0.0)">
<text x="151.92" y="970.57">-7</text>
<text x="427.73" y="970.57">-6</text>
<text x="703.55" y="970.57">-5</text>
</g>
<line x1="50.00" x2="950.00" y1="950.00" y2="950.00" />
</g>
<g stroke="black">
<line x1="50.00" x2="38.00" y1="917.46" y2="917.46" />
<line x1="50.00" x2="38.00" y1="797.03" y2="797.03" />
<line x1="50.00" x2="38.00" y1="676.60" y2="676.60" />
<line x1="50.00" x2="38.00" y1="556.18" y2="556.18" />
<line x1="50.00" x2="38.00" y1="435.75" y2="435.75" />
<line x1="50.00" x2="38.00" y1="315.32" y2="315.32" />
<line x1="50.00" x2="38.00" y1="194.89" y2="194.89" />
<line x1="50.00" x2="38.00" y1="74.47" y2="74.47" />
<g fill="black" font-family="Arial, sans-serif" font-size="18.0" stroke="none" text-anchor="end">
<text x="41.00" y="908.46">-12</text>
<text x="41.00" y="788.03">-11</text>
<text x="41.00" y="667.60">-10</text>
<text x="41.00" y="547.18">-9</text>
<text x="41.00" y="426.75">-8</text>
<text x="41.00" y="306.32">-7</text>
<text x="41.00" y="185.89">-6</text>
<text x="41.00" y="65.47">-5</text>
</g>
<line x1="50.00" x2="50.00" y1="950.00" y2="50.00" />
</g>
</g>
</svg>
</g>
</g>
</g>
</g>
</svg>