<?xml version="1.0"?>
<svg version="1.1" viewBox="0 0 500 500" xmlns:xlink="http://www.w3.org/1999/xlink" xmlns="http://www.w3.org/2000/svg">
<g>
<g stroke-dasharray="3.6 7.2" stroke-width="0.72" stroke="#caa">
<line x1="62.50" x2="62.50" y1="475.00" y2="25.00" />
<line x1="137.50" x2="137.50" y1="475.00" y2="25.00" />
<line x1="212.50" x2="212.50" y1="475.00" y2="25.00" />
<line x1="287.50" x2="287.50" y1="475.00" y2="25.00" />
<line x1="362.50" x2="362.50" y1="475.00" y2="25.00" />
<line x1="437.50" x2="437.50" y1="475.00" y2="25.00" />
<line x1="25.00" x2="475.00" y1="455.03" y2="455.03" />
<line x1="25.00" x2="475.00" y1="405.30" y2="405.30" />
<line x1="25.00" x2="475.00" y1="355.58" y2="355.58" />
<line x1="25.00" x2="475.00" y1="305.85" y2="305.85" />
<line x1="25.00" x2="475.00" y1="256.12" y2="256.12" />
<line x1="25.00" x2="475.00" y1="206.39" y2="206.39" />
<line x1="25.00" x2="475.00" y1="156.66" y2="156.66" />
<line x1="25.00" x2="475.00" y1="106.93" y2="106.93" />
<line x1="25.00" x2="475.00" y1="57.21" y2="57.21" />
</g>
<g>
<text dominant-baseline="hanging" dx="-36.0" dy="18.0" fill="#0004" font-family="Arial, sans-serif" font-size="36" stroke="none" text-anchor="end" x="475.00" y="62.50">TH</text>
</g>
<g>
<text dominant-baseline="text-bottom" dy="-12.0" fill="black" font-family="Arial, sans-serif" font-size="18.0" font-style="italic" stroke="none" text-anchor="middle" x="250.00" y="25.00">Relative Positions</text>
</g>
<g>
<text dominant-baseline="hanging" dx="18.0" dy="18.0" fill="black" font-family="Arial, sans-serif" font-size="18.0" font-style="italic" stroke="none" text-anchor="beginning" text-orientation="sideways" x="25.00" y="25.00">d-Carbon</text>
</g>
<polyline fill="none" points="62.50,345.43 137.50,389.82 212.50,426.01 287.50,437.50 362.50,357.98 437.50,327.62" stroke-dasharray="3.2 3.2" stroke-width="3.2" stroke="#aaa" />
<polyline fill="none" points="62.50,235.15 137.50,257.20 212.50,293.28 287.50,281.02 362.50,266.83 437.50,241.90" stroke-dasharray="3.2 3.2" stroke-width="3.2" stroke="#aaa" />
<polyline fill="none" points="62.50,237.31 137.50,255.17 212.50,267.32 287.50,270.23 362.50,275.16 437.50,265.76" stroke-dasharray="3.2 3.2" stroke-width="3.2" stroke="#aaa" />
<g>
<text dominant-baseline="central" fill="#15b01a" font-size="21.333333333333332" stroke="none" text-anchor="middle" x="62.50" y="345.43">A</text>
<text dominant-baseline="central" fill="#15b01a" font-size="21.333333333333332" stroke="none" text-anchor="middle" x="137.50" y="389.82">B</text>
<text dominant-baseline="central" fill="#15b01a" font-size="21.333333333333332" stroke="none" text-anchor="middle" x="212.50" y="426.01">C</text>
<text dominant-baseline="central" fill="#15b01a" font-size="21.333333333333332" stroke="none" text-anchor="middle" x="287.50" y="437.50">D</text>
<text dominant-baseline="central" fill="#15b01a" font-size="21.333333333333332" stroke="none" text-anchor="middle" x="362.50" y="357.98">E</text>
<text dominant-baseline="central" fill="#15b01a" font-size="21.333333333333332" stroke="none" text-anchor="middle" x="437.50" y="327.62">F</text>
</g>
<g>
<text dominant-baseline="central" fill="#f97306" font-size="21.333333333333332" stroke="none" text-anchor="middle" x="62.50" y="235.15">A</text>
<text dominant-baseline="central" fill="#f97306" font-size="21.333333333333332" stroke="none" text-anchor="middle" x="137.50" y="257.20">B</text>
<text dominant-baseline="central" fill="#f97306" font-size="21.333333333333332" stroke="none" text-anchor="middle" x="212.50" y="293.28">C</text>
<text dominant-baseline="central" fill="#f97306" font-size="21.333333333333332" stroke="none" text-anchor="middle" x="287.50" y="281.02">D</text>
<text dominant-baseline="central" fill="#f97306" font-size="21.333333333333332" stroke="none" text-anchor="middle" x="362.50" y="266.83">E</text>
<text dominant-baseline="central" fill="#f97306" font-size="21.333333333333332" stroke="none" text-anchor="middle" x="437.50" y="241.90">F</text>
</g>
<g>
<text dominant-baseline="central" fill="#bf77f6" font-size="21.333333333333332" stroke="none" text-anchor="middle" x="62.50" y="237.31">A</text>
<text dominant-baseline="central" fill="#bf77f6" font-size="21.333333333333332" stroke="none" text-anchor="middle" x="137.50" y="255.17">B</text>
<text dominant-baseline="central" fill="#bf77f6" font-size="21.333333333333332" stroke="none" text-anchor="middle" x="212.50" y="267.32">C</text>
<text dominant-baseline="central" fill="#bf77f6" font-size="21.333333333333332" stroke="none" text-anchor="middle" x="287.50" y="270.23">D</text>
<text dominant-baseline="central" fill="#bf77f6" font-size="21.333333333333332" stroke="none" text-anchor="middle" x="362.50" y="275.16">E</text>
<text dominant-baseline="central" fill="#bf77f6" font-size="21.333333333333332" stroke="none" text-anchor="middle" x="437.50" y="265.76">F</text>
</g>
<g stroke="black">
<line x1="62.50" x2="62.50" y1="475.00" y2="485.00" />
<line x1="137.50" x2="137.50" y1="475.00" y2="485.00" />
<line x1="212.50" x2="212.50" y1="475.00" y2="485.00" />
<line x1="287.50" x2="287.50" y1="475.00" y2="485.00" />
<line x1="362.50" x2="362.50" y1="475.00" y2="485.00" />
<line x1="437.50" x2="437.50" y1="475.00" y2="485.00" />
<g fill="black" font-family="Arial, sans-serif" font-size="18.0" stroke="none" text-anchor="start" transform="translate(9.0 0.0)">
<text x="62.50" y="495.57">0</text>
<text x="137.50" y="495.57">1</text>
<text x="212.50" y="495.57">2</text>
<text x="287.50" y="495.57">3</text>
<text x="362.50" y="495.57">4</text>
<text x="437.50" y="495.57">5</text>
</g>
<line x1="25.00" x2="475.00" y1="475.00" y2="475.00" />
</g>
<g stroke="black">
<line x1="25.00" x2="13.00" y1="455.03" y2="455.03" />
<line x1="25.00" x2="13.00" y1="405.30" y2="405.30" />
<line x1="25.00" x2="13.00" y1="355.58" y2="355.58" />
<line x1="25.00" x2="13.00" y1="305.85" y2="305.85" />
<line x1="25.00" x2="13.00" y1="256.12" y2="256.12" />
<line x1="25.00" x2="13.00" y1="206.39" y2="206.39" />
<line x1="25.00" x2="13.00" y1="156.66" y2="156.66" />
<line x1="25.00" x2="13.00" y1="106.93" y2="106.93" />
<line x1="25.00" x2="13.00" y1="57.21" y2="57.21" />
<g fill="black" font-family="Arial, sans-serif" font-size="18.0" stroke="none" text-anchor="end">
<text x="16.00" y="446.03">-12</text>
<text x="16.00" y="396.30">-11</text>
<text x="16.00" y="346.58">-10</text>
<text x="16.00" y="296.85">-9</text>
<text x="16.00" y="247.12">-8</text>
<text x="16.00" y="197.39">-7</text>
<text x="16.00" y="147.66">-6</text>
<text x="16.00" y="97.93">-5</text>
<text x="16.00" y="48.21">-4</text>
</g>
<line x1="25.00" x2="25.00" y1="475.00" y2="25.00" />
</g>
</g>
</svg>