<?xml version="1.0"?>
<svg height="1000" version="1.1" viewBox="0 0 1500 1000" width="1500" xmlns:xlink="http://www.w3.org/1999/xlink" xmlns="http://www.w3.org/2000/svg">
<g>
<g transform="matrix(1.00,0.00,0.00,1.00,0.00,0.00)">
<g>
<g transform="matrix(1.00,0.00,0.00,1.00,0.00,0.00)">
<svg height="1000" version="1.1" viewBox="0 0 500 1000" width="500" xmlns:xlink="http://www.w3.org/1999/xlink" xmlns="http://www.w3.org/2000/svg">
<g>
<g transform="matrix(1.00,0.00,0.00,1.00,0.00,0.00)">
<g>
<g transform="matrix(1.00,0.00,0.00,1.00,0.00,0.00)">
<svg height="500" version="1.1" viewBox="0 0 500 500" width="500" xmlns:xlink="http://www.w3.org/1999/xlink" xmlns="http://www.w3.org/2000/svg">
<g>
<g stroke-dasharray="3.6 7.2" stroke-width="0.72" stroke="#caa">
<line x1="62.50" x2="62.50" y1="475.00" y2="25.00" />
<line x1="137.50" x2="137.50" y1="475.00" y2="25.00" />
<line x1="212.50" x2="212.50" y1="475.00" y2="25.00" />
<line x1="287.50" x2="287.50" y1="475.00" y2="25.00" />
<line x1="362.50" x2="362.50" y1="475.00" y2="25.00" />
<line x1="437.50" x2="437.50" y1="475.00" y2="25.00" />
<line x1="25.00" x2="475.00" y1="395.03" y2="395.03" />
<line x1="25.00" x2="475.00" y1="280.11" y2="280.11" />
<line x1="25.00" x2="475.00" y1="165.19" y2="165.19" />
<line x1="25.00" x2="475.00" y1="50.27" y2="50.27" />
</g>
<g>
<text dominant-baseline="hanging" dx="-36.0" dy="18.0" fill="#0004" font-family="Arial, sans-serif" font-size="36" stroke="none" text-anchor="end" x="475.00" y="62.50">TH</text>
</g>
<g>
<text dominant-baseline="text-bottom" dy="0" fill="black" font-family="Arial, sans-serif" font-size="18.0" font-style="italic" stroke="none" text-anchor="middle" x="250.00" y="25.00">Relative Positions</text>
</g>
<g>
<text dominant-baseline="hanging" dx="18.0" dy="18.0" fill="black" font-family="Arial, sans-serif" font-size="18.0" font-style="italic" stroke="none" text-anchor="beginning" text-orientation="sideways" x="25.00" y="25.00">d-Oxygen</text>
</g>
<polyline fill="none" points="62.50,196.30 137.50,197.08 212.50,276.32 287.50,263.61 362.50,191.45 437.50,179.73" stroke-dasharray="3.2 3.2" stroke-width="3.2" stroke="#aaa" />
<polyline fill="none" points="62.50,173.01 137.50,178.14 212.50,174.78 287.50,205.69 362.50,201.82 437.50,180.16" stroke-dasharray="3.2 3.2" stroke-width="3.2" stroke="#aaa" />
<polyline fill="none" points="62.50,142.42 137.50,179.24 212.50,213.41 287.50,220.50 362.50,244.03 437.50,193.87" stroke-dasharray="3.2 3.2" stroke-width="3.2" stroke="#aaa" />
<g>
<circle cx="62.50" cy="196.30" fill="black" r="2.1333333333333333" />
<circle cx="137.50" cy="197.08" fill="black" r="2.1333333333333333" />
<circle cx="212.50" cy="276.32" fill="black" r="2.1333333333333333" />
<circle cx="287.50" cy="263.61" fill="black" r="2.1333333333333333" />
<circle cx="362.50" cy="191.45" fill="black" r="2.1333333333333333" />
<circle cx="437.50" cy="179.73" fill="black" r="2.1333333333333333" />
</g>
<polyline fill="none" points="62.50,199.28 62.50,193.32" stroke-width="1.28" stroke="black" />
<g>
<circle cx="62.50" cy="196.30" fill="black" r="2.1333333333333333" />
<circle cx="137.50" cy="197.08" fill="black" r="2.1333333333333333" />
<circle cx="212.50" cy="276.32" fill="black" r="2.1333333333333333" />
<circle cx="287.50" cy="263.61" fill="black" r="2.1333333333333333" />
<circle cx="362.50" cy="191.45" fill="black" r="2.1333333333333333" />
<circle cx="437.50" cy="179.73" fill="black" r="2.1333333333333333" />
</g>
<polyline fill="none" points="137.50,199.80 137.50,194.37" stroke-width="1.28" stroke="black" />
<g>
<circle cx="62.50" cy="196.30" fill="black" r="2.1333333333333333" />
<circle cx="137.50" cy="197.08" fill="black" r="2.1333333333333333" />
<circle cx="212.50" cy="276.32" fill="black" r="2.1333333333333333" />
<circle cx="287.50" cy="263.61" fill="black" r="2.1333333333333333" />
<circle cx="362.50" cy="191.45" fill="black" r="2.1333333333333333" />
<circle cx="437.50" cy="179.73" fill="black" r="2.1333333333333333" />
</g>
<polyline fill="none" points="212.50,278.94 212.50,273.69" stroke-width="1.28" stroke="black" />
<g>
<circle cx="62.50" cy="196.30" fill="black" r="2.1333333333333333" />
<circle cx="137.50" cy="197.08" fill="black" r="2.1333333333333333" />
<circle cx="212.50" cy="276.32" fill="black" r="2.1333333333333333" />
<circle cx="287.50" cy="263.61" fill="black" r="2.1333333333333333" />
<circle cx="362.50" cy="191.45" fill="black" r="2.1333333333333333" />
<circle cx="437.50" cy="179.73" fill="black" r="2.1333333333333333" />
</g>
<polyline fill="none" points="287.50,266.22 287.50,261.00" stroke-width="1.28" stroke="black" />
<g>
<circle cx="62.50" cy="196.30" fill="black" r="2.1333333333333333" />
<circle cx="137.50" cy="197.08" fill="black" r="2.1333333333333333" />
<circle cx="212.50" cy="276.32" fill="black" r="2.1333333333333333" />
<circle cx="287.50" cy="263.61" fill="black" r="2.1333333333333333" />
<circle cx="362.50" cy="191.45" fill="black" r="2.1333333333333333" />
<circle cx="437.50" cy="179.73" fill="black" r="2.1333333333333333" />
</g>
<polyline fill="none" points="362.50,193.37 362.50,189.53" stroke-width="1.28" stroke="black" />
<g>
<circle cx="62.50" cy="196.30" fill="black" r="2.1333333333333333" />
<circle cx="137.50" cy="197.08" fill="black" r="2.1333333333333333" />
<circle cx="212.50" cy="276.32" fill="black" r="2.1333333333333333" />
<circle cx="287.50" cy="263.61" fill="black" r="2.1333333333333333" />
<circle cx="362.50" cy="191.45" fill="black" r="2.1333333333333333" />
<circle cx="437.50" cy="179.73" fill="black" r="2.1333333333333333" />
</g>
<polyline fill="none" points="437.50,181.80 437.50,177.66" stroke-width="1.28" stroke="black" />
<g>
<circle cx="62.50" cy="173.01" fill="black" r="2.1333333333333333" />
<circle cx="137.50" cy="178.14" fill="black" r="2.1333333333333333" />
<circle cx="212.50" cy="174.78" fill="black" r="2.1333333333333333" />
<circle cx="287.50" cy="205.69" fill="black" r="2.1333333333333333" />
<circle cx="362.50" cy="201.82" fill="black" r="2.1333333333333333" />
<circle cx="437.50" cy="180.16" fill="black" r="2.1333333333333333" />
</g>
<polyline fill="none" points="62.50,174.81 62.50,171.21" stroke-width="1.28" stroke="black" />
<g>
<circle cx="62.50" cy="173.01" fill="black" r="2.1333333333333333" />
<circle cx="137.50" cy="178.14" fill="black" r="2.1333333333333333" />
<circle cx="212.50" cy="174.78" fill="black" r="2.1333333333333333" />
<circle cx="287.50" cy="205.69" fill="black" r="2.1333333333333333" />
<circle cx="362.50" cy="201.82" fill="black" r="2.1333333333333333" />
<circle cx="437.50" cy="180.16" fill="black" r="2.1333333333333333" />
</g>
<polyline fill="none" points="137.50,180.18 137.50,176.11" stroke-width="1.28" stroke="black" />
<g>
<circle cx="62.50" cy="173.01" fill="black" r="2.1333333333333333" />
<circle cx="137.50" cy="178.14" fill="black" r="2.1333333333333333" />
<circle cx="212.50" cy="174.78" fill="black" r="2.1333333333333333" />
<circle cx="287.50" cy="205.69" fill="black" r="2.1333333333333333" />
<circle cx="362.50" cy="201.82" fill="black" r="2.1333333333333333" />
<circle cx="437.50" cy="180.16" fill="black" r="2.1333333333333333" />
</g>
<polyline fill="none" points="212.50,176.56 212.50,173.00" stroke-width="1.28" stroke="black" />
<g>
<circle cx="62.50" cy="173.01" fill="black" r="2.1333333333333333" />
<circle cx="137.50" cy="178.14" fill="black" r="2.1333333333333333" />
<circle cx="212.50" cy="174.78" fill="black" r="2.1333333333333333" />
<circle cx="287.50" cy="205.69" fill="black" r="2.1333333333333333" />
<circle cx="362.50" cy="201.82" fill="black" r="2.1333333333333333" />
<circle cx="437.50" cy="180.16" fill="black" r="2.1333333333333333" />
</g>
<polyline fill="none" points="287.50,207.98 287.50,203.40" stroke-width="1.28" stroke="black" />
<g>
<circle cx="62.50" cy="173.01" fill="black" r="2.1333333333333333" />
<circle cx="137.50" cy="178.14" fill="black" r="2.1333333333333333" />
<circle cx="212.50" cy="174.78" fill="black" r="2.1333333333333333" />
<circle cx="287.50" cy="205.69" fill="black" r="2.1333333333333333" />
<circle cx="362.50" cy="201.82" fill="black" r="2.1333333333333333" />
<circle cx="437.50" cy="180.16" fill="black" r="2.1333333333333333" />
</g>
<polyline fill="none" points="362.50,204.30 362.50,199.34" stroke-width="1.28" stroke="black" />
<g>
<circle cx="62.50" cy="173.01" fill="black" r="2.1333333333333333" />
<circle cx="137.50" cy="178.14" fill="black" r="2.1333333333333333" />
<circle cx="212.50" cy="174.78" fill="black" r="2.1333333333333333" />
<circle cx="287.50" cy="205.69" fill="black" r="2.1333333333333333" />
<circle cx="362.50" cy="201.82" fill="black" r="2.1333333333333333" />
<circle cx="437.50" cy="180.16" fill="black" r="2.1333333333333333" />
</g>
<polyline fill="none" points="437.50,181.97 437.50,178.35" stroke-width="1.28" stroke="black" />
<g>
<circle cx="62.50" cy="142.42" fill="black" r="2.1333333333333333" />
<circle cx="137.50" cy="179.24" fill="black" r="2.1333333333333333" />
<circle cx="212.50" cy="213.41" fill="black" r="2.1333333333333333" />
<circle cx="287.50" cy="220.50" fill="black" r="2.1333333333333333" />
<circle cx="362.50" cy="244.03" fill="black" r="2.1333333333333333" />
<circle cx="437.50" cy="193.87" fill="black" r="2.1333333333333333" />
</g>
<polyline fill="none" points="62.50,144.45 62.50,140.40" stroke-width="1.28" stroke="black" />
<g>
<circle cx="62.50" cy="142.42" fill="black" r="2.1333333333333333" />
<circle cx="137.50" cy="179.24" fill="black" r="2.1333333333333333" />
<circle cx="212.50" cy="213.41" fill="black" r="2.1333333333333333" />
<circle cx="287.50" cy="220.50" fill="black" r="2.1333333333333333" />
<circle cx="362.50" cy="244.03" fill="black" r="2.1333333333333333" />
<circle cx="437.50" cy="193.87" fill="black" r="2.1333333333333333" />
</g>
<polyline fill="none" points="137.50,181.82 137.50,176.66" stroke-width="1.28" stroke="black" />
<g>
<circle cx="62.50" cy="142.42" fill="black" r="2.1333333333333333" />
<circle cx="137.50" cy="179.24" fill="black" r="2.1333333333333333" />
<circle cx="212.50" cy="213.41" fill="black" r="2.1333333333333333" />
<circle cx="287.50" cy="220.50" fill="black" r="2.1333333333333333" />
<circle cx="362.50" cy="244.03" fill="black" r="2.1333333333333333" />
<circle cx="437.50" cy="193.87" fill="black" r="2.1333333333333333" />
</g>
<polyline fill="none" points="212.50,216.25 212.50,210.57" stroke-width="1.28" stroke="black" />
<g>
<circle cx="62.50" cy="142.42" fill="black" r="2.1333333333333333" />
<circle cx="137.50" cy="179.24" fill="black" r="2.1333333333333333" />
<circle cx="212.50" cy="213.41" fill="black" r="2.1333333333333333" />
<circle cx="287.50" cy="220.50" fill="black" r="2.1333333333333333" />
<circle cx="362.50" cy="244.03" fill="black" r="2.1333333333333333" />
<circle cx="437.50" cy="193.87" fill="black" r="2.1333333333333333" />
</g>
<polyline fill="none" points="287.50,222.95 287.50,218.05" stroke-width="1.28" stroke="black" />
<g>
<circle cx="62.50" cy="142.42" fill="black" r="2.1333333333333333" />
<circle cx="137.50" cy="179.24" fill="black" r="2.1333333333333333" />
<circle cx="212.50" cy="213.41" fill="black" r="2.1333333333333333" />
<circle cx="287.50" cy="220.50" fill="black" r="2.1333333333333333" />
<circle cx="362.50" cy="244.03" fill="black" r="2.1333333333333333" />
<circle cx="437.50" cy="193.87" fill="black" r="2.1333333333333333" />
</g>
<polyline fill="none" points="362.50,247.13 362.50,240.94" stroke-width="1.28" stroke="black" />
<g>
<circle cx="62.50" cy="142.42" fill="black" r="2.1333333333333333" />
<circle cx="137.50" cy="179.24" fill="black" r="2.1333333333333333" />
<circle cx="212.50" cy="213.41" fill="black" r="2.1333333333333333" />
<circle cx="287.50" cy="220.50" fill="black" r="2.1333333333333333" />
<circle cx="362.50" cy="244.03" fill="black" r="2.1333333333333333" />
<circle cx="437.50" cy="193.87" fill="black" r="2.1333333333333333" />
</g>
<polyline fill="none" points="437.50,197.43 437.50,190.32" stroke-width="1.28" stroke="black" />
<g>
<text dominant-baseline="hanging" fill="#15b01a" font-size="21.333333333333332" stroke="none" text-anchor="start" x="62.50" y="196.30">A</text>
<text dominant-baseline="hanging" fill="#15b01a" font-size="21.333333333333332" stroke="none" text-anchor="start" x="137.50" y="197.08">B</text>
<text dominant-baseline="hanging" fill="#15b01a" font-size="21.333333333333332" stroke="none" text-anchor="start" x="212.50" y="276.32">C</text>
<text dominant-baseline="hanging" fill="#15b01a" font-size="21.333333333333332" stroke="none" text-anchor="start" x="287.50" y="263.61">D</text>
<text dominant-baseline="hanging" fill="#15b01a" font-size="21.333333333333332" stroke="none" text-anchor="start" x="362.50" y="191.45">E</text>
<text dominant-baseline="hanging" fill="#15b01a" font-size="21.333333333333332" stroke="none" text-anchor="start" x="437.50" y="179.73">F</text>
</g>
<g>
<text dominant-baseline="hanging" fill="#f97306" font-size="21.333333333333332" stroke="none" text-anchor="start" x="62.50" y="173.01">A</text>
<text dominant-baseline="hanging" fill="#f97306" font-size="21.333333333333332" stroke="none" text-anchor="start" x="137.50" y="178.14">B</text>
<text dominant-baseline="hanging" fill="#f97306" font-size="21.333333333333332" stroke="none" text-anchor="start" x="212.50" y="174.78">C</text>
<text dominant-baseline="hanging" fill="#f97306" font-size="21.333333333333332" stroke="none" text-anchor="start" x="287.50" y="205.69">D</text>
<text dominant-baseline="hanging" fill="#f97306" font-size="21.333333333333332" stroke="none" text-anchor="start" x="362.50" y="201.82">E</text>
<text dominant-baseline="hanging" fill="#f97306" font-size="21.333333333333332" stroke="none" text-anchor="start" x="437.50" y="180.16">F</text>
</g>
<g>
<text dominant-baseline="hanging" fill="#bf77f6" font-size="21.333333333333332" stroke="none" text-anchor="start" x="62.50" y="142.42">A</text>
<text dominant-baseline="hanging" fill="#bf77f6" font-size="21.333333333333332" stroke="none" text-anchor="start" x="137.50" y="179.24">B</text>
<text dominant-baseline="hanging" fill="#bf77f6" font-size="21.333333333333332" stroke="none" text-anchor="start" x="212.50" y="213.41">C</text>
<text dominant-baseline="hanging" fill="#bf77f6" font-size="21.333333333333332" stroke="none" text-anchor="start" x="287.50" y="220.50">D</text>
<text dominant-baseline="hanging" fill="#bf77f6" font-size="21.333333333333332" stroke="none" text-anchor="start" x="362.50" y="244.03">E</text>
<text dominant-baseline="hanging" fill="#bf77f6" font-size="21.333333333333332" stroke="none" text-anchor="start" x="437.50" y="193.87">F</text>
</g>
<g stroke="black">
<line x1="62.50" x2="62.50" y1="475.00" y2="485.00" />
<line x1="137.50" x2="137.50" y1="475.00" y2="485.00" />
<line x1="212.50" x2="212.50" y1="475.00" y2="485.00" />
<line x1="287.50" x2="287.50" y1="475.00" y2="485.00" />
<line x1="362.50" x2="362.50" y1="475.00" y2="485.00" />
<line x1="437.50" x2="437.50" y1="475.00" y2="485.00" />
<g fill="black" font-family="Arial, sans-serif" font-size="18.0" stroke="none" text-anchor="start" transform="translate(9.0 0.0)">
<text x="62.50" y="495.57">0</text>
<text x="137.50" y="495.57">1</text>
<text x="212.50" y="495.57">2</text>
<text x="287.50" y="495.57">3</text>
<text x="362.50" y="495.57">4</text>
<text x="437.50" y="495.57">5</text>
</g>
<line x1="25.00" x2="475.00" y1="475.00" y2="475.00" />
</g>
<g stroke="black">
<line x1="25.00" x2="13.00" y1="395.03" y2="395.03" />
<line x1="25.00" x2="13.00" y1="280.11" y2="280.11" />
<line x1="25.00" x2="13.00" y1="165.19" y2="165.19" />
<line x1="25.00" x2="13.00" y1="50.27" y2="50.27" />
<g fill="black" font-family="Arial, sans-serif" font-size="18.0" stroke="none" text-anchor="end">
<text x="16.00" y="386.03">-7</text>
<text x="16.00" y="271.11">-6</text>
<text x="16.00" y="156.19">-5</text>
<text x="16.00" y="41.27">-4</text>
</g>
<line x1="25.00" x2="25.00" y1="475.00" y2="25.00" />
</g>
</g>
</svg>
</g>
</g>
</g>
<g transform="matrix(1.00,0.00,0.00,1.00,0.00,500.00)">
<g>
<g transform="matrix(1.00,0.00,0.00,1.00,0.00,0.00)">
<svg height="500" version="1.1" viewBox="0 0 500 500" width="500" xmlns:xlink="http://www.w3.org/1999/xlink" xmlns="http://www.w3.org/2000/svg">
<g>
<g stroke-dasharray="3.6 7.2" stroke-width="0.72" stroke="#caa">
<line x1="62.50" x2="62.50" y1="475.00" y2="25.00" />
<line x1="137.50" x2="137.50" y1="475.00" y2="25.00" />
<line x1="212.50" x2="212.50" y1="475.00" y2="25.00" />
<line x1="287.50" x2="287.50" y1="475.00" y2="25.00" />
<line x1="362.50" x2="362.50" y1="475.00" y2="25.00" />
<line x1="437.50" x2="437.50" y1="475.00" y2="25.00" />
<line x1="25.00" x2="475.00" y1="458.73" y2="458.73" />
<line x1="25.00" x2="475.00" y1="398.52" y2="398.52" />
<line x1="25.00" x2="475.00" y1="338.30" y2="338.30" />
<line x1="25.00" x2="475.00" y1="278.09" y2="278.09" />
<line x1="25.00" x2="475.00" y1="217.87" y2="217.87" />
<line x1="25.00" x2="475.00" y1="157.66" y2="157.66" />
<line x1="25.00" x2="475.00" y1="97.45" y2="97.45" />
<line x1="25.00" x2="475.00" y1="37.23" y2="37.23" />
</g>
<g>
<text dominant-baseline="hanging" dx="-36.0" dy="18.0" fill="#0004" font-family="Arial, sans-serif" font-size="36" stroke="none" text-anchor="end" x="475.00" y="62.50">TH</text>
</g>
<g>
<text dominant-baseline="text-bottom" dy="0" fill="black" font-family="Arial, sans-serif" font-size="18.0" font-style="italic" stroke="none" text-anchor="middle" x="250.00" y="25.00">Relative Positions</text>
</g>
<g>
<text dominant-baseline="hanging" dx="18.0" dy="18.0" fill="black" font-family="Arial, sans-serif" font-size="18.0" font-style="italic" stroke="none" text-anchor="beginning" text-orientation="sideways" x="25.00" y="25.00">d-Carbon</text>
</g>
<polyline fill="none" points="62.50,326.01 137.50,379.77 212.50,423.58 287.50,437.50 362.50,341.22 437.50,304.45" stroke-dasharray="3.2 3.2" stroke-width="3.2" stroke="#aaa" />
<polyline fill="none" points="62.50,192.48 137.50,219.18 212.50,262.87 287.50,248.02 362.50,230.85 437.50,200.66" stroke-dasharray="3.2 3.2" stroke-width="3.2" stroke="#aaa" />
<polyline fill="none" points="62.50,195.10 137.50,216.73 212.50,231.43 287.50,234.96 362.50,240.93 437.50,229.55" stroke-dasharray="3.2 3.2" stroke-width="3.2" stroke="#aaa" />
<g>
<circle cx="62.50" cy="326.01" fill="black" r="2.1333333333333333" />
<circle cx="137.50" cy="379.77" fill="black" r="2.1333333333333333" />
<circle cx="212.50" cy="423.58" fill="black" r="2.1333333333333333" />
<circle cx="287.50" cy="437.50" fill="black" r="2.1333333333333333" />
<circle cx="362.50" cy="341.22" fill="black" r="2.1333333333333333" />
<circle cx="437.50" cy="304.45" fill="black" r="2.1333333333333333" />
</g>
<polyline fill="none" points="62.50,326.91 62.50,325.12" stroke-width="1.28" stroke="black" />
<g>
<circle cx="62.50" cy="326.01" fill="black" r="2.1333333333333333" />
<circle cx="137.50" cy="379.77" fill="black" r="2.1333333333333333" />
<circle cx="212.50" cy="423.58" fill="black" r="2.1333333333333333" />
<circle cx="287.50" cy="437.50" fill="black" r="2.1333333333333333" />
<circle cx="362.50" cy="341.22" fill="black" r="2.1333333333333333" />
<circle cx="437.50" cy="304.45" fill="black" r="2.1333333333333333" />
</g>
<polyline fill="none" points="137.50,380.85 137.50,378.69" stroke-width="1.28" stroke="black" />
<g>
<circle cx="62.50" cy="326.01" fill="black" r="2.1333333333333333" />
<circle cx="137.50" cy="379.77" fill="black" r="2.1333333333333333" />
<circle cx="212.50" cy="423.58" fill="black" r="2.1333333333333333" />
<circle cx="287.50" cy="437.50" fill="black" r="2.1333333333333333" />
<circle cx="362.50" cy="341.22" fill="black" r="2.1333333333333333" />
<circle cx="437.50" cy="304.45" fill="black" r="2.1333333333333333" />
</g>
<polyline fill="none" points="212.50,424.53 212.50,422.64" stroke-width="1.28" stroke="black" />
<g>
<circle cx="62.50" cy="326.01" fill="black" r="2.1333333333333333" />
<circle cx="137.50" cy="379.77" fill="black" r="2.1333333333333333" />
<circle cx="212.50" cy="423.58" fill="black" r="2.1333333333333333" />
<circle cx="287.50" cy="437.50" fill="black" r="2.1333333333333333" />
<circle cx="362.50" cy="341.22" fill="black" r="2.1333333333333333" />
<circle cx="437.50" cy="304.45" fill="black" r="2.1333333333333333" />
</g>
<polyline fill="none" points="287.50,438.11 287.50,436.89" stroke-width="1.28" stroke="black" />
<g>
<circle cx="62.50" cy="326.01" fill="black" r="2.1333333333333333" />
<circle cx="137.50" cy="379.77" fill="black" r="2.1333333333333333" />
<circle cx="212.50" cy="423.58" fill="black" r="2.1333333333333333" />
<circle cx="287.50" cy="437.50" fill="black" r="2.1333333333333333" />
<circle cx="362.50" cy="341.22" fill="black" r="2.1333333333333333" />
<circle cx="437.50" cy="304.45" fill="black" r="2.1333333333333333" />
</g>
<polyline fill="none" points="362.50,341.74 362.50,340.69" stroke-width="1.28" stroke="black" />
<g>
<circle cx="62.50" cy="326.01" fill="black" r="2.1333333333333333" />
<circle cx="137.50" cy="379.77" fill="black" r="2.1333333333333333" />
<circle cx="212.50" cy="423.58" fill="black" r="2.1333333333333333" />
<circle cx="287.50" cy="437.50" fill="black" r="2.1333333333333333" />
<circle cx="362.50" cy="341.22" fill="black" r="2.1333333333333333" />
<circle cx="437.50" cy="304.45" fill="black" r="2.1333333333333333" />
</g>
<polyline fill="none" points="437.50,305.05 437.50,303.84" stroke-width="1.28" stroke="black" />
<g>
<circle cx="62.50" cy="192.48" fill="black" r="2.1333333333333333" />
<circle cx="137.50" cy="219.18" fill="black" r="2.1333333333333333" />
<circle cx="212.50" cy="262.87" fill="black" r="2.1333333333333333" />
<circle cx="287.50" cy="248.02" fill="black" r="2.1333333333333333" />
<circle cx="362.50" cy="230.85" fill="black" r="2.1333333333333333" />
<circle cx="437.50" cy="200.66" fill="black" r="2.1333333333333333" />
</g>
<polyline fill="none" points="62.50,193.54 62.50,191.42" stroke-width="1.28" stroke="black" />
<g>
<circle cx="62.50" cy="192.48" fill="black" r="2.1333333333333333" />
<circle cx="137.50" cy="219.18" fill="black" r="2.1333333333333333" />
<circle cx="212.50" cy="262.87" fill="black" r="2.1333333333333333" />
<circle cx="287.50" cy="248.02" fill="black" r="2.1333333333333333" />
<circle cx="362.50" cy="230.85" fill="black" r="2.1333333333333333" />
<circle cx="437.50" cy="200.66" fill="black" r="2.1333333333333333" />
</g>
<polyline fill="none" points="137.50,219.89 137.50,218.47" stroke-width="1.28" stroke="black" />
<g>
<circle cx="62.50" cy="192.48" fill="black" r="2.1333333333333333" />
<circle cx="137.50" cy="219.18" fill="black" r="2.1333333333333333" />
<circle cx="212.50" cy="262.87" fill="black" r="2.1333333333333333" />
<circle cx="287.50" cy="248.02" fill="black" r="2.1333333333333333" />
<circle cx="362.50" cy="230.85" fill="black" r="2.1333333333333333" />
<circle cx="437.50" cy="200.66" fill="black" r="2.1333333333333333" />
</g>
<polyline fill="none" points="212.50,263.48 212.50,262.26" stroke-width="1.28" stroke="black" />
<g>
<circle cx="62.50" cy="192.48" fill="black" r="2.1333333333333333" />
<circle cx="137.50" cy="219.18" fill="black" r="2.1333333333333333" />
<circle cx="212.50" cy="262.87" fill="black" r="2.1333333333333333" />
<circle cx="287.50" cy="248.02" fill="black" r="2.1333333333333333" />
<circle cx="362.50" cy="230.85" fill="black" r="2.1333333333333333" />
<circle cx="437.50" cy="200.66" fill="black" r="2.1333333333333333" />
</g>
<polyline fill="none" points="287.50,248.97 287.50,247.08" stroke-width="1.28" stroke="black" />
<g>
<circle cx="62.50" cy="192.48" fill="black" r="2.1333333333333333" />
<circle cx="137.50" cy="219.18" fill="black" r="2.1333333333333333" />
<circle cx="212.50" cy="262.87" fill="black" r="2.1333333333333333" />
<circle cx="287.50" cy="248.02" fill="black" r="2.1333333333333333" />
<circle cx="362.50" cy="230.85" fill="black" r="2.1333333333333333" />
<circle cx="437.50" cy="200.66" fill="black" r="2.1333333333333333" />
</g>
<polyline fill="none" points="362.50,231.56 362.50,230.13" stroke-width="1.28" stroke="black" />
<g>
<circle cx="62.50" cy="192.48" fill="black" r="2.1333333333333333" />
<circle cx="137.50" cy="219.18" fill="black" r="2.1333333333333333" />
<circle cx="212.50" cy="262.87" fill="black" r="2.1333333333333333" />
<circle cx="287.50" cy="248.02" fill="black" r="2.1333333333333333" />
<circle cx="362.50" cy="230.85" fill="black" r="2.1333333333333333" />
<circle cx="437.50" cy="200.66" fill="black" r="2.1333333333333333" />
</g>
<polyline fill="none" points="437.50,201.29 437.50,200.03" stroke-width="1.28" stroke="black" />
<g>
<circle cx="62.50" cy="195.10" fill="black" r="2.1333333333333333" />
<circle cx="137.50" cy="216.73" fill="black" r="2.1333333333333333" />
<circle cx="212.50" cy="231.43" fill="black" r="2.1333333333333333" />
<circle cx="287.50" cy="234.96" fill="black" r="2.1333333333333333" />
<circle cx="362.50" cy="240.93" fill="black" r="2.1333333333333333" />
<circle cx="437.50" cy="229.55" fill="black" r="2.1333333333333333" />
</g>
<polyline fill="none" points="62.50,195.69 62.50,194.50" stroke-width="1.28" stroke="black" />
<g>
<circle cx="62.50" cy="195.10" fill="black" r="2.1333333333333333" />
<circle cx="137.50" cy="216.73" fill="black" r="2.1333333333333333" />
<circle cx="212.50" cy="231.43" fill="black" r="2.1333333333333333" />
<circle cx="287.50" cy="234.96" fill="black" r="2.1333333333333333" />
<circle cx="362.50" cy="240.93" fill="black" r="2.1333333333333333" />
<circle cx="437.50" cy="229.55" fill="black" r="2.1333333333333333" />
</g>
<polyline fill="none" points="137.50,217.53 137.50,215.92" stroke-width="1.28" stroke="black" />
<g>
<circle cx="62.50" cy="195.10" fill="black" r="2.1333333333333333" />
<circle cx="137.50" cy="216.73" fill="black" r="2.1333333333333333" />
<circle cx="212.50" cy="231.43" fill="black" r="2.1333333333333333" />
<circle cx="287.50" cy="234.96" fill="black" r="2.1333333333333333" />
<circle cx="362.50" cy="240.93" fill="black" r="2.1333333333333333" />
<circle cx="437.50" cy="229.55" fill="black" r="2.1333333333333333" />
</g>
<polyline fill="none" points="212.50,232.31 212.50,230.56" stroke-width="1.28" stroke="black" />
<g>
<circle cx="62.50" cy="195.10" fill="black" r="2.1333333333333333" />
<circle cx="137.50" cy="216.73" fill="black" r="2.1333333333333333" />
<circle cx="212.50" cy="231.43" fill="black" r="2.1333333333333333" />
<circle cx="287.50" cy="234.96" fill="black" r="2.1333333333333333" />
<circle cx="362.50" cy="240.93" fill="black" r="2.1333333333333333" />
<circle cx="437.50" cy="229.55" fill="black" r="2.1333333333333333" />
</g>
<polyline fill="none" points="287.50,235.82 287.50,234.09" stroke-width="1.28" stroke="black" />
<g>
<circle cx="62.50" cy="195.10" fill="black" r="2.1333333333333333" />
<circle cx="137.50" cy="216.73" fill="black" r="2.1333333333333333" />
<circle cx="212.50" cy="231.43" fill="black" r="2.1333333333333333" />
<circle cx="287.50" cy="234.96" fill="black" r="2.1333333333333333" />
<circle cx="362.50" cy="240.93" fill="black" r="2.1333333333333333" />
<circle cx="437.50" cy="229.55" fill="black" r="2.1333333333333333" />
</g>
<polyline fill="none" points="362.50,241.87 362.50,240.00" stroke-width="1.28" stroke="black" />
<g>
<circle cx="62.50" cy="195.10" fill="black" r="2.1333333333333333" />
<circle cx="137.50" cy="216.73" fill="black" r="2.1333333333333333" />
<circle cx="212.50" cy="231.43" fill="black" r="2.1333333333333333" />
<circle cx="287.50" cy="234.96" fill="black" r="2.1333333333333333" />
<circle cx="362.50" cy="240.93" fill="black" r="2.1333333333333333" />
<circle cx="437.50" cy="229.55" fill="black" r="2.1333333333333333" />
</g>
<polyline fill="none" points="437.50,230.71 437.50,228.39" stroke-width="1.28" stroke="black" />
<g>
<text dominant-baseline="hanging" fill="#15b01a" font-size="21.333333333333332" stroke="none" text-anchor="start" x="62.50" y="326.01">A</text>
<text dominant-baseline="hanging" fill="#15b01a" font-size="21.333333333333332" stroke="none" text-anchor="start" x="137.50" y="379.77">B</text>
<text dominant-baseline="hanging" fill="#15b01a" font-size="21.333333333333332" stroke="none" text-anchor="start" x="212.50" y="423.58">C</text>
<text dominant-baseline="hanging" fill="#15b01a" font-size="21.333333333333332" stroke="none" text-anchor="start" x="287.50" y="437.50">D</text>
<text dominant-baseline="hanging" fill="#15b01a" font-size="21.333333333333332" stroke="none" text-anchor="start" x="362.50" y="341.22">E</text>
<text dominant-baseline="hanging" fill="#15b01a" font-size="21.333333333333332" stroke="none" text-anchor="start" x="437.50" y="304.45">F</text>
</g>
<g>
<text dominant-baseline="hanging" fill="#f97306" font-size="21.333333333333332" stroke="none" text-anchor="start" x="62.50" y="192.48">A</text>
<text dominant-baseline="hanging" fill="#f97306" font-size="21.333333333333332" stroke="none" text-anchor="start" x="137.50" y="219.18">B</text>
<text dominant-baseline="hanging" fill="#f97306" font-size="21.333333333333332" stroke="none" text-anchor="start" x="212.50" y="262.87">C</text>
<text dominant-baseline="hanging" fill="#f97306" font-size="21.333333333333332" stroke="none" text-anchor="start" x="287.50" y="248.02">D</text>
<text dominant-baseline="hanging" fill="#f97306" font-size="21.333333333333332" stroke="none" text-anchor="start" x="362.50" y="230.85">E</text>
<text dominant-baseline="hanging" fill="#f97306" font-size="21.333333333333332" stroke="none" text-anchor="start" x="437.50" y="200.66">F</text>
</g>
<g>
<text dominant-baseline="hanging" fill="#bf77f6" font-size="21.333333333333332" stroke="none" text-anchor="start" x="62.50" y="195.10">A</text>
<text dominant-baseline="hanging" fill="#bf77f6" font-size="21.333333333333332" stroke="none" text-anchor="start" x="137.50" y="216.73">B</text>
<text dominant-baseline="hanging" fill="#bf77f6" font-size="21.333333333333332" stroke="none" text-anchor="start" x="212.50" y="231.43">C</text>
<text dominant-baseline="hanging" fill="#bf77f6" font-size="21.333333333333332" stroke="none" text-anchor="start" x="287.50" y="234.96">D</text>
<text dominant-baseline="hanging" fill="#bf77f6" font-size="21.333333333333332" stroke="none" text-anchor="start" x="362.50" y="240.93">E</text>
<text dominant-baseline="hanging" fill="#bf77f6" font-size="21.333333333333332" stroke="none" text-anchor="start" x="437.50" y="229.55">F</text>
</g>
<g stroke="black">
<line x1="62.50" x2="62.50" y1="475.00" y2="485.00" />
<line x1="137.50" x2="137.50" y1="475.00" y2="485.00" />
<line x1="212.50" x2="212.50" y1="475.00" y2="485.00" />
<line x1="287.50" x2="287.50" y1="475.00" y2="485.00" />
<line x1="362.50" x2="362.50" y1="475.00" y2="485.00" />
<line x1="437.50" x2="437.50" y1="475.00" y2="485.00" />
<g fill="black" font-family="Arial, sans-serif" font-size="18.0" stroke="none" text-anchor="start" transform="translate(9.0 0.0)">
<text x="62.50" y="495.57">0</text>
<text x="137.50" y="495.57">1</text>
<text x="212.50" y="495.57">2</text>
<text x="287.50" y="495.57">3</text>
<text x="362.50" y="495.57">4</text>
<text x="437.50" y="495.57">5</text>
</g>
<line x1="25.00" x2="475.00" y1="475.00" y2="475.00" />
</g>
<g stroke="black">
<line x1="25.00" x2="13.00" y1="458.73" y2="458.73" />
<line x1="25.00" x2="13.00" y1="398.52" y2="398.52" />
<line x1="25.00" x2="13.00" y1="338.30" y2="338.30" />
<line x1="25.00" x2="13.00" y1="278.09" y2="278.09" />
<line x1="25.00" x2="13.00" y1="217.87" y2="217.87" />
<line x1="25.00" x2="13.00" y1="157.66" y2="157.66" />
<line x1="25.00" x2="13.00" y1="97.45" y2="97.45" />
<line x1="25.00" x2="13.00" y1="37.23" y2="37.23" />
<g fill="black" font-family="Arial, sans-serif" font-size="18.0" stroke="none" text-anchor="end">
<text x="16.00" y="449.73">-12</text>
<text x="16.00" y="389.52">-11</text>
<text x="16.00" y="329.30">-10</text>
<text x="16.00" y="269.09">-9</text>
<text x="16.00" y="208.87">-8</text>
<text x="16.00" y="148.66">-7</text>
<text x="16.00" y="88.45">-6</text>
<text x="16.00" y="28.23">-5</text>
</g>
<line x1="25.00" x2="25.00" y1="475.00" y2="25.00" />
</g>
</g>
</svg>
</g>
</g>
</g>
</g>
</svg>
</g>
<g transform="matrix(1.00,0.00,0.00,1.00,500.00,0.00)">
<svg height="1000" version="1.1" viewBox="0 0 1000 1000" width="1000" xmlns:xlink="http://www.w3.org/1999/xlink" xmlns="http://www.w3.org/2000/svg">
<g>
<g stroke-dasharray="3.6 7.2" stroke-width="0.72" stroke="#caa">
<line x1="151.92" x2="151.92" y1="950.00" y2="50.00" />
<line x1="427.73" x2="427.73" y1="950.00" y2="50.00" />
<line x1="703.55" x2="703.55" y1="950.00" y2="50.00" />
<line x1="50.00" x2="950.00" y1="917.46" y2="917.46" />
<line x1="50.00" x2="950.00" y1="797.03" y2="797.03" />
<line x1="50.00" x2="950.00" y1="676.60" y2="676.60" />
<line x1="50.00" x2="950.00" y1="556.18" y2="556.18" />
<line x1="50.00" x2="950.00" y1="435.75" y2="435.75" />
<line x1="50.00" x2="950.00" y1="315.32" y2="315.32" />
<line x1="50.00" x2="950.00" y1="194.89" y2="194.89" />
<line x1="50.00" x2="950.00" y1="74.47" y2="74.47" />
</g>
<g>
<text dominant-baseline="hanging" dx="-36.0" dy="18.0" fill="#0004" font-family="Arial, sans-serif" font-size="36" stroke="none" text-anchor="end" x="950.00" y="125.00">TH</text>
</g>
<g>
<text dominant-baseline="text-bottom" dy="0" fill="black" font-family="Arial, sans-serif" font-size="18.0" font-style="italic" stroke="none" text-anchor="middle" x="500.00" y="50.00">d-Oxygen</text>
</g>
<g>
<text dominant-baseline="hanging" dx="18.0" dy="18.0" fill="black" font-family="Arial, sans-serif" font-size="18.0" font-style="italic" stroke="none" text-anchor="beginning" text-orientation="sideways" x="50.00" y="50.00">d-Carbon</text>
</g>
<g>
</g>
<g>
<circle cx="667.62" cy="401.32" fill="#8004" r="16.0" />
</g>
<g>
</g>
<g>
<circle cx="436.84" cy="847.17" fill="black" r="2.1333333333333333" />
<circle cx="467.33" cy="875.00" fill="black" r="2.1333333333333333" />
<circle cx="627.00" cy="759.54" fill="black" r="2.1333333333333333" />
<circle cx="628.88" cy="652.02" fill="black" r="2.1333333333333333" />
<circle cx="640.53" cy="682.44" fill="black" r="2.1333333333333333" />
<circle cx="668.64" cy="608.89" fill="black" r="2.1333333333333333" />
</g>
<polyline fill="none" points="635.92,682.44 645.14,682.44" stroke-width="1.28" stroke="black" />
<polyline fill="none" points="640.53,683.48 640.53,681.39" stroke-width="1.28" stroke="black" />
<g>
<circle cx="436.84" cy="847.17" fill="black" r="2.1333333333333333" />
<circle cx="467.33" cy="875.00" fill="black" r="2.1333333333333333" />
<circle cx="627.00" cy="759.54" fill="black" r="2.1333333333333333" />
<circle cx="628.88" cy="652.02" fill="black" r="2.1333333333333333" />
<circle cx="640.53" cy="682.44" fill="black" r="2.1333333333333333" />
<circle cx="668.64" cy="608.89" fill="black" r="2.1333333333333333" />
</g>
<polyline fill="none" points="663.67,608.89 673.62,608.89" stroke-width="1.28" stroke="black" />
<polyline fill="none" points="668.64,610.10 668.64,607.69" stroke-width="1.28" stroke="black" />
<g>
<circle cx="436.84" cy="847.17" fill="black" r="2.1333333333333333" />
<circle cx="467.33" cy="875.00" fill="black" r="2.1333333333333333" />
<circle cx="627.00" cy="759.54" fill="black" r="2.1333333333333333" />
<circle cx="628.88" cy="652.02" fill="black" r="2.1333333333333333" />
<circle cx="640.53" cy="682.44" fill="black" r="2.1333333333333333" />
<circle cx="668.64" cy="608.89" fill="black" r="2.1333333333333333" />
</g>
<polyline fill="none" points="621.72,652.02 636.03,652.02" stroke-width="1.28" stroke="black" />
<polyline fill="none" points="628.88,653.82 628.88,650.23" stroke-width="1.28" stroke="black" />
<g>
<circle cx="436.84" cy="847.17" fill="black" r="2.1333333333333333" />
<circle cx="467.33" cy="875.00" fill="black" r="2.1333333333333333" />
<circle cx="627.00" cy="759.54" fill="black" r="2.1333333333333333" />
<circle cx="628.88" cy="652.02" fill="black" r="2.1333333333333333" />
<circle cx="640.53" cy="682.44" fill="black" r="2.1333333333333333" />
<circle cx="668.64" cy="608.89" fill="black" r="2.1333333333333333" />
</g>
<polyline fill="none" points="620.49,759.54 633.51,759.54" stroke-width="1.28" stroke="black" />
<polyline fill="none" points="627.00,761.71 627.00,757.38" stroke-width="1.28" stroke="black" />
<g>
<circle cx="436.84" cy="847.17" fill="black" r="2.1333333333333333" />
<circle cx="467.33" cy="875.00" fill="black" r="2.1333333333333333" />
<circle cx="627.00" cy="759.54" fill="black" r="2.1333333333333333" />
<circle cx="628.88" cy="652.02" fill="black" r="2.1333333333333333" />
<circle cx="640.53" cy="682.44" fill="black" r="2.1333333333333333" />
<circle cx="668.64" cy="608.89" fill="black" r="2.1333333333333333" />
</g>
<polyline fill="none" points="430.53,847.17 443.14,847.17" stroke-width="1.28" stroke="black" />
<polyline fill="none" points="436.84,849.05 436.84,845.28" stroke-width="1.28" stroke="black" />
<g>
<circle cx="436.84" cy="847.17" fill="black" r="2.1333333333333333" />
<circle cx="467.33" cy="875.00" fill="black" r="2.1333333333333333" />
<circle cx="627.00" cy="759.54" fill="black" r="2.1333333333333333" />
<circle cx="628.88" cy="652.02" fill="black" r="2.1333333333333333" />
<circle cx="640.53" cy="682.44" fill="black" r="2.1333333333333333" />
<circle cx="668.64" cy="608.89" fill="black" r="2.1333333333333333" />
</g>
<polyline fill="none" points="461.06,875.00 473.60,875.00" stroke-width="1.28" stroke="black" />
<polyline fill="none" points="467.33,876.23 467.33,873.77" stroke-width="1.28" stroke="black" />
<g>
<circle cx="606.35" cy="496.05" fill="black" r="2.1333333333333333" />
<circle cx="615.64" cy="461.69" fill="black" r="2.1333333333333333" />
<circle cx="667.62" cy="401.32" fill="black" r="2.1333333333333333" />
<circle cx="672.46" cy="438.36" fill="black" r="2.1333333333333333" />
<circle cx="680.53" cy="525.74" fill="black" r="2.1333333333333333" />
<circle cx="684.78" cy="384.96" fill="black" r="2.1333333333333333" />
</g>
<polyline fill="none" points="680.46,384.96 689.10,384.96" stroke-width="1.28" stroke="black" />
<polyline fill="none" points="684.78,387.08 684.78,382.84" stroke-width="1.28" stroke="black" />
<g>
<circle cx="606.35" cy="496.05" fill="black" r="2.1333333333333333" />
<circle cx="615.64" cy="461.69" fill="black" r="2.1333333333333333" />
<circle cx="667.62" cy="401.32" fill="black" r="2.1333333333333333" />
<circle cx="672.46" cy="438.36" fill="black" r="2.1333333333333333" />
<circle cx="680.53" cy="525.74" fill="black" r="2.1333333333333333" />
<circle cx="684.78" cy="384.96" fill="black" r="2.1333333333333333" />
</g>
<polyline fill="none" points="667.58,438.36 677.34,438.36" stroke-width="1.28" stroke="black" />
<polyline fill="none" points="672.46,439.78 672.46,436.95" stroke-width="1.28" stroke="black" />
<g>
<circle cx="606.35" cy="496.05" fill="black" r="2.1333333333333333" />
<circle cx="615.64" cy="461.69" fill="black" r="2.1333333333333333" />
<circle cx="667.62" cy="401.32" fill="black" r="2.1333333333333333" />
<circle cx="672.46" cy="438.36" fill="black" r="2.1333333333333333" />
<circle cx="680.53" cy="525.74" fill="black" r="2.1333333333333333" />
<circle cx="684.78" cy="384.96" fill="black" r="2.1333333333333333" />
</g>
<polyline fill="none" points="676.25,525.74 684.81,525.74" stroke-width="1.28" stroke="black" />
<polyline fill="none" points="680.53,526.96 680.53,524.52" stroke-width="1.28" stroke="black" />
<g>
<circle cx="606.35" cy="496.05" fill="black" r="2.1333333333333333" />
<circle cx="615.64" cy="461.69" fill="black" r="2.1333333333333333" />
<circle cx="667.62" cy="401.32" fill="black" r="2.1333333333333333" />
<circle cx="672.46" cy="438.36" fill="black" r="2.1333333333333333" />
<circle cx="680.53" cy="525.74" fill="black" r="2.1333333333333333" />
<circle cx="684.78" cy="384.96" fill="black" r="2.1333333333333333" />
</g>
<polyline fill="none" points="600.85,496.05 611.85,496.05" stroke-width="1.28" stroke="black" />
<polyline fill="none" points="606.35,497.94 606.35,494.16" stroke-width="1.28" stroke="black" />
<g>
<circle cx="606.35" cy="496.05" fill="black" r="2.1333333333333333" />
<circle cx="615.64" cy="461.69" fill="black" r="2.1333333333333333" />
<circle cx="667.62" cy="401.32" fill="black" r="2.1333333333333333" />
<circle cx="672.46" cy="438.36" fill="black" r="2.1333333333333333" />
<circle cx="680.53" cy="525.74" fill="black" r="2.1333333333333333" />
<circle cx="684.78" cy="384.96" fill="black" r="2.1333333333333333" />
</g>
<polyline fill="none" points="609.68,461.69 621.59,461.69" stroke-width="1.28" stroke="black" />
<polyline fill="none" points="615.64,463.13 615.64,460.26" stroke-width="1.28" stroke="black" />
<g>
<circle cx="606.35" cy="496.05" fill="black" r="2.1333333333333333" />
<circle cx="615.64" cy="461.69" fill="black" r="2.1333333333333333" />
<circle cx="667.62" cy="401.32" fill="black" r="2.1333333333333333" />
<circle cx="672.46" cy="438.36" fill="black" r="2.1333333333333333" />
<circle cx="680.53" cy="525.74" fill="black" r="2.1333333333333333" />
<circle cx="684.78" cy="384.96" fill="black" r="2.1333333333333333" />
</g>
<polyline fill="none" points="663.28,401.32 671.96,401.32" stroke-width="1.28" stroke="black" />
<polyline fill="none" points="667.62,402.58 667.62,400.06" stroke-width="1.28" stroke="black" />
<g>
<circle cx="514.32" cy="481.87" fill="black" r="2.1333333333333333" />
<circle cx="570.80" cy="469.91" fill="black" r="2.1333333333333333" />
<circle cx="587.81" cy="462.86" fill="black" r="2.1333333333333333" />
<circle cx="634.71" cy="459.11" fill="black" r="2.1333333333333333" />
<circle cx="669.82" cy="433.46" fill="black" r="2.1333333333333333" />
<circle cx="758.18" cy="390.19" fill="black" r="2.1333333333333333" />
</g>
<polyline fill="none" points="753.32,390.19 763.04,390.19" stroke-width="1.28" stroke="black" />
<polyline fill="none" points="758.18,391.37 758.18,389.01" stroke-width="1.28" stroke="black" />
<g>
<circle cx="514.32" cy="481.87" fill="black" r="2.1333333333333333" />
<circle cx="570.80" cy="469.91" fill="black" r="2.1333333333333333" />
<circle cx="587.81" cy="462.86" fill="black" r="2.1333333333333333" />
<circle cx="634.71" cy="459.11" fill="black" r="2.1333333333333333" />
<circle cx="669.82" cy="433.46" fill="black" r="2.1333333333333333" />
<circle cx="758.18" cy="390.19" fill="black" r="2.1333333333333333" />
</g>
<polyline fill="none" points="663.63,433.46 676.01,433.46" stroke-width="1.28" stroke="black" />
<polyline fill="none" points="669.82,435.07 669.82,431.84" stroke-width="1.28" stroke="black" />
<g>
<circle cx="514.32" cy="481.87" fill="black" r="2.1333333333333333" />
<circle cx="570.80" cy="469.91" fill="black" r="2.1333333333333333" />
<circle cx="587.81" cy="462.86" fill="black" r="2.1333333333333333" />
<circle cx="634.71" cy="459.11" fill="black" r="2.1333333333333333" />
<circle cx="669.82" cy="433.46" fill="black" r="2.1333333333333333" />
<circle cx="758.18" cy="390.19" fill="black" r="2.1333333333333333" />
</g>
<polyline fill="none" points="580.99,462.86 594.64,462.86" stroke-width="1.28" stroke="black" />
<polyline fill="none" points="587.81,464.61 587.81,461.12" stroke-width="1.28" stroke="black" />
<g>
<circle cx="514.32" cy="481.87" fill="black" r="2.1333333333333333" />
<circle cx="570.80" cy="469.91" fill="black" r="2.1333333333333333" />
<circle cx="587.81" cy="462.86" fill="black" r="2.1333333333333333" />
<circle cx="634.71" cy="459.11" fill="black" r="2.1333333333333333" />
<circle cx="669.82" cy="433.46" fill="black" r="2.1333333333333333" />
<circle cx="758.18" cy="390.19" fill="black" r="2.1333333333333333" />
</g>
<polyline fill="none" points="564.92,469.91 576.67,469.91" stroke-width="1.28" stroke="black" />
<polyline fill="none" points="570.80,471.64 570.80,468.18" stroke-width="1.28" stroke="black" />
<g>
<circle cx="514.32" cy="481.87" fill="black" r="2.1333333333333333" />
<circle cx="570.80" cy="469.91" fill="black" r="2.1333333333333333" />
<circle cx="587.81" cy="462.86" fill="black" r="2.1333333333333333" />
<circle cx="634.71" cy="459.11" fill="black" r="2.1333333333333333" />
<circle cx="669.82" cy="433.46" fill="black" r="2.1333333333333333" />
<circle cx="758.18" cy="390.19" fill="black" r="2.1333333333333333" />
</g>
<polyline fill="none" points="506.89,481.87 521.74,481.87" stroke-width="1.28" stroke="black" />
<polyline fill="none" points="514.32,483.73 514.32,480.01" stroke-width="1.28" stroke="black" />
<g>
<circle cx="514.32" cy="481.87" fill="black" r="2.1333333333333333" />
<circle cx="570.80" cy="469.91" fill="black" r="2.1333333333333333" />
<circle cx="587.81" cy="462.86" fill="black" r="2.1333333333333333" />
<circle cx="634.71" cy="459.11" fill="black" r="2.1333333333333333" />
<circle cx="669.82" cy="433.46" fill="black" r="2.1333333333333333" />
<circle cx="758.18" cy="390.19" fill="black" r="2.1333333333333333" />
</g>
<polyline fill="none" points="626.18,459.11 643.24,459.11" stroke-width="1.28" stroke="black" />
<polyline fill="none" points="634.71,461.42 634.71,456.79" stroke-width="1.28" stroke="black" />
<g>
<text dominant-baseline="hanging" fill="#15b01a" font-size="21.333333333333332" stroke="none" text-anchor="start" x="436.84" y="847.17">C</text>
<text dominant-baseline="hanging" fill="#15b01a" font-size="21.333333333333332" stroke="none" text-anchor="start" x="467.33" y="875.00">D</text>
<text dominant-baseline="hanging" fill="#15b01a" font-size="21.333333333333332" stroke="none" text-anchor="start" x="627.00" y="759.54">B</text>
<text dominant-baseline="hanging" fill="#15b01a" font-size="21.333333333333332" stroke="none" text-anchor="start" x="628.88" y="652.02">A</text>
<text dominant-baseline="hanging" fill="#15b01a" font-size="21.333333333333332" stroke="none" text-anchor="start" x="640.53" y="682.44">E</text>
<text dominant-baseline="hanging" fill="#15b01a" font-size="21.333333333333332" stroke="none" text-anchor="start" x="668.64" y="608.89">F</text>
</g>
<g>
<text dominant-baseline="hanging" fill="#f97306" font-size="21.333333333333332" stroke="none" text-anchor="start" x="606.35" y="496.05">D</text>
<text dominant-baseline="hanging" fill="#f97306" font-size="21.333333333333332" stroke="none" text-anchor="start" x="615.64" y="461.69">E</text>
<g>
<text dominant-baseline="hanging" fill="#f97306" font-size="21.333333333333332" stroke="none" text-anchor="start" tooltip="seems to have air" x="667.62" y="401.32">F</text>
<title>seems to have air</title>
</g>
<text dominant-baseline="hanging" fill="#f97306" font-size="21.333333333333332" stroke="none" text-anchor="start" x="672.46" y="438.36">B</text>
<text dominant-baseline="hanging" fill="#f97306" font-size="21.333333333333332" stroke="none" text-anchor="start" x="680.53" y="525.74">C</text>
<text dominant-baseline="hanging" fill="#f97306" font-size="21.333333333333332" stroke="none" text-anchor="start" x="684.78" y="384.96">A</text>
</g>
<g>
<text dominant-baseline="hanging" fill="#bf77f6" font-size="21.333333333333332" stroke="none" text-anchor="start" x="514.32" y="481.87">E</text>
<text dominant-baseline="hanging" fill="#bf77f6" font-size="21.333333333333332" stroke="none" text-anchor="start" x="570.80" y="469.91">D</text>
<text dominant-baseline="hanging" fill="#bf77f6" font-size="21.333333333333332" stroke="none" text-anchor="start" x="587.81" y="462.86">C</text>
<text dominant-baseline="hanging" fill="#bf77f6" font-size="21.333333333333332" stroke="none" text-anchor="start" x="634.71" y="459.11">F</text>
<text dominant-baseline="hanging" fill="#bf77f6" font-size="21.333333333333332" stroke="none" text-anchor="start" x="669.82" y="433.46">B</text>
<text dominant-baseline="hanging" fill="#bf77f6" font-size="21.333333333333332" stroke="none" text-anchor="start" x="758.18" y="390.19">A</text>
</g>
<g stroke="black">
<line x1="151.92" x2="151.92" y1="950.00" y2="960.00" />
<line x1="427.73" x2="427.73" y1="950.00" y2="960.00" />
<line x1="703.55" x2="703.55" y1="950.00" y2="960.00" />
<g fill="black" font-family="Arial, sans-serif" font-size="18.0" stroke="none" text-anchor="start" transform="translate(9.0 0.0)">
<text x="151.92" y="970.57">-7</text>
<text x="427.73" y="970.57">-6</text>
<text x="703.55" y="970.57">-5</text>
</g>
<line x1="50.00" x2="950.00" y1="950.00" y2="950.00" />
</g>
<g stroke="black">
<line x1="50.00" x2="38.00" y1="917.46" y2="917.46" />
<line x1="50.00" x2="38.00" y1="797.03" y2="797.03" />
<line x1="50.00" x2="38.00" y1="676.60" y2="676.60" />
<line x1="50.00" x2="38.00" y1="556.18" y2="556.18" />
<line x1="50.00" x2="38.00" y1="435.75" y2="435.75" />
<line x1="50.00" x2="38.00" y1="315.32" y2="315.32" />
<line x1="50.00" x2="38.00" y1="194.89" y2="194.89" />
<line x1="50.00" x2="38.00" y1="74.47" y2="74.47" />
<g fill="black" font-family="Arial, sans-serif" font-size="18.0" stroke="none" text-anchor="end">
<text x="41.00" y="908.46">-12</text>
<text x="41.00" y="788.03">-11</text>
<text x="41.00" y="667.60">-10</text>
<text x="41.00" y="547.18">-9</text>
<text x="41.00" y="426.75">-8</text>
<text x="41.00" y="306.32">-7</text>
<text x="41.00" y="185.89">-6</text>
<text x="41.00" y="65.47">-5</text>
</g>
<line x1="50.00" x2="50.00" y1="950.00" y2="50.00" />
</g>
</g>
</svg>
</g>
</g>
</g>
</g>
</svg>