<?xml version="1.0"?>
<svg height="1000" version="1.1" viewBox="0 0 1500 1000" width="1500" xmlns:xlink="http://www.w3.org/1999/xlink" xmlns="http://www.w3.org/2000/svg">
<g>
<g transform="matrix(1.00,0.00,0.00,1.00,0.00,0.00)">
<g>
<g transform="matrix(1.00,0.00,0.00,1.00,0.00,0.00)">
<svg height="1000" version="1.1" viewBox="0 0 500 1000" width="500" xmlns:xlink="http://www.w3.org/1999/xlink" xmlns="http://www.w3.org/2000/svg">
<g>
<g transform="matrix(1.00,0.00,0.00,1.00,0.00,0.00)">
<g>
<g transform="matrix(1.00,0.00,0.00,1.00,0.00,0.00)">
<svg height="500" version="1.1" viewBox="0 0 500 500" width="500" xmlns:xlink="http://www.w3.org/1999/xlink" xmlns="http://www.w3.org/2000/svg">
<g>
<g stroke-dasharray="3.6 7.2" stroke-width="0.72" stroke="#caa">
<line x1="62.50" x2="62.50" y1="475.00" y2="25.00" />
<line x1="137.50" x2="137.50" y1="475.00" y2="25.00" />
<line x1="212.50" x2="212.50" y1="475.00" y2="25.00" />
<line x1="287.50" x2="287.50" y1="475.00" y2="25.00" />
<line x1="362.50" x2="362.50" y1="475.00" y2="25.00" />
<line x1="437.50" x2="437.50" y1="475.00" y2="25.00" />
<line x1="25.00" x2="475.00" y1="395.03" y2="395.03" />
<line x1="25.00" x2="475.00" y1="280.11" y2="280.11" />
<line x1="25.00" x2="475.00" y1="165.19" y2="165.19" />
<line x1="25.00" x2="475.00" y1="50.27" y2="50.27" />
</g>
<g>
<text dominant-baseline="hanging" dx="-36.0" dy="18.0" fill="#0004" font-family="Arial, sans-serif" font-size="36" stroke="none" text-anchor="end" x="475.00" y="62.50">WL</text>
</g>
<g>
<text dominant-baseline="text-bottom" dy="0" fill="black" font-family="Arial, sans-serif" font-size="18.0" font-style="italic" stroke="none" text-anchor="middle" x="250.00" y="25.00">Relative Positions</text>
</g>
<g>
<text dominant-baseline="hanging" dx="18.0" dy="18.0" fill="black" font-family="Arial, sans-serif" font-size="18.0" font-style="italic" stroke="none" text-anchor="beginning" text-orientation="sideways" x="25.00" y="25.00">d-Oxygen</text>
</g>
<polyline fill="none" points="62.50,163.17 137.50,174.17 212.50,181.47 287.50,181.08 362.50,173.45 437.50,159.16" stroke-dasharray="3.2 3.2" stroke-width="3.2" stroke="#aaa" />
<polyline fill="none" points="62.50,136.54 137.50,197.20 212.50,166.09 287.50,272.60 362.50,201.78 437.50,190.85" stroke-dasharray="3.2 3.2" stroke-width="3.2" stroke="#aaa" />
<polyline fill="none" points="62.50,128.74 137.50,192.61 212.50,211.58 287.50,169.80 362.50,207.67 437.50,277.94" stroke-dasharray="3.2 3.2" stroke-width="3.2" stroke="#aaa" />
<g>
<circle cx="62.50" cy="163.17" fill="black" r="1.2" />
<circle cx="137.50" cy="174.17" fill="black" r="1.2" />
<circle cx="212.50" cy="181.47" fill="black" r="1.2" />
<circle cx="287.50" cy="181.08" fill="black" r="1.2" />
<circle cx="362.50" cy="173.45" fill="black" r="1.2" />
<circle cx="437.50" cy="159.16" fill="black" r="1.2" />
</g>
<polyline fill="none" points="62.50,165.73 62.50,160.62" stroke-width="0.72" stroke="black" />
<g>
<circle cx="62.50" cy="163.17" fill="black" r="1.2" />
<circle cx="137.50" cy="174.17" fill="black" r="1.2" />
<circle cx="212.50" cy="181.47" fill="black" r="1.2" />
<circle cx="287.50" cy="181.08" fill="black" r="1.2" />
<circle cx="362.50" cy="173.45" fill="black" r="1.2" />
<circle cx="437.50" cy="159.16" fill="black" r="1.2" />
</g>
<polyline fill="none" points="137.50,174.79 137.50,173.56" stroke-width="0.72" stroke="black" />
<g>
<circle cx="62.50" cy="163.17" fill="black" r="1.2" />
<circle cx="137.50" cy="174.17" fill="black" r="1.2" />
<circle cx="212.50" cy="181.47" fill="black" r="1.2" />
<circle cx="287.50" cy="181.08" fill="black" r="1.2" />
<circle cx="362.50" cy="173.45" fill="black" r="1.2" />
<circle cx="437.50" cy="159.16" fill="black" r="1.2" />
</g>
<polyline fill="none" points="212.50,183.70 212.50,179.23" stroke-width="0.72" stroke="black" />
<g>
<circle cx="62.50" cy="163.17" fill="black" r="1.2" />
<circle cx="137.50" cy="174.17" fill="black" r="1.2" />
<circle cx="212.50" cy="181.47" fill="black" r="1.2" />
<circle cx="287.50" cy="181.08" fill="black" r="1.2" />
<circle cx="362.50" cy="173.45" fill="black" r="1.2" />
<circle cx="437.50" cy="159.16" fill="black" r="1.2" />
</g>
<polyline fill="none" points="287.50,182.42 287.50,179.74" stroke-width="0.72" stroke="black" />
<g>
<circle cx="62.50" cy="163.17" fill="black" r="1.2" />
<circle cx="137.50" cy="174.17" fill="black" r="1.2" />
<circle cx="212.50" cy="181.47" fill="black" r="1.2" />
<circle cx="287.50" cy="181.08" fill="black" r="1.2" />
<circle cx="362.50" cy="173.45" fill="black" r="1.2" />
<circle cx="437.50" cy="159.16" fill="black" r="1.2" />
</g>
<polyline fill="none" points="362.50,175.27 362.50,171.62" stroke-width="0.72" stroke="black" />
<g>
<circle cx="62.50" cy="163.17" fill="black" r="1.2" />
<circle cx="137.50" cy="174.17" fill="black" r="1.2" />
<circle cx="212.50" cy="181.47" fill="black" r="1.2" />
<circle cx="287.50" cy="181.08" fill="black" r="1.2" />
<circle cx="362.50" cy="173.45" fill="black" r="1.2" />
<circle cx="437.50" cy="159.16" fill="black" r="1.2" />
</g>
<polyline fill="none" points="437.50,161.29 437.50,157.03" stroke-width="0.72" stroke="black" />
<g>
<circle cx="62.50" cy="136.54" fill="black" r="1.2" />
<circle cx="137.50" cy="197.20" fill="black" r="1.2" />
<circle cx="212.50" cy="166.09" fill="black" r="1.2" />
<circle cx="287.50" cy="272.60" fill="black" r="1.2" />
<circle cx="362.50" cy="201.78" fill="black" r="1.2" />
<circle cx="437.50" cy="190.85" fill="black" r="1.2" />
</g>
<polyline fill="none" points="62.50,138.82 62.50,134.25" stroke-width="0.72" stroke="black" />
<g>
<circle cx="62.50" cy="136.54" fill="black" r="1.2" />
<circle cx="137.50" cy="197.20" fill="black" r="1.2" />
<circle cx="212.50" cy="166.09" fill="black" r="1.2" />
<circle cx="287.50" cy="272.60" fill="black" r="1.2" />
<circle cx="362.50" cy="201.78" fill="black" r="1.2" />
<circle cx="437.50" cy="190.85" fill="black" r="1.2" />
</g>
<polyline fill="none" points="137.50,200.14 137.50,194.27" stroke-width="0.72" stroke="black" />
<g>
<circle cx="62.50" cy="136.54" fill="black" r="1.2" />
<circle cx="137.50" cy="197.20" fill="black" r="1.2" />
<circle cx="212.50" cy="166.09" fill="black" r="1.2" />
<circle cx="287.50" cy="272.60" fill="black" r="1.2" />
<circle cx="362.50" cy="201.78" fill="black" r="1.2" />
<circle cx="437.50" cy="190.85" fill="black" r="1.2" />
</g>
<polyline fill="none" points="212.50,169.02 212.50,163.16" stroke-width="0.72" stroke="black" />
<g>
<circle cx="62.50" cy="136.54" fill="black" r="1.2" />
<circle cx="137.50" cy="197.20" fill="black" r="1.2" />
<circle cx="212.50" cy="166.09" fill="black" r="1.2" />
<circle cx="287.50" cy="272.60" fill="black" r="1.2" />
<circle cx="362.50" cy="201.78" fill="black" r="1.2" />
<circle cx="437.50" cy="190.85" fill="black" r="1.2" />
</g>
<polyline fill="none" points="287.50,275.69 287.50,269.51" stroke-width="0.72" stroke="black" />
<g>
<circle cx="62.50" cy="136.54" fill="black" r="1.2" />
<circle cx="137.50" cy="197.20" fill="black" r="1.2" />
<circle cx="212.50" cy="166.09" fill="black" r="1.2" />
<circle cx="287.50" cy="272.60" fill="black" r="1.2" />
<circle cx="362.50" cy="201.78" fill="black" r="1.2" />
<circle cx="437.50" cy="190.85" fill="black" r="1.2" />
</g>
<polyline fill="none" points="362.50,204.77 362.50,198.80" stroke-width="0.72" stroke="black" />
<g>
<circle cx="62.50" cy="136.54" fill="black" r="1.2" />
<circle cx="137.50" cy="197.20" fill="black" r="1.2" />
<circle cx="212.50" cy="166.09" fill="black" r="1.2" />
<circle cx="287.50" cy="272.60" fill="black" r="1.2" />
<circle cx="362.50" cy="201.78" fill="black" r="1.2" />
<circle cx="437.50" cy="190.85" fill="black" r="1.2" />
</g>
<polyline fill="none" points="437.50,193.51 437.50,188.19" stroke-width="0.72" stroke="black" />
<g>
<circle cx="62.50" cy="128.74" fill="black" r="1.2" />
<circle cx="137.50" cy="192.61" fill="black" r="1.2" />
<circle cx="212.50" cy="211.58" fill="black" r="1.2" />
<circle cx="287.50" cy="169.80" fill="black" r="1.2" />
<circle cx="362.50" cy="207.67" fill="black" r="1.2" />
<circle cx="437.50" cy="277.94" fill="black" r="1.2" />
</g>
<polyline fill="none" points="62.50,130.49 62.50,126.99" stroke-width="0.72" stroke="black" />
<g>
<circle cx="62.50" cy="128.74" fill="black" r="1.2" />
<circle cx="137.50" cy="192.61" fill="black" r="1.2" />
<circle cx="212.50" cy="211.58" fill="black" r="1.2" />
<circle cx="287.50" cy="169.80" fill="black" r="1.2" />
<circle cx="362.50" cy="207.67" fill="black" r="1.2" />
<circle cx="437.50" cy="277.94" fill="black" r="1.2" />
</g>
<polyline fill="none" points="137.50,195.41 137.50,189.81" stroke-width="0.72" stroke="black" />
<g>
<circle cx="62.50" cy="128.74" fill="black" r="1.2" />
<circle cx="137.50" cy="192.61" fill="black" r="1.2" />
<circle cx="212.50" cy="211.58" fill="black" r="1.2" />
<circle cx="287.50" cy="169.80" fill="black" r="1.2" />
<circle cx="362.50" cy="207.67" fill="black" r="1.2" />
<circle cx="437.50" cy="277.94" fill="black" r="1.2" />
</g>
<polyline fill="none" points="212.50,213.92 212.50,209.24" stroke-width="0.72" stroke="black" />
<g>
<circle cx="62.50" cy="128.74" fill="black" r="1.2" />
<circle cx="137.50" cy="192.61" fill="black" r="1.2" />
<circle cx="212.50" cy="211.58" fill="black" r="1.2" />
<circle cx="287.50" cy="169.80" fill="black" r="1.2" />
<circle cx="362.50" cy="207.67" fill="black" r="1.2" />
<circle cx="437.50" cy="277.94" fill="black" r="1.2" />
</g>
<polyline fill="none" points="287.50,173.20 287.50,166.41" stroke-width="0.72" stroke="black" />
<g>
<circle cx="62.50" cy="128.74" fill="black" r="1.2" />
<circle cx="137.50" cy="192.61" fill="black" r="1.2" />
<circle cx="212.50" cy="211.58" fill="black" r="1.2" />
<circle cx="287.50" cy="169.80" fill="black" r="1.2" />
<circle cx="362.50" cy="207.67" fill="black" r="1.2" />
<circle cx="437.50" cy="277.94" fill="black" r="1.2" />
</g>
<polyline fill="none" points="362.50,211.10 362.50,204.25" stroke-width="0.72" stroke="black" />
<g>
<circle cx="62.50" cy="128.74" fill="black" r="1.2" />
<circle cx="137.50" cy="192.61" fill="black" r="1.2" />
<circle cx="212.50" cy="211.58" fill="black" r="1.2" />
<circle cx="287.50" cy="169.80" fill="black" r="1.2" />
<circle cx="362.50" cy="207.67" fill="black" r="1.2" />
<circle cx="437.50" cy="277.94" fill="black" r="1.2" />
</g>
<polyline fill="none" points="437.50,281.59 437.50,274.30" stroke-width="0.72" stroke="black" />
<g>
<text dominant-baseline="central" fill="#15b01a" font-size="21.333333333333332" stroke="none" text-anchor="middle" x="62.50" y="163.17">A</text>
<text dominant-baseline="central" fill="#15b01a" font-size="21.333333333333332" stroke="none" text-anchor="middle" x="137.50" y="174.17">B</text>
<text dominant-baseline="central" fill="#15b01a" font-size="21.333333333333332" stroke="none" text-anchor="middle" x="212.50" y="181.47">C</text>
<text dominant-baseline="central" fill="#15b01a" font-size="21.333333333333332" stroke="none" text-anchor="middle" x="287.50" y="181.08">D</text>
<text dominant-baseline="central" fill="#15b01a" font-size="21.333333333333332" stroke="none" text-anchor="middle" x="362.50" y="173.45">E</text>
<text dominant-baseline="central" fill="#15b01a" font-size="21.333333333333332" stroke="none" text-anchor="middle" x="437.50" y="159.16">F</text>
</g>
<g>
<text dominant-baseline="central" fill="#f97306" font-size="21.333333333333332" stroke="none" text-anchor="middle" x="62.50" y="136.54">A</text>
<text dominant-baseline="central" fill="#f97306" font-size="21.333333333333332" stroke="none" text-anchor="middle" x="137.50" y="197.20">B</text>
<text dominant-baseline="central" fill="#f97306" font-size="21.333333333333332" stroke="none" text-anchor="middle" x="212.50" y="166.09">C</text>
<text dominant-baseline="central" fill="#f97306" font-size="21.333333333333332" stroke="none" text-anchor="middle" x="287.50" y="272.60">D</text>
<text dominant-baseline="central" fill="#f97306" font-size="21.333333333333332" stroke="none" text-anchor="middle" x="362.50" y="201.78">E</text>
<text dominant-baseline="central" fill="#f97306" font-size="21.333333333333332" stroke="none" text-anchor="middle" x="437.50" y="190.85">F</text>
</g>
<g>
<text dominant-baseline="central" fill="#bf77f6" font-size="21.333333333333332" stroke="none" text-anchor="middle" x="62.50" y="128.74">A</text>
<text dominant-baseline="central" fill="#bf77f6" font-size="21.333333333333332" stroke="none" text-anchor="middle" x="137.50" y="192.61">B</text>
<text dominant-baseline="central" fill="#bf77f6" font-size="21.333333333333332" stroke="none" text-anchor="middle" x="212.50" y="211.58">C</text>
<text dominant-baseline="central" fill="#bf77f6" font-size="21.333333333333332" stroke="none" text-anchor="middle" x="287.50" y="169.80">D</text>
<text dominant-baseline="central" fill="#bf77f6" font-size="21.333333333333332" stroke="none" text-anchor="middle" x="362.50" y="207.67">E</text>
<text dominant-baseline="central" fill="#bf77f6" font-size="21.333333333333332" stroke="none" text-anchor="middle" x="437.50" y="277.94">F</text>
</g>
<g stroke="black">
<line x1="62.50" x2="62.50" y1="475.00" y2="485.00" />
<line x1="137.50" x2="137.50" y1="475.00" y2="485.00" />
<line x1="212.50" x2="212.50" y1="475.00" y2="485.00" />
<line x1="287.50" x2="287.50" y1="475.00" y2="485.00" />
<line x1="362.50" x2="362.50" y1="475.00" y2="485.00" />
<line x1="437.50" x2="437.50" y1="475.00" y2="485.00" />
<g fill="black" font-family="Arial, sans-serif" font-size="18.0" stroke="none" text-anchor="start" transform="translate(9.0 0.0)">
<text x="62.50" y="495.57">0</text>
<text x="137.50" y="495.57">1</text>
<text x="212.50" y="495.57">2</text>
<text x="287.50" y="495.57">3</text>
<text x="362.50" y="495.57">4</text>
<text x="437.50" y="495.57">5</text>
</g>
<line x1="25.00" x2="475.00" y1="475.00" y2="475.00" />
</g>
<g stroke="black">
<line x1="25.00" x2="13.00" y1="395.03" y2="395.03" />
<line x1="25.00" x2="13.00" y1="280.11" y2="280.11" />
<line x1="25.00" x2="13.00" y1="165.19" y2="165.19" />
<line x1="25.00" x2="13.00" y1="50.27" y2="50.27" />
<g fill="black" font-family="Arial, sans-serif" font-size="18.0" stroke="none" text-anchor="end">
<text x="16.00" y="386.03">-7</text>
<text x="16.00" y="271.11">-6</text>
<text x="16.00" y="156.19">-5</text>
<text x="16.00" y="41.27">-4</text>
</g>
<line x1="25.00" x2="25.00" y1="475.00" y2="25.00" />
</g>
</g>
</svg>
</g>
</g>
</g>
<g transform="matrix(1.00,0.00,0.00,1.00,0.00,500.00)">
<g>
<g transform="matrix(1.00,0.00,0.00,1.00,0.00,0.00)">
<svg height="500" version="1.1" viewBox="0 0 500 500" width="500" xmlns:xlink="http://www.w3.org/1999/xlink" xmlns="http://www.w3.org/2000/svg">
<g>
<g stroke-dasharray="3.6 7.2" stroke-width="0.72" stroke="#caa">
<line x1="62.50" x2="62.50" y1="475.00" y2="25.00" />
<line x1="137.50" x2="137.50" y1="475.00" y2="25.00" />
<line x1="212.50" x2="212.50" y1="475.00" y2="25.00" />
<line x1="287.50" x2="287.50" y1="475.00" y2="25.00" />
<line x1="362.50" x2="362.50" y1="475.00" y2="25.00" />
<line x1="437.50" x2="437.50" y1="475.00" y2="25.00" />
<line x1="25.00" x2="475.00" y1="458.73" y2="458.73" />
<line x1="25.00" x2="475.00" y1="398.52" y2="398.52" />
<line x1="25.00" x2="475.00" y1="338.30" y2="338.30" />
<line x1="25.00" x2="475.00" y1="278.09" y2="278.09" />
<line x1="25.00" x2="475.00" y1="217.87" y2="217.87" />
<line x1="25.00" x2="475.00" y1="157.66" y2="157.66" />
<line x1="25.00" x2="475.00" y1="97.45" y2="97.45" />
<line x1="25.00" x2="475.00" y1="37.23" y2="37.23" />
</g>
<g>
<text dominant-baseline="hanging" dx="-36.0" dy="18.0" fill="#0004" font-family="Arial, sans-serif" font-size="36" stroke="none" text-anchor="end" x="475.00" y="62.50">WL</text>
</g>
<g>
<text dominant-baseline="text-bottom" dy="0" fill="black" font-family="Arial, sans-serif" font-size="18.0" font-style="italic" stroke="none" text-anchor="middle" x="250.00" y="25.00">Relative Positions</text>
</g>
<g>
<text dominant-baseline="hanging" dx="18.0" dy="18.0" fill="black" font-family="Arial, sans-serif" font-size="18.0" font-style="italic" stroke="none" text-anchor="beginning" text-orientation="sideways" x="25.00" y="25.00">d-Carbon</text>
</g>
<polyline fill="none" points="62.50,66.28 137.50,78.71 212.50,134.99 287.50,152.45 362.50,140.68 437.50,116.92" stroke-dasharray="3.2 3.2" stroke-width="3.2" stroke="#aaa" />
<polyline fill="none" points="62.50,263.83 137.50,278.04 212.50,289.22 287.50,272.55 362.50,280.25 437.50,304.19" stroke-dasharray="3.2 3.2" stroke-width="3.2" stroke="#aaa" />
<polyline fill="none" points="62.50,337.14 137.50,355.37 212.50,354.33 287.50,369.72 362.50,406.74 437.50,355.62" stroke-dasharray="3.2 3.2" stroke-width="3.2" stroke="#aaa" />
<g>
<circle cx="62.50" cy="66.28" fill="black" r="1.2" />
<circle cx="137.50" cy="78.71" fill="black" r="1.2" />
<circle cx="212.50" cy="134.99" fill="black" r="1.2" />
<circle cx="287.50" cy="152.45" fill="black" r="1.2" />
<circle cx="362.50" cy="140.68" fill="black" r="1.2" />
<circle cx="437.50" cy="116.92" fill="black" r="1.2" />
</g>
<polyline fill="none" points="62.50,67.45 62.50,65.10" stroke-width="0.72" stroke="black" />
<g>
<circle cx="62.50" cy="66.28" fill="black" r="1.2" />
<circle cx="137.50" cy="78.71" fill="black" r="1.2" />
<circle cx="212.50" cy="134.99" fill="black" r="1.2" />
<circle cx="287.50" cy="152.45" fill="black" r="1.2" />
<circle cx="362.50" cy="140.68" fill="black" r="1.2" />
<circle cx="437.50" cy="116.92" fill="black" r="1.2" />
</g>
<polyline fill="none" points="137.50,79.53 137.50,77.90" stroke-width="0.72" stroke="black" />
<g>
<circle cx="62.50" cy="66.28" fill="black" r="1.2" />
<circle cx="137.50" cy="78.71" fill="black" r="1.2" />
<circle cx="212.50" cy="134.99" fill="black" r="1.2" />
<circle cx="287.50" cy="152.45" fill="black" r="1.2" />
<circle cx="362.50" cy="140.68" fill="black" r="1.2" />
<circle cx="437.50" cy="116.92" fill="black" r="1.2" />
</g>
<polyline fill="none" points="212.50,135.92 212.50,134.06" stroke-width="0.72" stroke="black" />
<g>
<circle cx="62.50" cy="66.28" fill="black" r="1.2" />
<circle cx="137.50" cy="78.71" fill="black" r="1.2" />
<circle cx="212.50" cy="134.99" fill="black" r="1.2" />
<circle cx="287.50" cy="152.45" fill="black" r="1.2" />
<circle cx="362.50" cy="140.68" fill="black" r="1.2" />
<circle cx="437.50" cy="116.92" fill="black" r="1.2" />
</g>
<polyline fill="none" points="287.50,153.37 287.50,151.53" stroke-width="0.72" stroke="black" />
<g>
<circle cx="62.50" cy="66.28" fill="black" r="1.2" />
<circle cx="137.50" cy="78.71" fill="black" r="1.2" />
<circle cx="212.50" cy="134.99" fill="black" r="1.2" />
<circle cx="287.50" cy="152.45" fill="black" r="1.2" />
<circle cx="362.50" cy="140.68" fill="black" r="1.2" />
<circle cx="437.50" cy="116.92" fill="black" r="1.2" />
</g>
<polyline fill="none" points="362.50,141.44 362.50,139.92" stroke-width="0.72" stroke="black" />
<g>
<circle cx="62.50" cy="66.28" fill="black" r="1.2" />
<circle cx="137.50" cy="78.71" fill="black" r="1.2" />
<circle cx="212.50" cy="134.99" fill="black" r="1.2" />
<circle cx="287.50" cy="152.45" fill="black" r="1.2" />
<circle cx="362.50" cy="140.68" fill="black" r="1.2" />
<circle cx="437.50" cy="116.92" fill="black" r="1.2" />
</g>
<polyline fill="none" points="437.50,117.54 437.50,116.31" stroke-width="0.72" stroke="black" />
<g>
<circle cx="62.50" cy="263.83" fill="black" r="1.2" />
<circle cx="137.50" cy="278.04" fill="black" r="1.2" />
<circle cx="212.50" cy="289.22" fill="black" r="1.2" />
<circle cx="287.50" cy="272.55" fill="black" r="1.2" />
<circle cx="362.50" cy="280.25" fill="black" r="1.2" />
<circle cx="437.50" cy="304.19" fill="black" r="1.2" />
</g>
<polyline fill="none" points="62.50,264.60 62.50,263.06" stroke-width="0.72" stroke="black" />
<g>
<circle cx="62.50" cy="263.83" fill="black" r="1.2" />
<circle cx="137.50" cy="278.04" fill="black" r="1.2" />
<circle cx="212.50" cy="289.22" fill="black" r="1.2" />
<circle cx="287.50" cy="272.55" fill="black" r="1.2" />
<circle cx="362.50" cy="280.25" fill="black" r="1.2" />
<circle cx="437.50" cy="304.19" fill="black" r="1.2" />
</g>
<polyline fill="none" points="137.50,278.87 137.50,277.22" stroke-width="0.72" stroke="black" />
<g>
<circle cx="62.50" cy="263.83" fill="black" r="1.2" />
<circle cx="137.50" cy="278.04" fill="black" r="1.2" />
<circle cx="212.50" cy="289.22" fill="black" r="1.2" />
<circle cx="287.50" cy="272.55" fill="black" r="1.2" />
<circle cx="362.50" cy="280.25" fill="black" r="1.2" />
<circle cx="437.50" cy="304.19" fill="black" r="1.2" />
</g>
<polyline fill="none" points="212.50,290.00 212.50,288.44" stroke-width="0.72" stroke="black" />
<g>
<circle cx="62.50" cy="263.83" fill="black" r="1.2" />
<circle cx="137.50" cy="278.04" fill="black" r="1.2" />
<circle cx="212.50" cy="289.22" fill="black" r="1.2" />
<circle cx="287.50" cy="272.55" fill="black" r="1.2" />
<circle cx="362.50" cy="280.25" fill="black" r="1.2" />
<circle cx="437.50" cy="304.19" fill="black" r="1.2" />
</g>
<polyline fill="none" points="287.50,273.92 287.50,271.18" stroke-width="0.72" stroke="black" />
<g>
<circle cx="62.50" cy="263.83" fill="black" r="1.2" />
<circle cx="137.50" cy="278.04" fill="black" r="1.2" />
<circle cx="212.50" cy="289.22" fill="black" r="1.2" />
<circle cx="287.50" cy="272.55" fill="black" r="1.2" />
<circle cx="362.50" cy="280.25" fill="black" r="1.2" />
<circle cx="437.50" cy="304.19" fill="black" r="1.2" />
</g>
<polyline fill="none" points="362.50,281.15 362.50,279.34" stroke-width="0.72" stroke="black" />
<g>
<circle cx="62.50" cy="263.83" fill="black" r="1.2" />
<circle cx="137.50" cy="278.04" fill="black" r="1.2" />
<circle cx="212.50" cy="289.22" fill="black" r="1.2" />
<circle cx="287.50" cy="272.55" fill="black" r="1.2" />
<circle cx="362.50" cy="280.25" fill="black" r="1.2" />
<circle cx="437.50" cy="304.19" fill="black" r="1.2" />
</g>
<polyline fill="none" points="437.50,305.15 437.50,303.23" stroke-width="0.72" stroke="black" />
<g>
<circle cx="62.50" cy="337.14" fill="black" r="1.2" />
<circle cx="137.50" cy="355.37" fill="black" r="1.2" />
<circle cx="212.50" cy="354.33" fill="black" r="1.2" />
<circle cx="287.50" cy="369.72" fill="black" r="1.2" />
<circle cx="362.50" cy="406.74" fill="black" r="1.2" />
<circle cx="437.50" cy="355.62" fill="black" r="1.2" />
</g>
<polyline fill="none" points="62.50,337.63 62.50,336.64" stroke-width="0.72" stroke="black" />
<g>
<circle cx="62.50" cy="337.14" fill="black" r="1.2" />
<circle cx="137.50" cy="355.37" fill="black" r="1.2" />
<circle cx="212.50" cy="354.33" fill="black" r="1.2" />
<circle cx="287.50" cy="369.72" fill="black" r="1.2" />
<circle cx="362.50" cy="406.74" fill="black" r="1.2" />
<circle cx="437.50" cy="355.62" fill="black" r="1.2" />
</g>
<polyline fill="none" points="137.50,356.01 137.50,354.73" stroke-width="0.72" stroke="black" />
<g>
<circle cx="62.50" cy="337.14" fill="black" r="1.2" />
<circle cx="137.50" cy="355.37" fill="black" r="1.2" />
<circle cx="212.50" cy="354.33" fill="black" r="1.2" />
<circle cx="287.50" cy="369.72" fill="black" r="1.2" />
<circle cx="362.50" cy="406.74" fill="black" r="1.2" />
<circle cx="437.50" cy="355.62" fill="black" r="1.2" />
</g>
<polyline fill="none" points="212.50,354.77 212.50,353.90" stroke-width="0.72" stroke="black" />
<g>
<circle cx="62.50" cy="337.14" fill="black" r="1.2" />
<circle cx="137.50" cy="355.37" fill="black" r="1.2" />
<circle cx="212.50" cy="354.33" fill="black" r="1.2" />
<circle cx="287.50" cy="369.72" fill="black" r="1.2" />
<circle cx="362.50" cy="406.74" fill="black" r="1.2" />
<circle cx="437.50" cy="355.62" fill="black" r="1.2" />
</g>
<polyline fill="none" points="287.50,370.58 287.50,368.85" stroke-width="0.72" stroke="black" />
<g>
<circle cx="62.50" cy="337.14" fill="black" r="1.2" />
<circle cx="137.50" cy="355.37" fill="black" r="1.2" />
<circle cx="212.50" cy="354.33" fill="black" r="1.2" />
<circle cx="287.50" cy="369.72" fill="black" r="1.2" />
<circle cx="362.50" cy="406.74" fill="black" r="1.2" />
<circle cx="437.50" cy="355.62" fill="black" r="1.2" />
</g>
<polyline fill="none" points="362.50,407.67 362.50,405.82" stroke-width="0.72" stroke="black" />
<g>
<circle cx="62.50" cy="337.14" fill="black" r="1.2" />
<circle cx="137.50" cy="355.37" fill="black" r="1.2" />
<circle cx="212.50" cy="354.33" fill="black" r="1.2" />
<circle cx="287.50" cy="369.72" fill="black" r="1.2" />
<circle cx="362.50" cy="406.74" fill="black" r="1.2" />
<circle cx="437.50" cy="355.62" fill="black" r="1.2" />
</g>
<polyline fill="none" points="437.50,356.93 437.50,354.32" stroke-width="0.72" stroke="black" />
<g>
<text dominant-baseline="central" fill="#15b01a" font-size="21.333333333333332" stroke="none" text-anchor="middle" x="62.50" y="66.28">A</text>
<text dominant-baseline="central" fill="#15b01a" font-size="21.333333333333332" stroke="none" text-anchor="middle" x="137.50" y="78.71">B</text>
<text dominant-baseline="central" fill="#15b01a" font-size="21.333333333333332" stroke="none" text-anchor="middle" x="212.50" y="134.99">C</text>
<text dominant-baseline="central" fill="#15b01a" font-size="21.333333333333332" stroke="none" text-anchor="middle" x="287.50" y="152.45">D</text>
<text dominant-baseline="central" fill="#15b01a" font-size="21.333333333333332" stroke="none" text-anchor="middle" x="362.50" y="140.68">E</text>
<text dominant-baseline="central" fill="#15b01a" font-size="21.333333333333332" stroke="none" text-anchor="middle" x="437.50" y="116.92">F</text>
</g>
<g>
<text dominant-baseline="central" fill="#f97306" font-size="21.333333333333332" stroke="none" text-anchor="middle" x="62.50" y="263.83">A</text>
<text dominant-baseline="central" fill="#f97306" font-size="21.333333333333332" stroke="none" text-anchor="middle" x="137.50" y="278.04">B</text>
<text dominant-baseline="central" fill="#f97306" font-size="21.333333333333332" stroke="none" text-anchor="middle" x="212.50" y="289.22">C</text>
<text dominant-baseline="central" fill="#f97306" font-size="21.333333333333332" stroke="none" text-anchor="middle" x="287.50" y="272.55">D</text>
<text dominant-baseline="central" fill="#f97306" font-size="21.333333333333332" stroke="none" text-anchor="middle" x="362.50" y="280.25">E</text>
<text dominant-baseline="central" fill="#f97306" font-size="21.333333333333332" stroke="none" text-anchor="middle" x="437.50" y="304.19">F</text>
</g>
<g>
<text dominant-baseline="central" fill="#bf77f6" font-size="21.333333333333332" stroke="none" text-anchor="middle" x="62.50" y="337.14">A</text>
<text dominant-baseline="central" fill="#bf77f6" font-size="21.333333333333332" stroke="none" text-anchor="middle" x="137.50" y="355.37">B</text>
<text dominant-baseline="central" fill="#bf77f6" font-size="21.333333333333332" stroke="none" text-anchor="middle" x="212.50" y="354.33">C</text>
<text dominant-baseline="central" fill="#bf77f6" font-size="21.333333333333332" stroke="none" text-anchor="middle" x="287.50" y="369.72">D</text>
<text dominant-baseline="central" fill="#bf77f6" font-size="21.333333333333332" stroke="none" text-anchor="middle" x="362.50" y="406.74">E</text>
<text dominant-baseline="central" fill="#bf77f6" font-size="21.333333333333332" stroke="none" text-anchor="middle" x="437.50" y="355.62">F</text>
</g>
<g stroke="black">
<line x1="62.50" x2="62.50" y1="475.00" y2="485.00" />
<line x1="137.50" x2="137.50" y1="475.00" y2="485.00" />
<line x1="212.50" x2="212.50" y1="475.00" y2="485.00" />
<line x1="287.50" x2="287.50" y1="475.00" y2="485.00" />
<line x1="362.50" x2="362.50" y1="475.00" y2="485.00" />
<line x1="437.50" x2="437.50" y1="475.00" y2="485.00" />
<g fill="black" font-family="Arial, sans-serif" font-size="18.0" stroke="none" text-anchor="start" transform="translate(9.0 0.0)">
<text x="62.50" y="495.57">0</text>
<text x="137.50" y="495.57">1</text>
<text x="212.50" y="495.57">2</text>
<text x="287.50" y="495.57">3</text>
<text x="362.50" y="495.57">4</text>
<text x="437.50" y="495.57">5</text>
</g>
<line x1="25.00" x2="475.00" y1="475.00" y2="475.00" />
</g>
<g stroke="black">
<line x1="25.00" x2="13.00" y1="458.73" y2="458.73" />
<line x1="25.00" x2="13.00" y1="398.52" y2="398.52" />
<line x1="25.00" x2="13.00" y1="338.30" y2="338.30" />
<line x1="25.00" x2="13.00" y1="278.09" y2="278.09" />
<line x1="25.00" x2="13.00" y1="217.87" y2="217.87" />
<line x1="25.00" x2="13.00" y1="157.66" y2="157.66" />
<line x1="25.00" x2="13.00" y1="97.45" y2="97.45" />
<line x1="25.00" x2="13.00" y1="37.23" y2="37.23" />
<g fill="black" font-family="Arial, sans-serif" font-size="18.0" stroke="none" text-anchor="end">
<text x="16.00" y="449.73">-12</text>
<text x="16.00" y="389.52">-11</text>
<text x="16.00" y="329.30">-10</text>
<text x="16.00" y="269.09">-9</text>
<text x="16.00" y="208.87">-8</text>
<text x="16.00" y="148.66">-7</text>
<text x="16.00" y="88.45">-6</text>
<text x="16.00" y="28.23">-5</text>
</g>
<line x1="25.00" x2="25.00" y1="475.00" y2="25.00" />
</g>
</g>
</svg>
</g>
</g>
</g>
</g>
</svg>
</g>
<g transform="matrix(1.00,0.00,0.00,1.00,500.00,0.00)">
<svg height="1000" version="1.1" viewBox="0 0 1000 1000" width="1000" xmlns:xlink="http://www.w3.org/1999/xlink" xmlns="http://www.w3.org/2000/svg">
<g>
<g stroke-dasharray="3.6 7.2" stroke-width="0.72" stroke="#caa">
<line x1="151.92" x2="151.92" y1="950.00" y2="50.00" />
<line x1="427.73" x2="427.73" y1="950.00" y2="50.00" />
<line x1="703.55" x2="703.55" y1="950.00" y2="50.00" />
<line x1="50.00" x2="950.00" y1="917.46" y2="917.46" />
<line x1="50.00" x2="950.00" y1="797.03" y2="797.03" />
<line x1="50.00" x2="950.00" y1="676.60" y2="676.60" />
<line x1="50.00" x2="950.00" y1="556.18" y2="556.18" />
<line x1="50.00" x2="950.00" y1="435.75" y2="435.75" />
<line x1="50.00" x2="950.00" y1="315.32" y2="315.32" />
<line x1="50.00" x2="950.00" y1="194.89" y2="194.89" />
<line x1="50.00" x2="950.00" y1="74.47" y2="74.47" />
</g>
<g>
<text dominant-baseline="hanging" dx="-36.0" dy="18.0" fill="#0004" font-family="Arial, sans-serif" font-size="36" stroke="none" text-anchor="end" x="950.00" y="125.00">WL</text>
</g>
<g>
<text dominant-baseline="text-bottom" dy="0" fill="black" font-family="Arial, sans-serif" font-size="18.0" font-style="italic" stroke="none" text-anchor="middle" x="500.00" y="50.00">d-Oxygen</text>
</g>
<g>
<text dominant-baseline="hanging" dx="18.0" dy="18.0" fill="black" font-family="Arial, sans-serif" font-size="18.0" font-style="italic" stroke="none" text-anchor="beginning" text-orientation="sideways" x="50.00" y="50.00">d-Carbon</text>
</g>
<g>
</g>
<g>
<circle cx="445.76" cy="545.10" fill="#8004" r="16.0" />
</g>
<g>
</g>
<g>
<circle cx="664.48" cy="269.98" fill="black" r="2.1333333333333333" />
<circle cx="665.41" cy="304.89" fill="black" r="2.1333333333333333" />
<circle cx="681.98" cy="157.43" fill="black" r="2.1333333333333333" />
<circle cx="683.73" cy="281.37" fill="black" r="2.1333333333333333" />
<circle cx="708.39" cy="132.55" fill="black" r="2.1333333333333333" />
<circle cx="718.01" cy="233.85" fill="black" r="2.1333333333333333" />
</g>
<polyline fill="none" points="702.25,132.55 714.52,132.55" stroke-width="1.28" stroke="black" />
<polyline fill="none" points="708.39,134.91 708.39,130.20" stroke-width="1.28" stroke="black" />
<g>
<circle cx="664.48" cy="269.98" fill="black" r="2.1333333333333333" />
<circle cx="665.41" cy="304.89" fill="black" r="2.1333333333333333" />
<circle cx="681.98" cy="157.43" fill="black" r="2.1333333333333333" />
<circle cx="683.73" cy="281.37" fill="black" r="2.1333333333333333" />
<circle cx="708.39" cy="132.55" fill="black" r="2.1333333333333333" />
<circle cx="718.01" cy="233.85" fill="black" r="2.1333333333333333" />
</g>
<polyline fill="none" points="680.50,157.43 683.46,157.43" stroke-width="1.28" stroke="black" />
<polyline fill="none" points="681.98,159.06 681.98,155.79" stroke-width="1.28" stroke="black" />
<g>
<circle cx="664.48" cy="269.98" fill="black" r="2.1333333333333333" />
<circle cx="665.41" cy="304.89" fill="black" r="2.1333333333333333" />
<circle cx="681.98" cy="157.43" fill="black" r="2.1333333333333333" />
<circle cx="683.73" cy="281.37" fill="black" r="2.1333333333333333" />
<circle cx="708.39" cy="132.55" fill="black" r="2.1333333333333333" />
<circle cx="718.01" cy="233.85" fill="black" r="2.1333333333333333" />
</g>
<polyline fill="none" points="659.12,269.98 669.84,269.98" stroke-width="1.28" stroke="black" />
<polyline fill="none" points="664.48,271.85 664.48,268.11" stroke-width="1.28" stroke="black" />
<g>
<circle cx="664.48" cy="269.98" fill="black" r="2.1333333333333333" />
<circle cx="665.41" cy="304.89" fill="black" r="2.1333333333333333" />
<circle cx="681.98" cy="157.43" fill="black" r="2.1333333333333333" />
<circle cx="683.73" cy="281.37" fill="black" r="2.1333333333333333" />
<circle cx="708.39" cy="132.55" fill="black" r="2.1333333333333333" />
<circle cx="718.01" cy="233.85" fill="black" r="2.1333333333333333" />
</g>
<polyline fill="none" points="662.20,304.89 668.63,304.89" stroke-width="1.28" stroke="black" />
<polyline fill="none" points="665.41,306.73 665.41,303.05" stroke-width="1.28" stroke="black" />
<g>
<circle cx="664.48" cy="269.98" fill="black" r="2.1333333333333333" />
<circle cx="665.41" cy="304.89" fill="black" r="2.1333333333333333" />
<circle cx="681.98" cy="157.43" fill="black" r="2.1333333333333333" />
<circle cx="683.73" cy="281.37" fill="black" r="2.1333333333333333" />
<circle cx="708.39" cy="132.55" fill="black" r="2.1333333333333333" />
<circle cx="718.01" cy="233.85" fill="black" r="2.1333333333333333" />
</g>
<polyline fill="none" points="679.35,281.37 688.11,281.37" stroke-width="1.28" stroke="black" />
<polyline fill="none" points="683.73,282.88 683.73,279.85" stroke-width="1.28" stroke="black" />
<g>
<circle cx="664.48" cy="269.98" fill="black" r="2.1333333333333333" />
<circle cx="665.41" cy="304.89" fill="black" r="2.1333333333333333" />
<circle cx="681.98" cy="157.43" fill="black" r="2.1333333333333333" />
<circle cx="683.73" cy="281.37" fill="black" r="2.1333333333333333" />
<circle cx="708.39" cy="132.55" fill="black" r="2.1333333333333333" />
<circle cx="718.01" cy="233.85" fill="black" r="2.1333333333333333" />
</g>
<polyline fill="none" points="712.91,233.85 723.12,233.85" stroke-width="1.28" stroke="black" />
<polyline fill="none" points="718.01,235.07 718.01,232.62" stroke-width="1.28" stroke="black" />
<g>
<circle cx="445.76" cy="545.10" fill="black" r="2.1333333333333333" />
<circle cx="615.72" cy="560.50" fill="black" r="2.1333333333333333" />
<circle cx="626.72" cy="556.08" fill="black" r="2.1333333333333333" />
<circle cx="641.96" cy="608.37" fill="black" r="2.1333333333333333" />
<circle cx="701.38" cy="578.44" fill="black" r="2.1333333333333333" />
<circle cx="772.32" cy="527.66" fill="black" r="2.1333333333333333" />
</g>
<polyline fill="none" points="694.36,578.44 708.41,578.44" stroke-width="1.28" stroke="black" />
<polyline fill="none" points="701.38,580.00 701.38,576.89" stroke-width="1.28" stroke="black" />
<g>
<circle cx="445.76" cy="545.10" fill="black" r="2.1333333333333333" />
<circle cx="615.72" cy="560.50" fill="black" r="2.1333333333333333" />
<circle cx="626.72" cy="556.08" fill="black" r="2.1333333333333333" />
<circle cx="641.96" cy="608.37" fill="black" r="2.1333333333333333" />
<circle cx="701.38" cy="578.44" fill="black" r="2.1333333333333333" />
<circle cx="772.32" cy="527.66" fill="black" r="2.1333333333333333" />
</g>
<polyline fill="none" points="438.34,545.10 453.17,545.10" stroke-width="1.28" stroke="black" />
<polyline fill="none" points="445.76,547.84 445.76,542.35" stroke-width="1.28" stroke="black" />
<g>
<circle cx="445.76" cy="545.10" fill="black" r="2.1333333333333333" />
<circle cx="615.72" cy="560.50" fill="black" r="2.1333333333333333" />
<circle cx="626.72" cy="556.08" fill="black" r="2.1333333333333333" />
<circle cx="641.96" cy="608.37" fill="black" r="2.1333333333333333" />
<circle cx="701.38" cy="578.44" fill="black" r="2.1333333333333333" />
<circle cx="772.32" cy="527.66" fill="black" r="2.1333333333333333" />
</g>
<polyline fill="none" points="608.55,560.50 622.89,560.50" stroke-width="1.28" stroke="black" />
<polyline fill="none" points="615.72,562.31 615.72,558.69" stroke-width="1.28" stroke="black" />
<g>
<circle cx="445.76" cy="545.10" fill="black" r="2.1333333333333333" />
<circle cx="615.72" cy="560.50" fill="black" r="2.1333333333333333" />
<circle cx="626.72" cy="556.08" fill="black" r="2.1333333333333333" />
<circle cx="641.96" cy="608.37" fill="black" r="2.1333333333333333" />
<circle cx="701.38" cy="578.44" fill="black" r="2.1333333333333333" />
<circle cx="772.32" cy="527.66" fill="black" r="2.1333333333333333" />
</g>
<polyline fill="none" points="635.58,608.37 648.34,608.37" stroke-width="1.28" stroke="black" />
<polyline fill="none" points="641.96,610.30 641.96,606.45" stroke-width="1.28" stroke="black" />
<g>
<circle cx="445.76" cy="545.10" fill="black" r="2.1333333333333333" />
<circle cx="615.72" cy="560.50" fill="black" r="2.1333333333333333" />
<circle cx="626.72" cy="556.08" fill="black" r="2.1333333333333333" />
<circle cx="641.96" cy="608.37" fill="black" r="2.1333333333333333" />
<circle cx="701.38" cy="578.44" fill="black" r="2.1333333333333333" />
<circle cx="772.32" cy="527.66" fill="black" r="2.1333333333333333" />
</g>
<polyline fill="none" points="766.82,527.66 777.81,527.66" stroke-width="1.28" stroke="black" />
<polyline fill="none" points="772.32,529.20 772.32,526.12" stroke-width="1.28" stroke="black" />
<g>
<circle cx="445.76" cy="545.10" fill="black" r="2.1333333333333333" />
<circle cx="615.72" cy="560.50" fill="black" r="2.1333333333333333" />
<circle cx="626.72" cy="556.08" fill="black" r="2.1333333333333333" />
<circle cx="641.96" cy="608.37" fill="black" r="2.1333333333333333" />
<circle cx="701.38" cy="578.44" fill="black" r="2.1333333333333333" />
<circle cx="772.32" cy="527.66" fill="black" r="2.1333333333333333" />
</g>
<polyline fill="none" points="619.67,556.08 633.76,556.08" stroke-width="1.28" stroke="black" />
<polyline fill="none" points="626.72,557.74 626.72,554.43" stroke-width="1.28" stroke="black" />
<g>
<circle cx="432.93" cy="711.25" fill="black" r="2.1333333333333333" />
<circle cx="592.21" cy="708.66" fill="black" r="2.1333333333333333" />
<circle cx="601.58" cy="813.49" fill="black" r="2.1333333333333333" />
<circle cx="637.73" cy="710.74" fill="black" r="2.1333333333333333" />
<circle cx="692.47" cy="739.43" fill="black" r="2.1333333333333333" />
<circle cx="791.03" cy="674.28" fill="black" r="2.1333333333333333" />
</g>
<polyline fill="none" points="786.84,674.28 795.22,674.28" stroke-width="1.28" stroke="black" />
<polyline fill="none" points="791.03,675.27 791.03,673.29" stroke-width="1.28" stroke="black" />
<g>
<circle cx="432.93" cy="711.25" fill="black" r="2.1333333333333333" />
<circle cx="592.21" cy="708.66" fill="black" r="2.1333333333333333" />
<circle cx="601.58" cy="813.49" fill="black" r="2.1333333333333333" />
<circle cx="637.73" cy="710.74" fill="black" r="2.1333333333333333" />
<circle cx="692.47" cy="739.43" fill="black" r="2.1333333333333333" />
<circle cx="791.03" cy="674.28" fill="black" r="2.1333333333333333" />
</g>
<polyline fill="none" points="631.01,710.74 644.46,710.74" stroke-width="1.28" stroke="black" />
<polyline fill="none" points="637.73,712.02 637.73,709.45" stroke-width="1.28" stroke="black" />
<g>
<circle cx="432.93" cy="711.25" fill="black" r="2.1333333333333333" />
<circle cx="592.21" cy="708.66" fill="black" r="2.1333333333333333" />
<circle cx="601.58" cy="813.49" fill="black" r="2.1333333333333333" />
<circle cx="637.73" cy="710.74" fill="black" r="2.1333333333333333" />
<circle cx="692.47" cy="739.43" fill="black" r="2.1333333333333333" />
<circle cx="791.03" cy="674.28" fill="black" r="2.1333333333333333" />
</g>
<polyline fill="none" points="586.58,708.66 597.83,708.66" stroke-width="1.28" stroke="black" />
<polyline fill="none" points="592.21,709.53 592.21,707.80" stroke-width="1.28" stroke="black" />
<g>
<circle cx="432.93" cy="711.25" fill="black" r="2.1333333333333333" />
<circle cx="592.21" cy="708.66" fill="black" r="2.1333333333333333" />
<circle cx="601.58" cy="813.49" fill="black" r="2.1333333333333333" />
<circle cx="637.73" cy="710.74" fill="black" r="2.1333333333333333" />
<circle cx="692.47" cy="739.43" fill="black" r="2.1333333333333333" />
<circle cx="791.03" cy="674.28" fill="black" r="2.1333333333333333" />
</g>
<polyline fill="none" points="593.37,813.49 609.80,813.49" stroke-width="1.28" stroke="black" />
<polyline fill="none" points="601.58,815.34 601.58,811.64" stroke-width="1.28" stroke="black" />
<g>
<circle cx="432.93" cy="711.25" fill="black" r="2.1333333333333333" />
<circle cx="592.21" cy="708.66" fill="black" r="2.1333333333333333" />
<circle cx="601.58" cy="813.49" fill="black" r="2.1333333333333333" />
<circle cx="637.73" cy="710.74" fill="black" r="2.1333333333333333" />
<circle cx="692.47" cy="739.43" fill="black" r="2.1333333333333333" />
<circle cx="791.03" cy="674.28" fill="black" r="2.1333333333333333" />
</g>
<polyline fill="none" points="424.18,711.25 441.68,711.25" stroke-width="1.28" stroke="black" />
<polyline fill="none" points="432.93,713.85 432.93,708.64" stroke-width="1.28" stroke="black" />
<g>
<circle cx="432.93" cy="711.25" fill="black" r="2.1333333333333333" />
<circle cx="592.21" cy="708.66" fill="black" r="2.1333333333333333" />
<circle cx="601.58" cy="813.49" fill="black" r="2.1333333333333333" />
<circle cx="637.73" cy="710.74" fill="black" r="2.1333333333333333" />
<circle cx="692.47" cy="739.43" fill="black" r="2.1333333333333333" />
<circle cx="791.03" cy="674.28" fill="black" r="2.1333333333333333" />
</g>
<polyline fill="none" points="684.33,739.43 700.61,739.43" stroke-width="1.28" stroke="black" />
<polyline fill="none" points="692.47,741.17 692.47,737.69" stroke-width="1.28" stroke="black" />
<g>
<text dominant-baseline="central" dy="12" fill="#15b01a" font-size="21.333333333333332" stroke="none" text-anchor="middle" x="664.48" y="269.98">C</text>
<text dominant-baseline="central" dy="12" fill="#15b01a" font-size="21.333333333333332" stroke="none" text-anchor="middle" x="665.41" y="304.89">D</text>
<text dominant-baseline="central" dy="12" fill="#15b01a" font-size="21.333333333333332" stroke="none" text-anchor="middle" x="681.98" y="157.43">B</text>
<text dominant-baseline="central" dy="12" fill="#15b01a" font-size="21.333333333333332" stroke="none" text-anchor="middle" x="683.73" y="281.37">E</text>
<text dominant-baseline="central" dy="12" fill="#15b01a" font-size="21.333333333333332" stroke="none" text-anchor="middle" x="708.39" y="132.55">A</text>
<text dominant-baseline="central" dy="12" fill="#15b01a" font-size="21.333333333333332" stroke="none" text-anchor="middle" x="718.01" y="233.85">F</text>
</g>
<g>
<g>
<text dominant-baseline="central" dy="12" fill="#f97306" font-size="21.333333333333332" stroke="none" text-anchor="middle" tooltip="sample too small" x="445.76" y="545.10">D</text>
<title>sample too small</title>
</g>
<text dominant-baseline="central" dy="12" fill="#f97306" font-size="21.333333333333332" stroke="none" text-anchor="middle" x="615.72" y="560.50">E</text>
<text dominant-baseline="central" dy="12" fill="#f97306" font-size="21.333333333333332" stroke="none" text-anchor="middle" x="626.72" y="556.08">B</text>
<text dominant-baseline="central" dy="12" fill="#f97306" font-size="21.333333333333332" stroke="none" text-anchor="middle" x="641.96" y="608.37">F</text>
<text dominant-baseline="central" dy="12" fill="#f97306" font-size="21.333333333333332" stroke="none" text-anchor="middle" x="701.38" y="578.44">C</text>
<text dominant-baseline="central" dy="12" fill="#f97306" font-size="21.333333333333332" stroke="none" text-anchor="middle" x="772.32" y="527.66">A</text>
</g>
<g>
<text dominant-baseline="central" dy="12" fill="#bf77f6" font-size="21.333333333333332" stroke="none" text-anchor="middle" x="432.93" y="711.25">F</text>
<text dominant-baseline="central" dy="12" fill="#bf77f6" font-size="21.333333333333332" stroke="none" text-anchor="middle" x="592.21" y="708.66">C</text>
<text dominant-baseline="central" dy="12" fill="#bf77f6" font-size="21.333333333333332" stroke="none" text-anchor="middle" x="601.58" y="813.49">E</text>
<text dominant-baseline="central" dy="12" fill="#bf77f6" font-size="21.333333333333332" stroke="none" text-anchor="middle" x="637.73" y="710.74">B</text>
<text dominant-baseline="central" dy="12" fill="#bf77f6" font-size="21.333333333333332" stroke="none" text-anchor="middle" x="692.47" y="739.43">D</text>
<text dominant-baseline="central" dy="12" fill="#bf77f6" font-size="21.333333333333332" stroke="none" text-anchor="middle" x="791.03" y="674.28">A</text>
</g>
<g stroke="black">
<line x1="151.92" x2="151.92" y1="950.00" y2="960.00" />
<line x1="427.73" x2="427.73" y1="950.00" y2="960.00" />
<line x1="703.55" x2="703.55" y1="950.00" y2="960.00" />
<g fill="black" font-family="Arial, sans-serif" font-size="18.0" stroke="none" text-anchor="start" transform="translate(9.0 0.0)">
<text x="151.92" y="970.57">-7</text>
<text x="427.73" y="970.57">-6</text>
<text x="703.55" y="970.57">-5</text>
</g>
<line x1="50.00" x2="950.00" y1="950.00" y2="950.00" />
</g>
<g stroke="black">
<line x1="50.00" x2="38.00" y1="917.46" y2="917.46" />
<line x1="50.00" x2="38.00" y1="797.03" y2="797.03" />
<line x1="50.00" x2="38.00" y1="676.60" y2="676.60" />
<line x1="50.00" x2="38.00" y1="556.18" y2="556.18" />
<line x1="50.00" x2="38.00" y1="435.75" y2="435.75" />
<line x1="50.00" x2="38.00" y1="315.32" y2="315.32" />
<line x1="50.00" x2="38.00" y1="194.89" y2="194.89" />
<line x1="50.00" x2="38.00" y1="74.47" y2="74.47" />
<g fill="black" font-family="Arial, sans-serif" font-size="18.0" stroke="none" text-anchor="end">
<text x="41.00" y="908.46">-12</text>
<text x="41.00" y="788.03">-11</text>
<text x="41.00" y="667.60">-10</text>
<text x="41.00" y="547.18">-9</text>
<text x="41.00" y="426.75">-8</text>
<text x="41.00" y="306.32">-7</text>
<text x="41.00" y="185.89">-6</text>
<text x="41.00" y="65.47">-5</text>
</g>
<line x1="50.00" x2="50.00" y1="950.00" y2="50.00" />
</g>
</g>
</svg>
</g>
</g>
</g>
</g>
</svg>